<ttFont>
    <TTGlyph name=".notdef" xMin="68" yMin="0" xMax="612" yMax="1365">
      <contour>
        <pt x="68" y="0" on="1"/>
        <pt x="68" y="1365" on="1"/>
        <pt x="612" y="1365" on="1"/>
        <pt x="612" y="0" on="1"/>
      </contour>
      <contour>
        <pt x="136" y="68" on="1"/>
        <pt x="544" y="68" on="1"/>
        <pt x="544" y="1297" on="1"/>
        <pt x="136" y="1297" on="1"/>
      </contour>
    </TTGlyph>
    <TTGlyph name="A" xMin="-111" yMin="-6" xMax="1103" yMax="1326">
      <contour>
        <pt x="877" y="4" on="1"/>
        <pt x="670" y="-6" on="1"/>
        <pt x="664" y="2" on="0"/>
        <pt x="673" y="44" on="0"/>
        <pt x="682" y="52" on="1"/>
        <pt x="796" y="52" on="0"/>
        <pt x="796" y="174" on="0"/>
        <pt x="790" y="212" on="1"/>
        <pt x="745" y="512" on="1"/>
        <pt x="348" y="512" on="1"/>
        <pt x="247" y="329" on="0"/>
        <pt x="148" y="139" on="0"/>
        <pt x="148" y="85" on="0"/>
        <pt x="181" y="64" on="0"/>
        <pt x="205" y="60" on="1"/>
        <pt x="253" y="52" on="0"/>
        <pt x="271" y="52" on="1"/>
        <pt x="274" y="48" on="0"/>
        <pt x="268" y="3" on="0"/>
        <pt x="263" y="-6" on="1"/>
        <pt x="263" y="-6" on="0"/>
        <pt x="85" y="4" on="1"/>
        <pt x="-111" y="-6" on="1"/>
        <pt x="-114" y="-2" on="0"/>
        <pt x="-105" y="41" on="0"/>
        <pt x="-99" y="52" on="1"/>
        <pt x="-76" y="52" on="0"/>
        <pt x="-1" y="73" on="0"/>
        <pt x="15" y="90" on="1"/>
        <pt x="63" y="141" on="0"/>
        <pt x="139" y="278" on="1"/>
        <pt x="691" y="1268" on="1"/>
        <pt x="703" y="1290" on="0"/>
        <pt x="757" y="1326" on="0"/>
        <pt x="778" y="1326" on="0"/>
        <pt x="781" y="1320" on="1"/>
        <pt x="953" y="252" on="1"/>
        <pt x="973" y="130" on="0"/>
        <pt x="980" y="96" on="0"/>
        <pt x="1016" y="68" on="0"/>
        <pt x="1039" y="62" on="1"/>
        <pt x="1077" y="52" on="0"/>
        <pt x="1102" y="52" on="1"/>
        <pt x="1106" y="40" on="0"/>
        <pt x="1100" y="0" on="0"/>
        <pt x="1096" y="-6" on="1"/>
        <pt x="911" y="4" on="0"/>
      </contour>
      <contour>
        <pt x="384" y="578" on="1"/>
        <pt x="735" y="578" on="1"/>
        <pt x="657" y="1070" on="1"/>
      </contour>
    </TTGlyph>
    <TTGlyph name="AE" xMin="-119" yMin="-8" xMax="1560" yMax="1328">
      <contour>
        <pt x="1420" y="-8" on="1"/>
        <pt x="788" y="0" on="1"/>
        <pt x="540" y="-6" on="1"/>
        <pt x="537" y="2" on="0"/>
        <pt x="545" y="59" on="0"/>
        <pt x="552" y="62" on="1"/>
        <pt x="579" y="62" on="0"/>
        <pt x="684" y="83" on="0"/>
        <pt x="702" y="104" on="1"/>
        <pt x="733" y="141" on="0"/>
        <pt x="742" y="248" on="1"/>
        <pt x="776" y="614" on="1"/>
        <pt x="486" y="614" on="1"/>
        <pt x="244" y="262" on="1"/>
        <pt x="154" y="133" on="0"/>
        <pt x="154" y="100" on="1"/>
        <pt x="154" y="79" on="0"/>
        <pt x="244" y="48" on="0"/>
        <pt x="268" y="48" on="1"/>
        <pt x="269" y="46" on="0"/>
        <pt x="269" y="6" on="0"/>
        <pt x="262" y="-6" on="1"/>
        <pt x="74" y="4" on="1"/>
        <pt x="42" y="4" on="0"/>
        <pt x="-118" y="-6" on="1"/>
        <pt x="-120" y="-4" on="0"/>
        <pt x="-117" y="48" on="0"/>
        <pt x="-112" y="48" on="1"/>
        <pt x="-90" y="48" on="0"/>
        <pt x="-3" y="73" on="0"/>
        <pt x="16" y="90" on="1"/>
        <pt x="95" y="160" on="0"/>
        <pt x="174" y="278" on="1"/>
        <pt x="790" y="1172" on="1"/>
        <pt x="800" y="1192" on="0"/>
        <pt x="800" y="1221" on="0"/>
        <pt x="770" y="1250" on="0"/>
        <pt x="740" y="1250" on="1"/>
        <pt x="734" y="1255" on="0"/>
        <pt x="735" y="1302" on="0"/>
        <pt x="740" y="1312" on="1"/>
        <pt x="936" y="1314" on="1"/>
        <pt x="1528" y="1328" on="1"/>
        <pt x="1529" y="1287" on="0"/>
        <pt x="1552" y="1056" on="1"/>
        <pt x="1542" y="1046" on="0"/>
        <pt x="1492" y="1046" on="0"/>
        <pt x="1492" y="1060" on="1"/>
        <pt x="1476" y="1173" on="0"/>
        <pt x="1380" y="1260" on="0"/>
        <pt x="1300" y="1260" on="1"/>
        <pt x="1140" y="1260" on="1"/>
        <pt x="1019" y="1260" on="0"/>
        <pt x="1010" y="1238" on="1"/>
        <pt x="994" y="1201" on="0"/>
        <pt x="982" y="1094" on="1"/>
        <pt x="940" y="694" on="1"/>
        <pt x="938" y="686" on="0"/>
        <pt x="957" y="685" on="1"/>
        <pt x="986" y="682" on="0"/>
        <pt x="1018" y="682" on="1"/>
        <pt x="1116" y="682" on="1"/>
        <pt x="1239" y="682" on="0"/>
        <pt x="1272" y="702" on="1"/>
        <pt x="1297" y="716" on="0"/>
        <pt x="1309" y="746" on="1"/>
        <pt x="1330" y="803" on="0"/>
        <pt x="1338" y="826" on="1"/>
        <pt x="1344" y="840" on="0"/>
        <pt x="1389" y="840" on="0"/>
        <pt x="1396" y="830" on="1"/>
        <pt x="1356" y="452" on="1"/>
        <pt x="1348" y="444" on="0"/>
        <pt x="1301" y="444" on="0"/>
        <pt x="1298" y="460" on="1"/>
        <pt x="1281" y="583" on="0"/>
        <pt x="1260" y="600" on="1"/>
        <pt x="1237" y="616" on="0"/>
        <pt x="932" y="616" on="0"/>
        <pt x="930" y="598" on="1"/>
        <pt x="892" y="218" on="1"/>
        <pt x="883" y="87" on="0"/>
        <pt x="890" y="80" on="1"/>
        <pt x="905" y="66" on="0"/>
        <pt x="954" y="60" on="0"/>
        <pt x="1020" y="60" on="1"/>
        <pt x="1108" y="60" on="1"/>
        <pt x="1257" y="60" on="0"/>
        <pt x="1429" y="179" on="0"/>
        <pt x="1486" y="324" on="1"/>
        <pt x="1492" y="336" on="0"/>
        <pt x="1552" y="336" on="0"/>
        <pt x="1560" y="324" on="1"/>
        <pt x="1550" y="302" on="0"/>
        <pt x="1512" y="219" on="1"/>
        <pt x="1436" y="57" on="0"/>
      </contour>
      <contour>
        <pt x="782" y="682" on="1"/>
        <pt x="822" y="1100" on="1"/>
        <pt x="534" y="682" on="1"/>
      </contour>
    </TTGlyph>
    <TTGlyph name="Aacute" xMin="-111" yMin="-6" xMax="1103" yMax="1638">
      <component glyphName="acutecomb.cap" x="391" y="34" flags="0x1004"/>
      <component glyphName="A" x="0" y="0" flags="0x1004"/>
    </TTGlyph>
    <TTGlyph name="Abreve" xMin="-111" yMin="-6" xMax="1103" yMax="1692">
      <component glyphName="A" x="0" y="0" flags="0x1004"/>
      <component glyphName="uni0306" x="1281" y="476" flags="0x1004"/>
    </TTGlyph>
    <TTGlyph name="Acircumflex" xMin="-111" yMin="-6" xMax="1103" yMax="1672">
      <component glyphName="uni0302.cap" x="207" y="0" flags="0x1004"/>
      <component glyphName="A" x="0" y="0" flags="0x1004"/>
    </TTGlyph>
    <TTGlyph name="Adieresis" xMin="-111" yMin="-6" xMax="1103" yMax="1656">
      <component glyphName="A" x="0" y="0" flags="0x1004"/>
      <component glyphName="uni0308.cap" x="185" y="32" flags="0x1004"/>
    </TTGlyph>
    <TTGlyph name="Agrave" xMin="-111" yMin="-6" xMax="1103" yMax="1636">
      <component glyphName="gravecomb.cap" x="143" y="32" flags="0x1004"/>
      <component glyphName="A" x="0" y="0" flags="0x1004"/>
    </TTGlyph>
    <TTGlyph name="Amacron" xMin="-111" yMin="-6" xMax="1103" yMax="1552">
      <component glyphName="A" x="0" y="0" flags="0x1004"/>
      <component glyphName="uni0304.cap" x="209" y="360" flags="0x1004"/>
    </TTGlyph>
    <TTGlyph name="Aogonek" xMin="-111" yMin="-460" xMax="1088" yMax="1326">
      <contour>
        <pt x="85" y="4" on="1"/>
        <pt x="-111" y="-6" on="1"/>
        <pt x="-114" y="-2" on="0"/>
        <pt x="-105" y="41" on="0"/>
        <pt x="-99" y="52" on="1"/>
        <pt x="-76" y="52" on="0"/>
        <pt x="-1" y="73" on="0"/>
        <pt x="15" y="90" on="1"/>
        <pt x="63" y="141" on="0"/>
        <pt x="139" y="278" on="1"/>
        <pt x="691" y="1268" on="1"/>
        <pt x="703" y="1290" on="0"/>
        <pt x="757" y="1326" on="0"/>
        <pt x="778" y="1326" on="0"/>
        <pt x="781" y="1320" on="1"/>
        <pt x="953" y="252" on="1"/>
        <pt x="962" y="183" on="0"/>
        <pt x="975" y="120" on="1"/>
        <pt x="981" y="89" on="0"/>
        <pt x="1066" y="52" on="0"/>
        <pt x="1087" y="52" on="1"/>
        <pt x="1091" y="40" on="0"/>
        <pt x="1085" y="0" on="0"/>
        <pt x="1081" y="-6" on="1"/>
        <pt x="1016" y="0" on="1"/>
        <pt x="985" y="0" on="1"/>
        <pt x="908" y="0" on="0"/>
        <pt x="763" y="-67" on="0"/>
        <pt x="716" y="-113" on="1"/>
        <pt x="613" y="-215" on="0"/>
        <pt x="613" y="-342" on="0"/>
        <pt x="675" y="-342" on="1"/>
        <pt x="748" y="-342" on="0"/>
        <pt x="816" y="-285" on="1"/>
        <pt x="838" y="-266" on="0"/>
        <pt x="851" y="-268" on="0"/>
        <pt x="836" y="-319" on="0"/>
        <pt x="829" y="-326" on="1"/>
        <pt x="709" y="-460" on="0"/>
        <pt x="607" y="-460" on="1"/>
        <pt x="563" y="-460" on="0"/>
        <pt x="505" y="-398" on="0"/>
        <pt x="505" y="-305" on="0"/>
        <pt x="582" y="-172" on="0"/>
        <pt x="662" y="-81" on="0"/>
        <pt x="727" y="-16" on="0"/>
        <pt x="770" y="23" on="0"/>
        <pt x="776" y="30" on="1"/>
        <pt x="795" y="57" on="0"/>
        <pt x="795" y="182" on="0"/>
        <pt x="790" y="212" on="1"/>
        <pt x="745" y="512" on="1"/>
        <pt x="348" y="512" on="1"/>
        <pt x="247" y="329" on="0"/>
        <pt x="148" y="139" on="0"/>
        <pt x="148" y="85" on="0"/>
        <pt x="181" y="64" on="0"/>
        <pt x="205" y="60" on="1"/>
        <pt x="253" y="52" on="0"/>
        <pt x="271" y="52" on="1"/>
        <pt x="274" y="48" on="0"/>
        <pt x="268" y="3" on="0"/>
        <pt x="263" y="-6" on="1"/>
      </contour>
      <contour>
        <pt x="384" y="578" on="1"/>
        <pt x="735" y="578" on="1"/>
        <pt x="657" y="1070" on="1"/>
      </contour>
    </TTGlyph>
    <TTGlyph name="Aring" xMin="-111" yMin="-6" xMax="1103" yMax="1676">
      <component glyphName="A" x="0" y="0" flags="0x1004"/>
      <component glyphName="uni030A.cap" x="227" y="314" flags="0x1004"/>
    </TTGlyph>
    <TTGlyph name="Atilde" xMin="-111" yMin="-6" xMax="1103" yMax="1638">
      <component glyphName="tildecomb.cap" x="151" y="28" flags="0x1004"/>
      <component glyphName="A" x="0" y="0" flags="0x1004"/>
    </TTGlyph>
    <TTGlyph name="B" xMin="-10" yMin="-6" xMax="1042" yMax="1324">
      <contour>
        <pt x="436" y="740" on="1"/>
        <pt x="624" y="740" on="1"/>
        <pt x="725" y="740" on="0"/>
        <pt x="866" y="917" on="0"/>
        <pt x="866" y="1028" on="1"/>
        <pt x="866" y="1260" on="0"/>
        <pt x="639" y="1260" on="1"/>
        <pt x="552" y="1260" on="0"/>
        <pt x="526" y="1214" on="0"/>
        <pt x="503" y="1090" on="1"/>
      </contour>
      <contour>
        <pt x="423" y="678" on="1"/>
        <pt x="334" y="228" on="1"/>
        <pt x="312" y="130" on="0"/>
        <pt x="323" y="86" on="1"/>
        <pt x="338" y="64" on="0"/>
        <pt x="402" y="52" on="0"/>
        <pt x="463" y="52" on="1"/>
        <pt x="621" y="52" on="0"/>
        <pt x="818" y="258" on="0"/>
        <pt x="818" y="440" on="1"/>
        <pt x="818" y="520" on="0"/>
        <pt x="788" y="578" on="0"/>
        <pt x="747" y="627" on="0"/>
        <pt x="718" y="642" on="1"/>
        <pt x="648" y="678" on="0"/>
        <pt x="537" y="678" on="1"/>
      </contour>
      <contour>
        <pt x="467" y="1314" on="1"/>
        <pt x="731" y="1318" on="1"/>
        <pt x="868" y="1318" on="0"/>
        <pt x="1042" y="1196" on="0"/>
        <pt x="1042" y="1074" on="1"/>
        <pt x="1042" y="858" on="0"/>
        <pt x="802" y="732" on="1"/>
        <pt x="877" y="725" on="0"/>
        <pt x="1008" y="567" on="0"/>
        <pt x="1008" y="452" on="1"/>
        <pt x="1008" y="250" on="0"/>
        <pt x="674" y="-6" on="0"/>
        <pt x="419" y="-6" on="1"/>
        <pt x="-9" y="-6" on="1"/>
        <pt x="-15" y="2" on="0"/>
        <pt x="-5" y="44" on="0"/>
        <pt x="3" y="52" on="1"/>
        <pt x="31" y="52" on="0"/>
        <pt x="131" y="70" on="0"/>
        <pt x="151" y="112" on="0"/>
        <pt x="175" y="232" on="1"/>
        <pt x="341" y="1086" on="1"/>
        <pt x="362" y="1193" on="0"/>
        <pt x="361" y="1234" on="1"/>
        <pt x="360" y="1250" on="0"/>
        <pt x="269" y="1266" on="0"/>
        <pt x="239" y="1266" on="1"/>
        <pt x="234" y="1273" on="0"/>
        <pt x="240" y="1317" on="0"/>
        <pt x="249" y="1324" on="1"/>
        <pt x="439" y="1314" on="0"/>
      </contour>
    </TTGlyph>
    <TTGlyph name="C" xMin="118" yMin="-16" xMax="1252" yMax="1332">
      <contour>
        <pt x="1138" y="346" on="1"/>
        <pt x="1162" y="346" on="0"/>
        <pt x="1194" y="330" on="1"/>
        <pt x="1188" y="298" on="0"/>
        <pt x="1071" y="73" on="0"/>
        <pt x="1050" y="56" on="1"/>
        <pt x="971" y="15" on="0"/>
        <pt x="794" y="-16" on="0"/>
        <pt x="502" y="-16" on="0"/>
        <pt x="252" y="134" on="0"/>
        <pt x="118" y="382" on="0"/>
        <pt x="118" y="677" on="0"/>
        <pt x="207" y="937" on="0"/>
        <pt x="362" y="1129" on="0"/>
        <pt x="464" y="1198" on="1"/>
        <pt x="670" y="1336" on="0"/>
        <pt x="930" y="1332" on="1"/>
        <pt x="1048" y="1330" on="0"/>
        <pt x="1252" y="1280" on="1"/>
        <pt x="1240" y="1061" on="0"/>
        <pt x="1232" y="988" on="1"/>
        <pt x="1230" y="978" on="0"/>
        <pt x="1190" y="978" on="0"/>
        <pt x="1170" y="988" on="1"/>
        <pt x="1177" y="1106" on="0"/>
        <pt x="1000" y="1270" on="0"/>
        <pt x="755" y="1270" on="0"/>
        <pt x="549" y="1170" on="0"/>
        <pt x="396" y="991" on="0"/>
        <pt x="308" y="723" on="0"/>
        <pt x="308" y="489" on="0"/>
        <pt x="335" y="347" on="0"/>
        <pt x="397" y="209" on="0"/>
        <pt x="442" y="157" on="1"/>
        <pt x="543" y="42" on="0"/>
        <pt x="716" y="42" on="1"/>
        <pt x="979" y="42" on="0"/>
      </contour>
    </TTGlyph>
    <TTGlyph name="Cacute" xMin="118" yMin="-16" xMax="1252" yMax="1638">
      <component glyphName="acutecomb.cap" x="514" y="34" flags="0x1004"/>
      <component glyphName="C" x="0" y="0" flags="0x1004"/>
    </TTGlyph>
    <TTGlyph name="Ccaron" xMin="118" yMin="-16" xMax="1252" yMax="1672">
      <component glyphName="uni030C.cap" x="400" y="0" flags="0x1004"/>
      <component glyphName="C" x="0" y="0" flags="0x1004"/>
    </TTGlyph>
    <TTGlyph name="Ccedilla" xMin="118" yMin="-348" xMax="1252" yMax="1332">
      <component glyphName="C" x="0" y="0" flags="0x1004"/>
      <component glyphName="uni0327.cap" x="254" y="0" flags="0x1004"/>
    </TTGlyph>
    <TTGlyph name="Ccircumflex" xMin="118" yMin="-16" xMax="1252" yMax="1672">
      <component glyphName="uni0302.cap" x="334" y="0" flags="0x1004"/>
      <component glyphName="C" x="0" y="0" flags="0x1004"/>
    </TTGlyph>
    <TTGlyph name="Cdotaccent" xMin="118" yMin="-16" xMax="1252" yMax="1656">
      <component glyphName="uni0307" x="1442" y="476" flags="0x1004"/>
      <component glyphName="C" x="0" y="0" flags="0x1004"/>
    </TTGlyph>
    <TTGlyph name="D" xMin="-10" yMin="-6" xMax="1291" yMax="1324">
      <contour>
        <pt x="504" y="1092" on="1"/>
        <pt x="334" y="224" on="1"/>
        <pt x="308" y="100" on="0"/>
        <pt x="318" y="80" on="1"/>
        <pt x="331" y="52" on="0"/>
        <pt x="573" y="52" on="0"/>
        <pt x="774" y="123" on="0"/>
        <pt x="860" y="192" on="1"/>
        <pt x="1043" y="340" on="0"/>
        <pt x="1099" y="626" on="1"/>
        <pt x="1184" y="1105" on="0"/>
        <pt x="884" y="1226" on="1"/>
        <pt x="794" y="1262" on="0"/>
        <pt x="553" y="1262" on="0"/>
        <pt x="542" y="1240" on="1"/>
        <pt x="526" y="1208" on="0"/>
      </contour>
      <contour>
        <pt x="467" y="1314" on="1"/>
        <pt x="737" y="1316" on="1"/>
        <pt x="1111" y="1316" on="0"/>
        <pt x="1250" y="1056" on="1"/>
        <pt x="1331" y="906" on="0"/>
        <pt x="1291" y="668" on="1"/>
        <pt x="1221" y="311" on="0"/>
        <pt x="966" y="134" on="1"/>
        <pt x="768" y="-4" on="0"/>
        <pt x="457" y="-6" on="1"/>
        <pt x="-9" y="-6" on="1"/>
        <pt x="-15" y="2" on="0"/>
        <pt x="-5" y="44" on="0"/>
        <pt x="3" y="52" on="1"/>
        <pt x="31" y="52" on="0"/>
        <pt x="131" y="70" on="0"/>
        <pt x="151" y="112" on="0"/>
        <pt x="175" y="232" on="1"/>
        <pt x="341" y="1086" on="1"/>
        <pt x="365" y="1204" on="0"/>
        <pt x="361" y="1234" on="1"/>
        <pt x="360" y="1248" on="0"/>
        <pt x="267" y="1266" on="0"/>
        <pt x="239" y="1266" on="1"/>
        <pt x="234" y="1273" on="0"/>
        <pt x="240" y="1317" on="0"/>
        <pt x="249" y="1324" on="1"/>
        <pt x="439" y="1314" on="0"/>
      </contour>
    </TTGlyph>
    <TTGlyph name="Dcaron" xMin="-10" yMin="-6" xMax="1291" yMax="1672">
      <component glyphName="D" x="0" y="0" flags="0x1004"/>
      <component glyphName="uni030C.cap" x="215" y="0" flags="0x1004"/>
    </TTGlyph>
    <TTGlyph name="Dcroat" xMin="-10" yMin="-6" xMax="1291" yMax="1324">
      <component glyphName="Eth.ref1" x="0" y="0" flags="0x1004"/>
      <component glyphName="D" x="0" y="0" flags="0x1004"/>
    </TTGlyph>
    <TTGlyph name="Dot.a" xMin="-147" yMin="6" xMax="113" yMax="264">
      <contour>
        <pt x="-65" y="260" on="1"/>
        <pt x="-61" y="268" on="0"/>
        <pt x="-48" y="264" on="1"/>
        <pt x="36" y="236" on="0"/>
        <pt x="107" y="179" on="1"/>
        <pt x="117" y="171" on="0"/>
        <pt x="112" y="161" on="1"/>
        <pt x="33" y="6" on="1"/>
        <pt x="28" y="-3" on="0"/>
        <pt x="-4" y="21" on="0"/>
        <pt x="-142" y="99" on="1"/>
        <pt x="-151" y="104" on="0"/>
        <pt x="-147" y="111" on="1"/>
      </contour>
    </TTGlyph>
    <TTGlyph name="Dot.b" xMin="-147" yMin="6" xMax="113" yMax="264">
      <component glyphName="Dot.a" x="0" y="0" flags="0x1004"/>
    </TTGlyph>
    <TTGlyph name="Dot.b.l" xMin="-147" yMin="6" xMax="113" yMax="264">
      <component glyphName="Dot.a" x="0" y="0" flags="0x1004"/>
    </TTGlyph>
    <TTGlyph name="E" xMin="-12" yMin="-8" xMax="1068" yMax="1328">
      <contour>
        <pt x="212" y="0" on="1"/>
        <pt x="-10" y="-6" on="1"/>
        <pt x="-16" y="2" on="0"/>
        <pt x="-8" y="44" on="0"/>
        <pt x="0" y="52" on="1"/>
        <pt x="28" y="52" on="0"/>
        <pt x="130" y="70" on="0"/>
        <pt x="136" y="84" on="1"/>
        <pt x="150" y="112" on="0"/>
        <pt x="174" y="232" on="1"/>
        <pt x="340" y="1086" on="1"/>
        <pt x="362" y="1198" on="0"/>
        <pt x="358" y="1234" on="1"/>
        <pt x="357" y="1248" on="0"/>
        <pt x="264" y="1266" on="0"/>
        <pt x="236" y="1266" on="1"/>
        <pt x="231" y="1273" on="0"/>
        <pt x="239" y="1317" on="0"/>
        <pt x="248" y="1324" on="1"/>
        <pt x="438" y="1314" on="0"/>
        <pt x="550" y="1314" on="0"/>
        <pt x="962" y="1328" on="0"/>
        <pt x="1066" y="1328" on="1"/>
        <pt x="1062" y="1303" on="0"/>
        <pt x="1068" y="1073" on="0"/>
        <pt x="1068" y="1056" on="1"/>
        <pt x="1058" y="1046" on="0"/>
        <pt x="1010" y="1046" on="0"/>
        <pt x="1010" y="1060" on="1"/>
        <pt x="1003" y="1173" on="0"/>
        <pt x="914" y="1260" on="0"/>
        <pt x="834" y="1260" on="1"/>
        <pt x="674" y="1260" on="1"/>
        <pt x="553" y="1260" on="0"/>
        <pt x="542" y="1238" on="1"/>
        <pt x="521" y="1196" on="0"/>
        <pt x="502" y="1094" on="1"/>
        <pt x="428" y="710" on="1"/>
        <pt x="426" y="702" on="0"/>
        <pt x="445" y="701" on="1"/>
        <pt x="474" y="698" on="0"/>
        <pt x="506" y="698" on="1"/>
        <pt x="604" y="698" on="1"/>
        <pt x="730" y="698" on="0"/>
        <pt x="761" y="718" on="1"/>
        <pt x="787" y="734" on="0"/>
        <pt x="815" y="793" on="0"/>
        <pt x="824" y="814" on="1"/>
        <pt x="836" y="842" on="1"/>
        <pt x="842" y="856" on="0"/>
        <pt x="889" y="856" on="0"/>
        <pt x="896" y="846" on="1"/>
        <pt x="824" y="468" on="1"/>
        <pt x="816" y="460" on="0"/>
        <pt x="769" y="460" on="0"/>
        <pt x="766" y="476" on="1"/>
        <pt x="760" y="598" on="0"/>
        <pt x="740" y="616" on="1"/>
        <pt x="719" y="632" on="0"/>
        <pt x="412" y="632" on="0"/>
        <pt x="408" y="614" on="1"/>
        <pt x="330" y="218" on="1"/>
        <pt x="305" y="91" on="0"/>
        <pt x="330" y="66" on="0"/>
        <pt x="378" y="60" on="0"/>
        <pt x="444" y="60" on="1"/>
        <pt x="532" y="60" on="1"/>
        <pt x="686" y="60" on="0"/>
        <pt x="869" y="181" on="0"/>
        <pt x="936" y="324" on="1"/>
        <pt x="942" y="336" on="0"/>
        <pt x="1002" y="336" on="0"/>
        <pt x="1010" y="324" on="1"/>
        <pt x="997" y="299" on="0"/>
        <pt x="953" y="218" on="1"/>
        <pt x="865" y="55" on="0"/>
        <pt x="844" y="-8" on="1"/>
      </contour>
    </TTGlyph>
    <TTGlyph name="Eacute" xMin="-12" yMin="-8" xMax="1068" yMax="1638">
      <component glyphName="acutecomb.cap" x="277" y="34" flags="0x1004"/>
      <component glyphName="E" x="0" y="0" flags="0x1004"/>
    </TTGlyph>
    <TTGlyph name="Ebreve" xMin="-12" yMin="-8" xMax="1068" yMax="1672">
      <component glyphName="E" x="0" y="0" flags="0x1004"/>
      <component glyphName="uni0306.cap" x="251" y="406" flags="0x1004"/>
    </TTGlyph>
    <TTGlyph name="Ecaron" xMin="-12" yMin="-8" xMax="1068" yMax="1672">
      <component glyphName="uni030C.cap" x="203" y="0" flags="0x1004"/>
      <component glyphName="E" x="0" y="0" flags="0x1004"/>
    </TTGlyph>
    <TTGlyph name="Ecircumflex" xMin="-12" yMin="-8" xMax="1068" yMax="1672">
      <component glyphName="uni0302.cap" x="147" y="0" flags="0x1004"/>
      <component glyphName="E" x="0" y="0" flags="0x1004"/>
    </TTGlyph>
    <TTGlyph name="Edieresis" xMin="-12" yMin="-8" xMax="1068" yMax="1656">
      <component glyphName="uni0308.cap" x="121" y="32" flags="0x1004"/>
      <component glyphName="E" x="0" y="0" flags="0x1004"/>
    </TTGlyph>
    <TTGlyph name="Edotaccent" xMin="-12" yMin="-8" xMax="1068" yMax="1656">
      <component glyphName="E" x="0" y="0" flags="0x1004"/>
      <component glyphName="uni0307" x="1245" y="476" flags="0x1004"/>
    </TTGlyph>
    <TTGlyph name="Egrave" xMin="-12" yMin="-8" xMax="1068" yMax="1636">
      <component glyphName="gravecomb.cap" x="157" y="32" flags="0x1004"/>
      <component glyphName="E" x="0" y="0" flags="0x1004"/>
    </TTGlyph>
    <TTGlyph name="Emacron" xMin="-12" yMin="-8" xMax="1068" yMax="1552">
      <component glyphName="E" x="0" y="0" flags="0x1004"/>
      <component glyphName="uni0304.cap" x="135" y="360" flags="0x1004"/>
    </TTGlyph>
    <TTGlyph name="Eng" xMin="-25" yMin="-466" xMax="1552" yMax="1330">
      <contour>
        <pt x="1348" y="1316" on="1"/>
        <pt x="1552" y="1326" on="1"/>
        <pt x="1562" y="1300" on="0"/>
        <pt x="1542" y="1268" on="1"/>
        <pt x="1516" y="1268" on="0"/>
        <pt x="1400" y="1244" on="0"/>
        <pt x="1386" y="1225" on="1"/>
        <pt x="1363" y="1193" on="0"/>
        <pt x="1344" y="1092" on="1"/>
        <pt x="1178" y="232" on="1"/>
        <pt x="1098" y="-189" on="0"/>
        <pt x="869" y="-372" on="1"/>
        <pt x="752" y="-466" on="0"/>
        <pt x="640" y="-466" on="1"/>
        <pt x="634" y="-457" on="0"/>
        <pt x="634" y="-440" on="1"/>
        <pt x="636" y="-428" on="1"/>
        <pt x="841" y="-365" on="0"/>
        <pt x="963" y="-80" on="1"/>
        <pt x="997" y="0" on="0"/>
        <pt x="1020" y="88" on="1"/>
        <pt x="452" y="1138" on="1"/>
        <pt x="276" y="230" on="1"/>
        <pt x="264" y="169" on="0"/>
        <pt x="260" y="123" on="0"/>
        <pt x="268" y="92" on="1"/>
        <pt x="273" y="78" on="0"/>
        <pt x="375" y="52" on="0"/>
        <pt x="402" y="52" on="1"/>
        <pt x="410" y="29" on="0"/>
        <pt x="394" y="-6" on="1"/>
        <pt x="209" y="4" on="0"/>
        <pt x="182" y="4" on="1"/>
        <pt x="-24" y="-6" on="1"/>
        <pt x="-28" y="0" on="0"/>
        <pt x="-22" y="37" on="0"/>
        <pt x="-12" y="52" on="1"/>
        <pt x="14" y="52" on="0"/>
        <pt x="128" y="76" on="0"/>
        <pt x="140" y="92" on="1"/>
        <pt x="168" y="130" on="0"/>
        <pt x="186" y="228" on="1"/>
        <pt x="354" y="1096" on="1"/>
        <pt x="365" y="1157" on="0"/>
        <pt x="369" y="1205" on="0"/>
        <pt x="362" y="1232" on="1"/>
        <pt x="357" y="1248" on="0"/>
        <pt x="252" y="1272" on="0"/>
        <pt x="226" y="1272" on="1"/>
        <pt x="217" y="1306" on="0"/>
        <pt x="236" y="1330" on="1"/>
        <pt x="428" y="1320" on="1"/>
        <pt x="518" y="1320" on="0"/>
        <pt x="570" y="1324" on="1"/>
        <pt x="601" y="1247" on="0"/>
        <pt x="1031" y="491" on="0"/>
        <pt x="1106" y="332" on="1"/>
        <pt x="1254" y="1090" on="1"/>
        <pt x="1266" y="1151" on="0"/>
        <pt x="1270" y="1197" on="0"/>
        <pt x="1262" y="1228" on="1"/>
        <pt x="1257" y="1242" on="0"/>
        <pt x="1155" y="1268" on="0"/>
        <pt x="1128" y="1268" on="1"/>
        <pt x="1120" y="1291" on="0"/>
        <pt x="1136" y="1326" on="1"/>
        <pt x="1321" y="1316" on="0"/>
      </contour>
    </TTGlyph>
    <TTGlyph name="Eogonek" xMin="-13" yMin="-460" xMax="1068" yMax="1328">
      <contour>
        <pt x="211" y="0" on="1"/>
        <pt x="-11" y="-6" on="1"/>
        <pt x="-17" y="2" on="0"/>
        <pt x="-9" y="44" on="0"/>
        <pt x="-1" y="52" on="1"/>
        <pt x="27" y="52" on="0"/>
        <pt x="129" y="70" on="0"/>
        <pt x="135" y="84" on="1"/>
        <pt x="149" y="112" on="0"/>
        <pt x="173" y="232" on="1"/>
        <pt x="339" y="1086" on="1"/>
        <pt x="361" y="1198" on="0"/>
        <pt x="357" y="1234" on="1"/>
        <pt x="356" y="1248" on="0"/>
        <pt x="263" y="1266" on="0"/>
        <pt x="235" y="1266" on="1"/>
        <pt x="230" y="1273" on="0"/>
        <pt x="238" y="1317" on="0"/>
        <pt x="247" y="1324" on="1"/>
        <pt x="437" y="1314" on="0"/>
        <pt x="550" y="1314" on="0"/>
        <pt x="962" y="1328" on="0"/>
        <pt x="1066" y="1328" on="1"/>
        <pt x="1062" y="1303" on="0"/>
        <pt x="1068" y="1073" on="0"/>
        <pt x="1068" y="1056" on="1"/>
        <pt x="1058" y="1046" on="0"/>
        <pt x="1010" y="1046" on="0"/>
        <pt x="1010" y="1060" on="1"/>
        <pt x="1003" y="1173" on="0"/>
        <pt x="914" y="1260" on="0"/>
        <pt x="834" y="1260" on="1"/>
        <pt x="674" y="1260" on="1"/>
        <pt x="553" y="1260" on="0"/>
        <pt x="542" y="1238" on="1"/>
        <pt x="521" y="1196" on="0"/>
        <pt x="502" y="1094" on="1"/>
        <pt x="428" y="710" on="1"/>
        <pt x="426" y="702" on="0"/>
        <pt x="445" y="701" on="1"/>
        <pt x="474" y="698" on="0"/>
        <pt x="506" y="698" on="1"/>
        <pt x="604" y="698" on="1"/>
        <pt x="730" y="698" on="0"/>
        <pt x="761" y="718" on="1"/>
        <pt x="787" y="734" on="0"/>
        <pt x="815" y="793" on="0"/>
        <pt x="824" y="814" on="1"/>
        <pt x="836" y="842" on="1"/>
        <pt x="842" y="856" on="0"/>
        <pt x="889" y="856" on="0"/>
        <pt x="896" y="846" on="1"/>
        <pt x="824" y="468" on="1"/>
        <pt x="816" y="460" on="0"/>
        <pt x="769" y="460" on="0"/>
        <pt x="766" y="476" on="1"/>
        <pt x="760" y="598" on="0"/>
        <pt x="740" y="616" on="1"/>
        <pt x="719" y="632" on="0"/>
        <pt x="412" y="632" on="0"/>
        <pt x="408" y="614" on="1"/>
        <pt x="330" y="218" on="1"/>
        <pt x="305" y="91" on="0"/>
        <pt x="330" y="66" on="0"/>
        <pt x="378" y="60" on="0"/>
        <pt x="444" y="60" on="1"/>
        <pt x="532" y="60" on="1"/>
        <pt x="686" y="60" on="0"/>
        <pt x="869" y="181" on="0"/>
        <pt x="936" y="324" on="1"/>
        <pt x="942" y="336" on="0"/>
        <pt x="1002" y="336" on="0"/>
        <pt x="1010" y="324" on="1"/>
        <pt x="997" y="299" on="0"/>
        <pt x="953" y="218" on="1"/>
        <pt x="865" y="55" on="0"/>
        <pt x="844" y="-8" on="1"/>
        <pt x="776" y="-8" on="0"/>
        <pt x="644" y="-64" on="0"/>
        <pt x="599" y="-106" on="1"/>
        <pt x="499" y="-198" on="0"/>
        <pt x="499" y="-342" on="0"/>
        <pt x="561" y="-342" on="1"/>
        <pt x="634" y="-342" on="0"/>
        <pt x="702" y="-285" on="1"/>
        <pt x="724" y="-266" on="0"/>
        <pt x="737" y="-268" on="0"/>
        <pt x="722" y="-319" on="0"/>
        <pt x="715" y="-326" on="1"/>
        <pt x="595" y="-460" on="0"/>
        <pt x="493" y="-460" on="1"/>
        <pt x="449" y="-460" on="0"/>
        <pt x="391" y="-401" on="0"/>
        <pt x="391" y="-360" on="1"/>
        <pt x="391" y="-279" on="0"/>
        <pt x="549" y="-46" on="0"/>
        <pt x="633" y="-6" on="1"/>
        <pt x="261" y="0" on="0"/>
      </contour>
    </TTGlyph>
    <TTGlyph name="Eth" xMin="-10" yMin="-6" xMax="1291" yMax="1324">
      <component glyphName="D" x="0" y="0" flags="0x1004"/>
      <component glyphName="Eth.ref1" x="0" y="0" flags="0x1004"/>
    </TTGlyph>
    <TTGlyph name="Eth.ref1" xMin="142" yMin="626" xMax="828" yMax="698">
      <contour>
        <pt x="159" y="698" on="1"/>
        <pt x="819" y="698" on="1"/>
        <pt x="834" y="698" on="0"/>
        <pt x="821" y="643" on="0"/>
        <pt x="809" y="626" on="1"/>
        <pt x="147" y="626" on="1"/>
        <pt x="136" y="626" on="0"/>
        <pt x="149" y="688" on="0"/>
      </contour>
    </TTGlyph>
    <TTGlyph name="Euro" xMin="56" yMin="-16" xMax="1187" yMax="1266">
      <contour>
        <pt x="1115" y="1050" on="0"/>
        <pt x="955" y="1199" on="0"/>
        <pt x="746" y="1199" on="0"/>
        <pt x="564" y="1106" on="0"/>
        <pt x="425" y="940" on="0"/>
        <pt x="342" y="686" on="0"/>
        <pt x="342" y="448" on="0"/>
        <pt x="389" y="281" on="0"/>
        <pt x="476" y="139" on="0"/>
        <pt x="622" y="52" on="0"/>
        <pt x="713" y="52" on="1"/>
        <pt x="839" y="52" on="0"/>
        <pt x="948" y="149" on="1"/>
        <pt x="1029" y="221" on="0"/>
        <pt x="1080" y="328" on="1"/>
        <pt x="1099" y="328" on="0"/>
        <pt x="1129" y="313" on="1"/>
        <pt x="1123" y="282" on="0"/>
        <pt x="1021" y="68" on="0"/>
        <pt x="1002" y="52" on="1"/>
        <pt x="932" y="14" on="0"/>
        <pt x="779" y="-16" on="0"/>
        <pt x="532" y="-16" on="0"/>
        <pt x="299" y="125" on="0"/>
        <pt x="161" y="365" on="0"/>
        <pt x="161" y="642" on="0"/>
        <pt x="246" y="891" on="0"/>
        <pt x="391" y="1072" on="0"/>
        <pt x="484" y="1138" on="1"/>
        <pt x="672" y="1270" on="0"/>
        <pt x="894" y="1266" on="1"/>
        <pt x="1007" y="1264" on="0"/>
        <pt x="1187" y="1216" on="1"/>
        <pt x="1180" y="1089" on="0"/>
        <pt x="1169" y="939" on="1"/>
        <pt x="1168" y="924" on="0"/>
        <pt x="1117" y="924" on="0"/>
        <pt x="1108" y="939" on="1"/>
      </contour>
      <contour>
        <pt x="94" y="680" on="1"/>
        <pt x="86" y="680" on="0"/>
        <pt x="86" y="708" on="0"/>
        <pt x="102" y="750" on="0"/>
        <pt x="112" y="758" on="1"/>
        <pt x="788" y="758" on="1"/>
        <pt x="794" y="758" on="0"/>
        <pt x="794" y="704" on="0"/>
        <pt x="770" y="680" on="1"/>
      </contour>
      <contour>
        <pt x="64" y="484" on="1"/>
        <pt x="56" y="484" on="0"/>
        <pt x="56" y="512" on="0"/>
        <pt x="72" y="554" on="0"/>
        <pt x="82" y="562" on="1"/>
        <pt x="758" y="562" on="1"/>
        <pt x="764" y="562" on="0"/>
        <pt x="764" y="508" on="0"/>
        <pt x="740" y="484" on="1"/>
      </contour>
    </TTGlyph>
    <TTGlyph name="F" xMin="-12" yMin="-6" xMax="1068" yMax="1328">
      <contour>
        <pt x="210" y="4" on="1"/>
        <pt x="-10" y="-6" on="1"/>
        <pt x="-16" y="2" on="0"/>
        <pt x="-8" y="44" on="0"/>
        <pt x="0" y="52" on="1"/>
        <pt x="28" y="52" on="0"/>
        <pt x="130" y="70" on="0"/>
        <pt x="136" y="84" on="1"/>
        <pt x="150" y="112" on="0"/>
        <pt x="174" y="232" on="1"/>
        <pt x="340" y="1086" on="1"/>
        <pt x="362" y="1198" on="0"/>
        <pt x="358" y="1234" on="1"/>
        <pt x="357" y="1248" on="0"/>
        <pt x="264" y="1266" on="0"/>
        <pt x="236" y="1266" on="1"/>
        <pt x="231" y="1273" on="0"/>
        <pt x="239" y="1317" on="0"/>
        <pt x="248" y="1324" on="1"/>
        <pt x="438" y="1314" on="0"/>
        <pt x="550" y="1314" on="0"/>
        <pt x="962" y="1328" on="0"/>
        <pt x="1066" y="1328" on="1"/>
        <pt x="1062" y="1303" on="0"/>
        <pt x="1068" y="1073" on="0"/>
        <pt x="1068" y="1056" on="1"/>
        <pt x="1058" y="1046" on="0"/>
        <pt x="1010" y="1046" on="0"/>
        <pt x="1010" y="1060" on="1"/>
        <pt x="1003" y="1173" on="0"/>
        <pt x="914" y="1260" on="0"/>
        <pt x="834" y="1260" on="1"/>
        <pt x="674" y="1260" on="1"/>
        <pt x="553" y="1260" on="0"/>
        <pt x="542" y="1238" on="1"/>
        <pt x="521" y="1196" on="0"/>
        <pt x="502" y="1094" on="1"/>
        <pt x="428" y="710" on="1"/>
        <pt x="426" y="702" on="0"/>
        <pt x="445" y="701" on="1"/>
        <pt x="474" y="698" on="0"/>
        <pt x="506" y="698" on="1"/>
        <pt x="604" y="698" on="1"/>
        <pt x="730" y="698" on="0"/>
        <pt x="761" y="718" on="1"/>
        <pt x="787" y="734" on="0"/>
        <pt x="815" y="793" on="0"/>
        <pt x="824" y="814" on="1"/>
        <pt x="836" y="842" on="1"/>
        <pt x="842" y="856" on="0"/>
        <pt x="889" y="856" on="0"/>
        <pt x="896" y="846" on="1"/>
        <pt x="824" y="468" on="1"/>
        <pt x="816" y="460" on="0"/>
        <pt x="769" y="460" on="0"/>
        <pt x="766" y="476" on="1"/>
        <pt x="760" y="598" on="0"/>
        <pt x="740" y="616" on="1"/>
        <pt x="719" y="632" on="0"/>
        <pt x="412" y="632" on="0"/>
        <pt x="408" y="614" on="1"/>
        <pt x="334" y="232" on="1"/>
        <pt x="312" y="120" on="0"/>
        <pt x="316" y="84" on="1"/>
        <pt x="317" y="70" on="0"/>
        <pt x="426" y="52" on="0"/>
        <pt x="456" y="52" on="1"/>
        <pt x="461" y="45" on="0"/>
        <pt x="453" y="1" on="0"/>
        <pt x="444" y="-6" on="1"/>
        <pt x="254" y="4" on="0"/>
      </contour>
    </TTGlyph>
    <TTGlyph name="FourDots.a" xMin="-318" yMin="6" xMax="209" yMax="550">
      <contour>
        <pt x="-236" y="499" on="1"/>
        <pt x="-232" y="507" on="0"/>
        <pt x="-220" y="503" on="1"/>
        <pt x="-149" y="480" on="0"/>
        <pt x="-88" y="436" on="1"/>
        <pt x="-27" y="546" on="1"/>
        <pt x="-23" y="554" on="0"/>
        <pt x="-11" y="550" on="1"/>
        <pt x="74" y="522" on="0"/>
        <pt x="145" y="465" on="1"/>
        <pt x="155" y="457" on="0"/>
        <pt x="150" y="447" on="1"/>
        <pt x="75" y="300" on="1"/>
        <pt x="143" y="273" on="0"/>
        <pt x="203" y="225" on="1"/>
        <pt x="213" y="217" on="0"/>
        <pt x="209" y="207" on="1"/>
        <pt x="130" y="52" on="1"/>
        <pt x="125" y="43" on="0"/>
        <pt x="109" y="55" on="1"/>
        <pt x="95" y="66" on="0"/>
        <pt x="-16" y="128" on="1"/>
        <pt x="-78" y="6" on="1"/>
        <pt x="-83" y="-3" on="0"/>
        <pt x="-115" y="21" on="0"/>
        <pt x="-253" y="99" on="1"/>
        <pt x="-262" y="104" on="0"/>
        <pt x="-258" y="111" on="1"/>
        <pt x="-177" y="259" on="1"/>
        <pt x="-213" y="281" on="0"/>
        <pt x="-314" y="338" on="1"/>
        <pt x="-322" y="343" on="0"/>
        <pt x="-318" y="350" on="1"/>
      </contour>
      <contour>
        <pt x="-28" y="197" on="1"/>
        <pt x="31" y="306" on="1"/>
        <pt x="31" y="306" on="0"/>
        <pt x="32" y="307" on="1"/>
        <pt x="2" y="326" on="0"/>
        <pt x="-75" y="369" on="1"/>
        <pt x="-133" y="254" on="1"/>
        <pt x="-77" y="232" on="0"/>
      </contour>
    </TTGlyph>
    <TTGlyph name="FourDots.b" xMin="-318" yMin="6" xMax="209" yMax="550">
      <component glyphName="FourDots.a" x="0" y="0" flags="0x1004"/>
    </TTGlyph>
    <TTGlyph name="FourDots.b.l" xMin="-318" yMin="6" xMax="209" yMax="550">
      <component glyphName="FourDots.a" x="0" y="0" flags="0x1004"/>
    </TTGlyph>
    <TTGlyph name="G" xMin="118" yMin="-16" xMax="1331" yMax="1332">
      <contour>
        <pt x="1252" y="1280" on="1"/>
        <pt x="1232" y="988" on="1"/>
        <pt x="1230" y="978" on="0"/>
        <pt x="1190" y="978" on="0"/>
        <pt x="1170" y="988" on="1"/>
        <pt x="1177" y="1106" on="0"/>
        <pt x="1000" y="1270" on="0"/>
        <pt x="755" y="1270" on="0"/>
        <pt x="549" y="1170" on="0"/>
        <pt x="396" y="991" on="0"/>
        <pt x="308" y="723" on="0"/>
        <pt x="308" y="490" on="0"/>
        <pt x="336" y="346" on="0"/>
        <pt x="398" y="209" on="0"/>
        <pt x="443" y="157" on="1"/>
        <pt x="543" y="42" on="0"/>
        <pt x="710" y="42" on="1"/>
        <pt x="832" y="42" on="0"/>
        <pt x="934" y="110" on="1"/>
        <pt x="951" y="121" on="0"/>
        <pt x="954" y="144" on="1"/>
        <pt x="994" y="350" on="1"/>
        <pt x="1018" y="468" on="0"/>
        <pt x="1014" y="498" on="1"/>
        <pt x="1013" y="512" on="0"/>
        <pt x="911" y="530" on="0"/>
        <pt x="882" y="530" on="1"/>
        <pt x="877" y="537" on="0"/>
        <pt x="883" y="581" on="0"/>
        <pt x="892" y="588" on="1"/>
        <pt x="1082" y="578" on="0"/>
        <pt x="1133" y="578" on="0"/>
        <pt x="1328" y="588" on="1"/>
        <pt x="1334" y="580" on="0"/>
        <pt x="1328" y="538" on="0"/>
        <pt x="1320" y="530" on="1"/>
        <pt x="1293" y="530" on="0"/>
        <pt x="1199" y="512" on="0"/>
        <pt x="1192" y="498" on="1"/>
        <pt x="1178" y="470" on="0"/>
        <pt x="1154" y="350" on="1"/>
        <pt x="1126" y="208" on="1"/>
        <pt x="1120" y="189" on="0"/>
        <pt x="1130" y="138" on="0"/>
        <pt x="1130" y="136" on="1"/>
        <pt x="1130" y="115" on="0"/>
        <pt x="1086" y="92" on="1"/>
        <pt x="984" y="39" on="0"/>
        <pt x="810" y="-16" on="0"/>
        <pt x="498" y="-16" on="0"/>
        <pt x="253" y="133" on="0"/>
        <pt x="118" y="383" on="0"/>
        <pt x="118" y="677" on="0"/>
        <pt x="207" y="937" on="0"/>
        <pt x="362" y="1129" on="0"/>
        <pt x="464" y="1198" on="1"/>
        <pt x="670" y="1336" on="0"/>
        <pt x="930" y="1332" on="1"/>
        <pt x="1048" y="1330" on="0"/>
      </contour>
    </TTGlyph>
    <TTGlyph name="Gbreve" xMin="118" yMin="-16" xMax="1331" yMax="1672">
      <component glyphName="uni0306.cap" x="480" y="406" flags="0x1004"/>
      <component glyphName="G" x="0" y="0" flags="0x1004"/>
    </TTGlyph>
    <TTGlyph name="Gcaron" xMin="118" yMin="-16" xMax="1331" yMax="1672">
      <component glyphName="G" x="0" y="0" flags="0x1004"/>
      <component glyphName="uni030C.cap" x="365" y="0" flags="0x1004"/>
    </TTGlyph>
    <TTGlyph name="Gcircumflex" xMin="118" yMin="-16" xMax="1331" yMax="1672">
      <component glyphName="uni0302.cap" x="366" y="0" flags="0x1004"/>
      <component glyphName="G" x="0" y="0" flags="0x1004"/>
    </TTGlyph>
    <TTGlyph name="Gcommaaccent" xMin="118" yMin="-466" xMax="1331" yMax="1332">
      <component glyphName="uni0326" x="1150" y="-80" flags="0x1004"/>
      <component glyphName="G" x="0" y="0" flags="0x1004"/>
    </TTGlyph>
    <TTGlyph name="Gdotaccent" xMin="118" yMin="-16" xMax="1331" yMax="1656">
      <component glyphName="uni0307" x="1442" y="476" flags="0x1004"/>
      <component glyphName="G" x="0" y="0" flags="0x1004"/>
    </TTGlyph>
    <TTGlyph name="H" xMin="-13" yMin="-6" xMax="1432" yMax="1324">
      <contour>
        <pt x="335" y="232" on="1"/>
        <pt x="312" y="107" on="0"/>
        <pt x="315" y="84" on="1"/>
        <pt x="316" y="70" on="0"/>
        <pt x="409" y="52" on="0"/>
        <pt x="437" y="52" on="1"/>
        <pt x="442" y="45" on="0"/>
        <pt x="434" y="1" on="0"/>
        <pt x="425" y="-6" on="1"/>
        <pt x="235" y="4" on="0"/>
        <pt x="184" y="4" on="0"/>
        <pt x="-11" y="-6" on="1"/>
        <pt x="-17" y="2" on="0"/>
        <pt x="-9" y="44" on="0"/>
        <pt x="-1" y="52" on="1"/>
        <pt x="27" y="52" on="0"/>
        <pt x="129" y="70" on="0"/>
        <pt x="135" y="84" on="1"/>
        <pt x="149" y="112" on="0"/>
        <pt x="173" y="232" on="1"/>
        <pt x="339" y="1086" on="1"/>
        <pt x="361" y="1198" on="0"/>
        <pt x="357" y="1234" on="1"/>
        <pt x="356" y="1248" on="0"/>
        <pt x="263" y="1266" on="0"/>
        <pt x="235" y="1266" on="1"/>
        <pt x="230" y="1273" on="0"/>
        <pt x="238" y="1317" on="0"/>
        <pt x="247" y="1324" on="1"/>
        <pt x="437" y="1314" on="0"/>
        <pt x="490" y="1314" on="0"/>
        <pt x="685" y="1324" on="1"/>
        <pt x="691" y="1316" on="0"/>
        <pt x="681" y="1274" on="0"/>
        <pt x="673" y="1266" on="1"/>
        <pt x="645" y="1266" on="0"/>
        <pt x="545" y="1248" on="0"/>
        <pt x="539" y="1234" on="1"/>
        <pt x="522" y="1200" on="0"/>
        <pt x="501" y="1086" on="1"/>
        <pt x="429" y="712" on="1"/>
        <pt x="1013" y="712" on="1"/>
        <pt x="1085" y="1086" on="1"/>
        <pt x="1107" y="1204" on="0"/>
        <pt x="1103" y="1234" on="1"/>
        <pt x="1102" y="1248" on="0"/>
        <pt x="1009" y="1266" on="0"/>
        <pt x="981" y="1266" on="1"/>
        <pt x="976" y="1273" on="0"/>
        <pt x="984" y="1317" on="0"/>
        <pt x="993" y="1324" on="1"/>
        <pt x="1183" y="1314" on="0"/>
        <pt x="1236" y="1314" on="0"/>
        <pt x="1431" y="1324" on="1"/>
        <pt x="1437" y="1316" on="0"/>
        <pt x="1427" y="1274" on="0"/>
        <pt x="1419" y="1266" on="1"/>
        <pt x="1391" y="1266" on="0"/>
        <pt x="1291" y="1248" on="0"/>
        <pt x="1271" y="1206" on="0"/>
        <pt x="1247" y="1086" on="1"/>
        <pt x="1081" y="232" on="1"/>
        <pt x="1057" y="114" on="0"/>
        <pt x="1061" y="84" on="1"/>
        <pt x="1062" y="70" on="0"/>
        <pt x="1155" y="52" on="0"/>
        <pt x="1183" y="52" on="1"/>
        <pt x="1188" y="45" on="0"/>
        <pt x="1180" y="1" on="0"/>
        <pt x="1171" y="-6" on="1"/>
        <pt x="981" y="4" on="0"/>
        <pt x="930" y="4" on="0"/>
        <pt x="735" y="-6" on="1"/>
        <pt x="729" y="2" on="0"/>
        <pt x="737" y="44" on="0"/>
        <pt x="745" y="52" on="1"/>
        <pt x="773" y="52" on="0"/>
        <pt x="875" y="70" on="0"/>
        <pt x="881" y="84" on="1"/>
        <pt x="895" y="112" on="0"/>
        <pt x="919" y="232" on="1"/>
        <pt x="997" y="632" on="1"/>
        <pt x="413" y="632" on="1"/>
      </contour>
    </TTGlyph>
    <TTGlyph name="Hbar" xMin="-11" yMin="-6" xMax="1434" yMax="1324">
      <component glyphName="H" x="2" y="0" flags="0x1004"/>
      <component glyphName="Hbar.ref1" x="0" y="0" flags="0x1004"/>
    </TTGlyph>
    <TTGlyph name="Hbar.ref1" xMin="209" yMin="944" xMax="1342" yMax="1012">
      <contour>
        <pt x="232" y="1012" on="1"/>
        <pt x="1336" y="1012" on="1"/>
        <pt x="1346" y="1012" on="0"/>
        <pt x="1337" y="971" on="0"/>
        <pt x="1320" y="944" on="1"/>
        <pt x="214" y="944" on="1"/>
        <pt x="210" y="944" on="0"/>
        <pt x="209" y="952" on="1"/>
        <pt x="205" y="982" on="0"/>
      </contour>
    </TTGlyph>
    <TTGlyph name="Hcircumflex" xMin="-13" yMin="-6" xMax="1432" yMax="1672">
      <component glyphName="H" x="0" y="0" flags="0x1004"/>
      <component glyphName="uni0302.cap" x="319" y="0" flags="0x1004"/>
    </TTGlyph>
    <TTGlyph name="I" xMin="-13" yMin="-6" xMax="686" yMax="1324">
      <contour>
        <pt x="247" y="1324" on="1"/>
        <pt x="437" y="1314" on="0"/>
        <pt x="490" y="1314" on="0"/>
        <pt x="685" y="1324" on="1"/>
        <pt x="691" y="1316" on="0"/>
        <pt x="681" y="1274" on="0"/>
        <pt x="673" y="1266" on="1"/>
        <pt x="645" y="1266" on="0"/>
        <pt x="545" y="1248" on="0"/>
        <pt x="525" y="1206" on="0"/>
        <pt x="501" y="1086" on="1"/>
        <pt x="335" y="232" on="1"/>
        <pt x="311" y="114" on="0"/>
        <pt x="315" y="84" on="1"/>
        <pt x="316" y="70" on="0"/>
        <pt x="409" y="52" on="0"/>
        <pt x="437" y="52" on="1"/>
        <pt x="442" y="45" on="0"/>
        <pt x="434" y="1" on="0"/>
        <pt x="425" y="-6" on="1"/>
        <pt x="235" y="4" on="0"/>
        <pt x="184" y="4" on="0"/>
        <pt x="-11" y="-6" on="1"/>
        <pt x="-17" y="2" on="0"/>
        <pt x="-9" y="44" on="0"/>
        <pt x="-1" y="52" on="1"/>
        <pt x="27" y="52" on="0"/>
        <pt x="129" y="70" on="0"/>
        <pt x="135" y="84" on="1"/>
        <pt x="149" y="112" on="0"/>
        <pt x="173" y="232" on="1"/>
        <pt x="339" y="1086" on="1"/>
        <pt x="361" y="1198" on="0"/>
        <pt x="357" y="1234" on="1"/>
        <pt x="356" y="1248" on="0"/>
        <pt x="263" y="1266" on="0"/>
        <pt x="235" y="1266" on="1"/>
        <pt x="230" y="1273" on="0"/>
        <pt x="238" y="1317" on="0"/>
      </contour>
    </TTGlyph>
    <TTGlyph name="IJ" xMin="-13" yMin="-466" xMax="1200" yMax="1324">
      <component glyphName="I" x="0" y="0" flags="0x1004"/>
      <component glyphName="J" x="526" y="0" flags="0x1004"/>
    </TTGlyph>
    <TTGlyph name="Iacute" xMin="-13" yMin="-6" xMax="711" yMax="1638">
      <component glyphName="acutecomb.cap" x="49" y="34" flags="0x1004"/>
      <component glyphName="I" x="0" y="0" flags="0x1004"/>
    </TTGlyph>
    <TTGlyph name="Ibreve" xMin="-13" yMin="-6" xMax="727" yMax="1672">
      <component glyphName="I" x="0" y="0" flags="0x1004"/>
      <component glyphName="uni0306.cap" x="55" y="406" flags="0x1004"/>
    </TTGlyph>
    <TTGlyph name="Icircumflex" xMin="-13" yMin="-6" xMax="759" yMax="1672">
      <component glyphName="uni0302.cap" x="-55" y="0" flags="0x1004"/>
      <component glyphName="I" x="0" y="0" flags="0x1004"/>
    </TTGlyph>
    <TTGlyph name="Idieresis" xMin="-13" yMin="-6" xMax="772" yMax="1666">
      <component glyphName="I" x="0" y="0" flags="0x1004"/>
      <component glyphName="uni0308" x="1021" y="502" flags="0x1004"/>
    </TTGlyph>
    <TTGlyph name="Idotaccent" xMin="-13" yMin="-6" xMax="686" yMax="1656">
      <component glyphName="I" x="0" y="0" flags="0x1004"/>
      <component glyphName="uni0307" x="1021" y="476" flags="0x1004"/>
    </TTGlyph>
    <TTGlyph name="Igrave" xMin="-13" yMin="-6" xMax="686" yMax="1636">
      <component glyphName="gravecomb.cap" x="-87" y="32" flags="0x1004"/>
      <component glyphName="I" x="0" y="0" flags="0x1004"/>
    </TTGlyph>
    <TTGlyph name="Imacron" xMin="-13" yMin="-6" xMax="727" yMax="1552">
      <component glyphName="I" x="0" y="0" flags="0x1004"/>
      <component glyphName="uni0304.cap" x="-107" y="360" flags="0x1004"/>
    </TTGlyph>
    <TTGlyph name="Iogonek" xMin="-28" yMin="-460" xMax="685" yMax="1324">
      <contour>
        <pt x="436" y="52" on="1"/>
        <pt x="439" y="47" on="0"/>
        <pt x="428" y="2" on="0"/>
        <pt x="424" y="-6" on="1"/>
        <pt x="382" y="-6" on="0"/>
        <pt x="330" y="-20" on="1"/>
        <pt x="227" y="-50" on="0"/>
        <pt x="78" y="-211" on="0"/>
        <pt x="78" y="-342" on="0"/>
        <pt x="140" y="-342" on="1"/>
        <pt x="213" y="-342" on="0"/>
        <pt x="280" y="-285" on="1"/>
        <pt x="303" y="-266" on="0"/>
        <pt x="316" y="-268" on="0"/>
        <pt x="301" y="-319" on="0"/>
        <pt x="294" y="-326" on="1"/>
        <pt x="174" y="-460" on="0"/>
        <pt x="72" y="-460" on="1"/>
        <pt x="28" y="-460" on="0"/>
        <pt x="-28" y="-402" on="0"/>
        <pt x="-28" y="-360" on="1"/>
        <pt x="-28" y="-268" on="0"/>
        <pt x="129" y="-37" on="0"/>
        <pt x="216" y="4" on="1"/>
        <pt x="183" y="4" on="0"/>
        <pt x="-12" y="-6" on="1"/>
        <pt x="-18" y="2" on="0"/>
        <pt x="-10" y="44" on="0"/>
        <pt x="-2" y="52" on="1"/>
        <pt x="26" y="52" on="0"/>
        <pt x="128" y="70" on="0"/>
        <pt x="134" y="84" on="1"/>
        <pt x="148" y="112" on="0"/>
        <pt x="172" y="232" on="1"/>
        <pt x="338" y="1086" on="1"/>
        <pt x="360" y="1198" on="0"/>
        <pt x="356" y="1234" on="1"/>
        <pt x="355" y="1248" on="0"/>
        <pt x="262" y="1266" on="0"/>
        <pt x="234" y="1266" on="1"/>
        <pt x="229" y="1273" on="0"/>
        <pt x="237" y="1317" on="0"/>
        <pt x="246" y="1324" on="1"/>
        <pt x="436" y="1314" on="0"/>
        <pt x="489" y="1314" on="0"/>
        <pt x="684" y="1324" on="1"/>
        <pt x="690" y="1316" on="0"/>
        <pt x="680" y="1274" on="0"/>
        <pt x="672" y="1266" on="1"/>
        <pt x="644" y="1266" on="0"/>
        <pt x="544" y="1248" on="0"/>
        <pt x="524" y="1206" on="0"/>
        <pt x="500" y="1086" on="1"/>
        <pt x="334" y="232" on="1"/>
        <pt x="310" y="114" on="0"/>
        <pt x="314" y="84" on="1"/>
        <pt x="315" y="70" on="0"/>
        <pt x="408" y="52" on="0"/>
      </contour>
    </TTGlyph>
    <TTGlyph name="Itilde" xMin="-13" yMin="-6" xMax="783" yMax="1638">
      <component glyphName="I" x="0" y="0" flags="0x1004"/>
      <component glyphName="tildecomb.cap" x="-165" y="28" flags="0x1004"/>
    </TTGlyph>
    <TTGlyph name="J" xMin="-216" yMin="-466" xMax="674" yMax="1324">
      <contour>
        <pt x="327" y="1086" on="1"/>
        <pt x="349" y="1204" on="0"/>
        <pt x="345" y="1234" on="1"/>
        <pt x="344" y="1248" on="0"/>
        <pt x="251" y="1266" on="0"/>
        <pt x="223" y="1266" on="1"/>
        <pt x="218" y="1273" on="0"/>
        <pt x="226" y="1317" on="0"/>
        <pt x="235" y="1324" on="1"/>
        <pt x="425" y="1314" on="0"/>
        <pt x="478" y="1314" on="0"/>
        <pt x="673" y="1324" on="1"/>
        <pt x="679" y="1316" on="0"/>
        <pt x="669" y="1274" on="0"/>
        <pt x="661" y="1266" on="1"/>
        <pt x="633" y="1266" on="0"/>
        <pt x="533" y="1248" on="0"/>
        <pt x="527" y="1234" on="1"/>
        <pt x="510" y="1200" on="0"/>
        <pt x="489" y="1086" on="1"/>
        <pt x="328" y="232" on="1"/>
        <pt x="248" y="-187" on="0"/>
        <pt x="20" y="-372" on="1"/>
        <pt x="-97" y="-466" on="0"/>
        <pt x="-210" y="-466" on="1"/>
        <pt x="-216" y="-457" on="0"/>
        <pt x="-216" y="-440" on="1"/>
        <pt x="-214" y="-428" on="1"/>
        <pt x="-52" y="-377" on="0"/>
        <pt x="113" y="-83" on="0"/>
        <pt x="168" y="218" on="1"/>
      </contour>
    </TTGlyph>
    <TTGlyph name="Jcircumflex" xMin="-216" yMin="-466" xMax="712" yMax="1672">
      <component glyphName="J" x="0" y="0" flags="0x1004"/>
      <component glyphName="uni0302.cap" x="-102" y="0" flags="0x1004"/>
    </TTGlyph>
    <TTGlyph name="K" xMin="-11" yMin="-6" xMax="1331" yMax="1324">
      <contour>
        <pt x="1127" y="1312" on="1"/>
        <pt x="1331" y="1324" on="1"/>
        <pt x="1333" y="1313" on="0"/>
        <pt x="1322" y="1264" on="0"/>
        <pt x="1314" y="1264" on="0"/>
        <pt x="1292" y="1263" on="0"/>
        <pt x="1271" y="1260" on="0"/>
        <pt x="1238" y="1255" on="0"/>
        <pt x="1205" y="1244" on="0"/>
        <pt x="1188" y="1236" on="1"/>
        <pt x="1149" y="1220" on="0"/>
        <pt x="1047" y="1123" on="0"/>
        <pt x="902" y="991" on="0"/>
        <pt x="866" y="960" on="1"/>
        <pt x="750" y="858" on="0"/>
        <pt x="603" y="732" on="1"/>
        <pt x="588" y="719" on="0"/>
        <pt x="599" y="700" on="1"/>
        <pt x="845" y="293" on="0"/>
        <pt x="961" y="144" on="1"/>
        <pt x="994" y="104" on="0"/>
        <pt x="1076" y="58" on="0"/>
        <pt x="1145" y="52" on="1"/>
        <pt x="1150" y="46" on="0"/>
        <pt x="1138" y="3" on="0"/>
        <pt x="1133" y="-6" on="1"/>
        <pt x="926" y="-6" on="0"/>
        <pt x="807" y="44" on="0"/>
        <pt x="716" y="168" on="0"/>
        <pt x="443" y="608" on="1"/>
        <pt x="441" y="614" on="0"/>
        <pt x="417" y="614" on="0"/>
        <pt x="409" y="610" on="1"/>
        <pt x="335" y="232" on="1"/>
        <pt x="313" y="120" on="0"/>
        <pt x="317" y="84" on="1"/>
        <pt x="318" y="70" on="0"/>
        <pt x="411" y="52" on="0"/>
        <pt x="439" y="52" on="1"/>
        <pt x="444" y="45" on="0"/>
        <pt x="436" y="1" on="0"/>
        <pt x="427" y="-6" on="1"/>
        <pt x="237" y="4" on="0"/>
        <pt x="186" y="4" on="0"/>
        <pt x="-9" y="-6" on="1"/>
        <pt x="-15" y="2" on="0"/>
        <pt x="-7" y="44" on="0"/>
        <pt x="1" y="52" on="1"/>
        <pt x="29" y="52" on="0"/>
        <pt x="129" y="70" on="0"/>
        <pt x="149" y="112" on="0"/>
        <pt x="173" y="232" on="1"/>
        <pt x="339" y="1086" on="1"/>
        <pt x="363" y="1204" on="0"/>
        <pt x="359" y="1234" on="1"/>
        <pt x="358" y="1248" on="0"/>
        <pt x="265" y="1266" on="0"/>
        <pt x="237" y="1266" on="1"/>
        <pt x="232" y="1273" on="0"/>
        <pt x="240" y="1317" on="0"/>
        <pt x="249" y="1324" on="1"/>
        <pt x="439" y="1314" on="0"/>
        <pt x="490" y="1314" on="0"/>
        <pt x="685" y="1324" on="1"/>
        <pt x="691" y="1316" on="0"/>
        <pt x="683" y="1274" on="0"/>
        <pt x="675" y="1266" on="1"/>
        <pt x="647" y="1266" on="0"/>
        <pt x="545" y="1248" on="0"/>
        <pt x="539" y="1234" on="1"/>
        <pt x="525" y="1206" on="0"/>
        <pt x="501" y="1086" on="1"/>
        <pt x="423" y="680" on="1"/>
        <pt x="486" y="717" on="0"/>
        <pt x="694" y="898" on="0"/>
        <pt x="777" y="971" on="0"/>
        <pt x="797" y="988" on="0"/>
        <pt x="849" y="1035" on="0"/>
        <pt x="856" y="1042" on="1"/>
        <pt x="884" y="1070" on="1"/>
        <pt x="905" y="1091" on="0"/>
        <pt x="935" y="1124" on="0"/>
        <pt x="994" y="1190" on="0"/>
        <pt x="1002" y="1231" on="0"/>
        <pt x="981" y="1254" on="0"/>
        <pt x="960" y="1258" on="1"/>
        <pt x="930" y="1264" on="0"/>
        <pt x="905" y="1264" on="1"/>
        <pt x="898" y="1286" on="0"/>
        <pt x="917" y="1324" on="1"/>
      </contour>
    </TTGlyph>
    <TTGlyph name="Kcommaaccent" xMin="-11" yMin="-466" xMax="1331" yMax="1324">
      <component glyphName="uni0326" x="1021" y="-80" flags="0x1004"/>
      <component glyphName="K" x="0" y="0" flags="0x1004"/>
    </TTGlyph>
    <TTGlyph name="L" xMin="-10" yMin="-8" xMax="1011" yMax="1324">
      <contour>
        <pt x="213" y="0" on="1"/>
        <pt x="-9" y="-6" on="1"/>
        <pt x="-15" y="2" on="0"/>
        <pt x="-5" y="44" on="0"/>
        <pt x="3" y="52" on="1"/>
        <pt x="31" y="52" on="0"/>
        <pt x="131" y="70" on="0"/>
        <pt x="151" y="112" on="0"/>
        <pt x="175" y="232" on="1"/>
        <pt x="341" y="1086" on="1"/>
        <pt x="365" y="1204" on="0"/>
        <pt x="361" y="1234" on="1"/>
        <pt x="360" y="1248" on="0"/>
        <pt x="267" y="1266" on="0"/>
        <pt x="239" y="1266" on="1"/>
        <pt x="234" y="1273" on="0"/>
        <pt x="240" y="1317" on="0"/>
        <pt x="249" y="1324" on="1"/>
        <pt x="439" y="1314" on="0"/>
        <pt x="492" y="1314" on="0"/>
        <pt x="687" y="1324" on="1"/>
        <pt x="693" y="1316" on="0"/>
        <pt x="683" y="1274" on="0"/>
        <pt x="675" y="1266" on="1"/>
        <pt x="647" y="1266" on="0"/>
        <pt x="547" y="1248" on="0"/>
        <pt x="541" y="1234" on="1"/>
        <pt x="524" y="1200" on="0"/>
        <pt x="503" y="1086" on="1"/>
        <pt x="332" y="224" on="1"/>
        <pt x="305" y="91" on="0"/>
        <pt x="330" y="66" on="0"/>
        <pt x="378" y="60" on="0"/>
        <pt x="444" y="60" on="1"/>
        <pt x="550" y="60" on="1"/>
        <pt x="670" y="60" on="0"/>
        <pt x="864" y="170" on="0"/>
        <pt x="937" y="324" on="1"/>
        <pt x="943" y="336" on="0"/>
        <pt x="1003" y="336" on="0"/>
        <pt x="1011" y="324" on="1"/>
        <pt x="998" y="299" on="0"/>
        <pt x="954" y="218" on="1"/>
        <pt x="866" y="55" on="0"/>
        <pt x="845" y="-8" on="1"/>
      </contour>
    </TTGlyph>
    <TTGlyph name="Lacute" xMin="-10" yMin="-8" xMax="1011" yMax="1638">
      <component glyphName="L" x="0" y="0" flags="0x1004"/>
      <component glyphName="acutecomb.cap" x="91" y="34" flags="0x1004"/>
    </TTGlyph>
    <TTGlyph name="Lcaron" xMin="-10" yMin="-8" xMax="1268" yMax="1388">
      <component glyphName="L" x="0" y="0" flags="0x1004"/>
      <component glyphName="uni0315" x="786" y="84" flags="0x1004"/>
    </TTGlyph>
    <TTGlyph name="Lcommaaccent" xMin="-10" yMin="-468" xMax="1011" yMax="1324">
      <component glyphName="uni0326" x="907" y="-82" flags="0x1004"/>
      <component glyphName="L" x="0" y="0" flags="0x1004"/>
    </TTGlyph>
    <TTGlyph name="Ldot" xMin="-10" yMin="-8" xMax="1011" yMax="1324">
      <component glyphName="L" x="0" y="0" flags="0x1004"/>
      <component glyphName="uni0307" x="1321" y="-414" flags="0x1004"/>
    </TTGlyph>
    <TTGlyph name="Lslash" xMin="-12" yMin="-8" xMax="1009" yMax="1324">
      <component glyphName="L" x="-2" y="0" flags="0x1004"/>
      <component glyphName="Lslash.ref1" x="0" y="0" flags="0x1004"/>
    </TTGlyph>
    <TTGlyph name="Lslash.ref1" xMin="130" yMin="356" xMax="896" yMax="894">
      <contour>
        <pt x="150" y="356" on="1"/>
        <pt x="119" y="406" on="0"/>
        <pt x="130" y="414" on="1"/>
        <pt x="876" y="894" on="1"/>
        <pt x="883" y="885" on="0"/>
        <pt x="901" y="836" on="0"/>
        <pt x="896" y="832" on="1"/>
      </contour>
    </TTGlyph>
    <TTGlyph name="M" xMin="-48" yMin="-6" xMax="1716" yMax="1324">
      <contour>
        <pt x="172" y="4" on="1"/>
        <pt x="-48" y="-6" on="1"/>
        <pt x="-50" y="-2" on="0"/>
        <pt x="-43" y="41" on="0"/>
        <pt x="-36" y="52" on="1"/>
        <pt x="-6" y="52" on="0"/>
        <pt x="106" y="71" on="0"/>
        <pt x="145" y="118" on="0"/>
        <pt x="162" y="188" on="1"/>
        <pt x="355" y="1031" on="0"/>
        <pt x="386" y="1201" on="0"/>
        <pt x="381" y="1240" on="0"/>
        <pt x="284" y="1266" on="0"/>
        <pt x="260" y="1266" on="1"/>
        <pt x="257" y="1275" on="0"/>
        <pt x="266" y="1320" on="0"/>
        <pt x="272" y="1324" on="1"/>
        <pt x="388" y="1316" on="0"/>
        <pt x="530" y="1316" on="0"/>
        <pt x="614" y="1324" on="1"/>
        <pt x="624" y="1219" on="0"/>
        <pt x="815" y="278" on="0"/>
        <pt x="814" y="278" on="1"/>
        <pt x="812" y="278" on="0"/>
        <pt x="1151" y="882" on="1"/>
        <pt x="1264" y="1084" on="1"/>
        <pt x="1392" y="1324" on="1"/>
        <pt x="1508" y="1316" on="0"/>
        <pt x="1620" y="1316" on="0"/>
        <pt x="1716" y="1324" on="1"/>
        <pt x="1712" y="1266" on="1"/>
        <pt x="1686" y="1266" on="0"/>
        <pt x="1581" y="1243" on="0"/>
        <pt x="1572" y="1230" on="1"/>
        <pt x="1556" y="1201" on="0"/>
        <pt x="1548" y="1154" on="1"/>
        <pt x="1396" y="280" on="1"/>
        <pt x="1372" y="146" on="0"/>
        <pt x="1382" y="86" on="1"/>
        <pt x="1385" y="68" on="0"/>
        <pt x="1476" y="52" on="0"/>
        <pt x="1504" y="52" on="1"/>
        <pt x="1513" y="17" on="0"/>
        <pt x="1498" y="-6" on="1"/>
        <pt x="1313" y="4" on="0"/>
        <pt x="1267" y="4" on="0"/>
        <pt x="1052" y="-6" on="1"/>
        <pt x="1050" y="-2" on="0"/>
        <pt x="1057" y="41" on="0"/>
        <pt x="1064" y="52" on="1"/>
        <pt x="1086" y="52" on="0"/>
        <pt x="1173" y="65" on="0"/>
        <pt x="1190" y="74" on="1"/>
        <pt x="1206" y="83" on="0"/>
        <pt x="1225" y="170" on="0"/>
        <pt x="1275" y="479" on="0"/>
        <pt x="1356" y="983" on="0"/>
        <pt x="1380" y="1132" on="1"/>
        <pt x="794" y="98" on="1"/>
        <pt x="783" y="78" on="0"/>
        <pt x="718" y="-1" on="0"/>
        <pt x="704" y="-4" on="1"/>
        <pt x="702" y="-5" on="0"/>
        <pt x="688" y="0" on="1"/>
        <pt x="460" y="1168" on="1"/>
        <pt x="251" y="189" on="0"/>
        <pt x="230" y="116" on="0"/>
        <pt x="234" y="88" on="1"/>
        <pt x="238" y="69" on="0"/>
        <pt x="343" y="52" on="0"/>
        <pt x="374" y="52" on="1"/>
        <pt x="378" y="44" on="0"/>
        <pt x="370" y="0" on="0"/>
        <pt x="366" y="-6" on="1"/>
      </contour>
    </TTGlyph>
    <TTGlyph name="N" xMin="-25" yMin="-10" xMax="1546" yMax="1324">
      <contour>
        <pt x="182" y="4" on="1"/>
        <pt x="-24" y="-6" on="1"/>
        <pt x="-28" y="0" on="0"/>
        <pt x="-22" y="37" on="0"/>
        <pt x="-12" y="52" on="1"/>
        <pt x="14" y="52" on="0"/>
        <pt x="128" y="76" on="0"/>
        <pt x="140" y="92" on="1"/>
        <pt x="168" y="130" on="0"/>
        <pt x="186" y="228" on="1"/>
        <pt x="354" y="1096" on="1"/>
        <pt x="365" y="1157" on="0"/>
        <pt x="369" y="1205" on="0"/>
        <pt x="362" y="1232" on="1"/>
        <pt x="357" y="1248" on="0"/>
        <pt x="255" y="1266" on="0"/>
        <pt x="226" y="1266" on="1"/>
        <pt x="217" y="1300" on="0"/>
        <pt x="236" y="1324" on="1"/>
        <pt x="404" y="1316" on="0"/>
        <pt x="466" y="1316" on="0"/>
        <pt x="570" y="1324" on="1"/>
        <pt x="601" y="1246" on="0"/>
        <pt x="1033" y="483" on="0"/>
        <pt x="1108" y="324" on="1"/>
        <pt x="1256" y="1082" on="1"/>
        <pt x="1276" y="1187" on="0"/>
        <pt x="1262" y="1226" on="1"/>
        <pt x="1255" y="1244" on="0"/>
        <pt x="1161" y="1266" on="0"/>
        <pt x="1128" y="1266" on="1"/>
        <pt x="1124" y="1277" on="0"/>
        <pt x="1129" y="1316" on="0"/>
        <pt x="1134" y="1324" on="1"/>
        <pt x="1282" y="1316" on="0"/>
        <pt x="1374" y="1316" on="0"/>
        <pt x="1546" y="1324" on="1"/>
        <pt x="1557" y="1296" on="0"/>
        <pt x="1538" y="1266" on="1"/>
        <pt x="1512" y="1266" on="0"/>
        <pt x="1400" y="1244" on="0"/>
        <pt x="1386" y="1225" on="1"/>
        <pt x="1363" y="1193" on="0"/>
        <pt x="1344" y="1092" on="1"/>
        <pt x="1186" y="278" on="1"/>
        <pt x="1149" y="85" on="0"/>
        <pt x="1136" y="-2" on="1"/>
        <pt x="1128" y="-10" on="0"/>
        <pt x="1108" y="-10" on="1"/>
        <pt x="1071" y="-10" on="0"/>
        <pt x="1048" y="36" on="1"/>
        <pt x="448" y="1138" on="1"/>
        <pt x="272" y="230" on="1"/>
        <pt x="260" y="169" on="0"/>
        <pt x="256" y="123" on="0"/>
        <pt x="264" y="92" on="1"/>
        <pt x="269" y="78" on="0"/>
        <pt x="371" y="52" on="0"/>
        <pt x="398" y="52" on="1"/>
        <pt x="406" y="29" on="0"/>
        <pt x="390" y="-6" on="1"/>
        <pt x="205" y="4" on="0"/>
      </contour>
    </TTGlyph>
    <TTGlyph name="Nacute" xMin="-25" yMin="-10" xMax="1546" yMax="1638">
      <component glyphName="N" x="0" y="0" flags="0x1004"/>
      <component glyphName="acutecomb.cap" x="558" y="34" flags="0x1004"/>
    </TTGlyph>
    <TTGlyph name="Ncaron" xMin="-25" yMin="-10" xMax="1546" yMax="1672">
      <component glyphName="N" x="0" y="0" flags="0x1004"/>
      <component glyphName="uni030C.cap" x="356" y="0" flags="0x1004"/>
    </TTGlyph>
    <TTGlyph name="Ncommaaccent" xMin="-25" yMin="-466" xMax="1546" yMax="1324">
      <component glyphName="uni0326" x="1098" y="-80" flags="0x1004"/>
      <component glyphName="N" x="0" y="0" flags="0x1004"/>
    </TTGlyph>
    <TTGlyph name="Ntilde" xMin="-25" yMin="-10" xMax="1546" yMax="1638">
      <component glyphName="N" x="0" y="0" flags="0x1004"/>
      <component glyphName="tildecomb.cap" x="236" y="28" flags="0x1004"/>
    </TTGlyph>
    <TTGlyph name="O" xMin="122" yMin="-22" xMax="1344" yMax="1330">
      <contour>
        <pt x="806" y="1270" on="1"/>
        <pt x="718" y="1270" on="0"/>
        <pt x="537" y="1157" on="0"/>
        <pt x="396" y="965" on="0"/>
        <pt x="310" y="689" on="0"/>
        <pt x="310" y="462" on="0"/>
        <pt x="329" y="328" on="0"/>
        <pt x="378" y="194" on="0"/>
        <pt x="416" y="146" on="1"/>
        <pt x="500" y="36" on="0"/>
        <pt x="656" y="36" on="1"/>
        <pt x="767" y="36" on="0"/>
        <pt x="958" y="169" on="0"/>
        <pt x="1021" y="276" on="1"/>
        <pt x="1156" y="507" on="0"/>
        <pt x="1156" y="786" on="1"/>
        <pt x="1156" y="1020" on="0"/>
        <pt x="1055" y="1156" on="1"/>
        <pt x="969" y="1270" on="0"/>
      </contour>
      <contour>
        <pt x="437" y="1213" on="0"/>
        <pt x="694" y="1330" on="0"/>
        <pt x="984" y="1330" on="0"/>
        <pt x="1220" y="1180" on="0"/>
        <pt x="1344" y="924" on="0"/>
        <pt x="1344" y="593" on="0"/>
        <pt x="1231" y="296" on="0"/>
        <pt x="1039" y="93" on="0"/>
        <pt x="781" y="-22" on="0"/>
        <pt x="480" y="-22" on="0"/>
        <pt x="243" y="131" on="0"/>
        <pt x="122" y="387" on="0"/>
        <pt x="122" y="714" on="0"/>
        <pt x="241" y="1010" on="0"/>
      </contour>
    </TTGlyph>
    <TTGlyph name="OE" xMin="114" yMin="-22" xMax="1788" yMax="1332">
      <contour>
        <pt x="898" y="1332" on="0"/>
        <pt x="1136" y="1313" on="0"/>
        <pt x="1284" y="1314" on="0"/>
        <pt x="1682" y="1328" on="0"/>
        <pt x="1786" y="1328" on="1"/>
        <pt x="1782" y="1303" on="0"/>
        <pt x="1788" y="1073" on="0"/>
        <pt x="1788" y="1056" on="1"/>
        <pt x="1778" y="1046" on="0"/>
        <pt x="1730" y="1046" on="0"/>
        <pt x="1730" y="1060" on="1"/>
        <pt x="1723" y="1173" on="0"/>
        <pt x="1634" y="1260" on="0"/>
        <pt x="1554" y="1260" on="1"/>
        <pt x="1394" y="1260" on="1"/>
        <pt x="1273" y="1260" on="0"/>
        <pt x="1262" y="1238" on="1"/>
        <pt x="1241" y="1196" on="0"/>
        <pt x="1222" y="1094" on="1"/>
        <pt x="1148" y="710" on="1"/>
        <pt x="1146" y="702" on="0"/>
        <pt x="1165" y="701" on="1"/>
        <pt x="1194" y="698" on="0"/>
        <pt x="1226" y="698" on="1"/>
        <pt x="1324" y="698" on="1"/>
        <pt x="1450" y="698" on="0"/>
        <pt x="1481" y="718" on="1"/>
        <pt x="1507" y="734" on="0"/>
        <pt x="1535" y="793" on="0"/>
        <pt x="1544" y="814" on="1"/>
        <pt x="1556" y="842" on="1"/>
        <pt x="1562" y="856" on="0"/>
        <pt x="1609" y="856" on="0"/>
        <pt x="1616" y="846" on="1"/>
        <pt x="1544" y="468" on="1"/>
        <pt x="1536" y="460" on="0"/>
        <pt x="1489" y="460" on="0"/>
        <pt x="1486" y="476" on="1"/>
        <pt x="1480" y="598" on="0"/>
        <pt x="1460" y="616" on="1"/>
        <pt x="1439" y="632" on="0"/>
        <pt x="1132" y="632" on="0"/>
        <pt x="1128" y="614" on="1"/>
        <pt x="1050" y="218" on="1"/>
        <pt x="1025" y="91" on="0"/>
        <pt x="1050" y="66" on="0"/>
        <pt x="1098" y="60" on="0"/>
        <pt x="1164" y="60" on="1"/>
        <pt x="1252" y="60" on="1"/>
        <pt x="1406" y="60" on="0"/>
        <pt x="1589" y="181" on="0"/>
        <pt x="1656" y="324" on="1"/>
        <pt x="1662" y="336" on="0"/>
        <pt x="1722" y="336" on="0"/>
        <pt x="1730" y="324" on="1"/>
        <pt x="1717" y="299" on="0"/>
        <pt x="1673" y="218" on="1"/>
        <pt x="1585" y="55" on="0"/>
        <pt x="1564" y="-8" on="1"/>
        <pt x="1489" y="-8" on="0"/>
        <pt x="1071" y="2" on="0"/>
        <pt x="873" y="-1" on="0"/>
        <pt x="681" y="-22" on="0"/>
        <pt x="543" y="-22" on="0"/>
        <pt x="365" y="39" on="0"/>
        <pt x="241" y="145" on="0"/>
        <pt x="198" y="217" on="1"/>
        <pt x="114" y="358" on="0"/>
        <pt x="114" y="707" on="0"/>
        <pt x="226" y="996" on="0"/>
        <pt x="415" y="1207" on="0"/>
        <pt x="680" y="1332" on="0"/>
        <pt x="826" y="1332" on="1"/>
      </contour>
      <contour>
        <pt x="1060" y="1114" on="1"/>
        <pt x="1069" y="1159" on="0"/>
        <pt x="1025" y="1224" on="0"/>
        <pt x="984" y="1240" on="1"/>
        <pt x="904" y="1272" on="0"/>
        <pt x="699" y="1272" on="0"/>
        <pt x="506" y="1141" on="0"/>
        <pt x="442" y="1036" on="1"/>
        <pt x="302" y="810" on="0"/>
        <pt x="302" y="299" on="0"/>
        <pt x="481" y="36" on="0"/>
        <pt x="650" y="36" on="1"/>
        <pt x="779" y="36" on="0"/>
        <pt x="841" y="100" on="1"/>
        <pt x="875" y="136" on="0"/>
        <pt x="894" y="232" on="1"/>
      </contour>
    </TTGlyph>
    <TTGlyph name="Oacute" xMin="122" yMin="-22" xMax="1344" yMax="1638">
      <component glyphName="O" x="0" y="0" flags="0x1004"/>
      <component glyphName="acutecomb.cap" x="406" y="34" flags="0x1004"/>
    </TTGlyph>
    <TTGlyph name="Obreve" xMin="122" yMin="-22" xMax="1344" yMax="1672">
      <component glyphName="O" x="0" y="0" flags="0x1004"/>
      <component glyphName="uni0306.cap" x="404" y="406" flags="0x1004"/>
    </TTGlyph>
    <TTGlyph name="Ocircumflex" xMin="122" yMin="-22" xMax="1344" yMax="1672">
      <component glyphName="O" x="0" y="0" flags="0x1004"/>
      <component glyphName="uni0302.cap" x="270" y="0" flags="0x1004"/>
    </TTGlyph>
    <TTGlyph name="Odieresis" xMin="122" yMin="-22" xMax="1344" yMax="1656">
      <component glyphName="O" x="0" y="0" flags="0x1004"/>
      <component glyphName="uni0308.cap" x="242" y="32" flags="0x1004"/>
    </TTGlyph>
    <TTGlyph name="Ograve" xMin="122" yMin="-22" xMax="1344" yMax="1636">
      <component glyphName="O" x="0" y="0" flags="0x1004"/>
      <component glyphName="gravecomb.cap" x="238" y="32" flags="0x1004"/>
    </TTGlyph>
    <TTGlyph name="Ohungarumlaut" xMin="122" yMin="-22" xMax="1344" yMax="1652">
      <component glyphName="O" x="0" y="0" flags="0x1004"/>
      <component glyphName="uni030B.cap" x="334" y="48" flags="0x1004"/>
    </TTGlyph>
    <TTGlyph name="Omacron" xMin="122" yMin="-22" xMax="1344" yMax="1552">
      <component glyphName="O" x="0" y="0" flags="0x1004"/>
      <component glyphName="uni0304.cap" x="268" y="360" flags="0x1004"/>
    </TTGlyph>
    <TTGlyph name="Oslash" xMin="122" yMin="-26" xMax="1344" yMax="1334">
      <component glyphName="O" x="0" y="0" flags="0x1004"/>
      <component glyphName="Oslash.ref1" x="0" y="0" flags="0x1004"/>
    </TTGlyph>
    <TTGlyph name="Oslash.ref1" xMin="192" yMin="-26" xMax="1270" yMax="1334">
      <contour>
        <pt x="236" y="-26" on="1"/>
        <pt x="221" y="-20" on="0"/>
        <pt x="185" y="12" on="0"/>
        <pt x="192" y="20" on="1"/>
        <pt x="1224" y="1334" on="1"/>
        <pt x="1238" y="1330" on="0"/>
        <pt x="1277" y="1298" on="0"/>
        <pt x="1270" y="1290" on="1"/>
      </contour>
    </TTGlyph>
    <TTGlyph name="Otilde" xMin="122" yMin="-22" xMax="1344" yMax="1638">
      <component glyphName="O" x="0" y="0" flags="0x1004"/>
      <component glyphName="tildecomb.cap" x="204" y="28" flags="0x1004"/>
    </TTGlyph>
    <TTGlyph name="P" xMin="-13" yMin="-6" xMax="1045" yMax="1324">
      <contour>
        <pt x="469" y="1314" on="1"/>
        <pt x="684" y="1318" on="1"/>
        <pt x="844" y="1318" on="0"/>
        <pt x="1045" y="1152" on="0"/>
        <pt x="1045" y="891" on="0"/>
        <pt x="914" y="682" on="0"/>
        <pt x="700" y="564" on="0"/>
        <pt x="579" y="564" on="1"/>
        <pt x="516" y="564" on="0"/>
        <pt x="490" y="584" on="1"/>
        <pt x="474" y="600" on="0"/>
        <pt x="474" y="620" on="0"/>
        <pt x="482" y="624" on="1"/>
        <pt x="498" y="616" on="0"/>
        <pt x="604" y="616" on="0"/>
        <pt x="717" y="670" on="0"/>
        <pt x="763" y="718" on="1"/>
        <pt x="867" y="825" on="0"/>
        <pt x="867" y="988" on="1"/>
        <pt x="867" y="1260" on="0"/>
        <pt x="636" y="1260" on="1"/>
        <pt x="551" y="1260" on="0"/>
        <pt x="528" y="1219" on="0"/>
        <pt x="502" y="1090" on="1"/>
        <pt x="333" y="232" on="1"/>
        <pt x="311" y="114" on="0"/>
        <pt x="315" y="84" on="1"/>
        <pt x="316" y="70" on="0"/>
        <pt x="409" y="52" on="0"/>
        <pt x="437" y="52" on="1"/>
        <pt x="442" y="45" on="0"/>
        <pt x="434" y="1" on="0"/>
        <pt x="425" y="-6" on="1"/>
        <pt x="235" y="4" on="0"/>
        <pt x="184" y="4" on="0"/>
        <pt x="-11" y="-6" on="1"/>
        <pt x="-17" y="2" on="0"/>
        <pt x="-9" y="44" on="0"/>
        <pt x="-1" y="52" on="1"/>
        <pt x="27" y="52" on="0"/>
        <pt x="129" y="70" on="0"/>
        <pt x="135" y="84" on="1"/>
        <pt x="149" y="112" on="0"/>
        <pt x="173" y="232" on="1"/>
        <pt x="339" y="1086" on="1"/>
        <pt x="361" y="1198" on="0"/>
        <pt x="357" y="1234" on="1"/>
        <pt x="356" y="1248" on="0"/>
        <pt x="263" y="1266" on="0"/>
        <pt x="235" y="1266" on="1"/>
        <pt x="230" y="1273" on="0"/>
        <pt x="238" y="1317" on="0"/>
        <pt x="247" y="1324" on="1"/>
        <pt x="437" y="1314" on="0"/>
      </contour>
    </TTGlyph>
    <TTGlyph name="Q" xMin="122" yMin="-272" xMax="1370" yMax="1330">
      <contour>
        <pt x="437" y="1213" on="0"/>
        <pt x="694" y="1330" on="0"/>
        <pt x="984" y="1330" on="0"/>
        <pt x="1220" y="1180" on="0"/>
        <pt x="1344" y="924" on="0"/>
        <pt x="1344" y="613" on="0"/>
        <pt x="1256" y="345" on="0"/>
        <pt x="1179" y="246" on="1"/>
        <pt x="1017" y="40" on="0"/>
        <pt x="772" y="-9" on="1"/>
        <pt x="806" y="-29" on="0"/>
        <pt x="923" y="-105" on="0"/>
        <pt x="950" y="-120" on="1"/>
        <pt x="1031" y="-162" on="0"/>
        <pt x="1241" y="-162" on="0"/>
        <pt x="1332" y="-136" on="1"/>
        <pt x="1342" y="-136" on="0"/>
        <pt x="1370" y="-156" on="0"/>
        <pt x="1370" y="-162" on="1"/>
        <pt x="1154" y="-272" on="0"/>
        <pt x="1018" y="-272" on="1"/>
        <pt x="895" y="-272" on="0"/>
        <pt x="750" y="-164" on="1"/>
        <pt x="581" y="-36" on="0"/>
        <pt x="299" y="64" on="0"/>
        <pt x="122" y="355" on="0"/>
        <pt x="122" y="714" on="0"/>
        <pt x="241" y="1010" on="0"/>
      </contour>
      <contour>
        <pt x="806" y="1270" on="1"/>
        <pt x="718" y="1270" on="0"/>
        <pt x="537" y="1157" on="0"/>
        <pt x="396" y="965" on="0"/>
        <pt x="310" y="689" on="0"/>
        <pt x="310" y="462" on="0"/>
        <pt x="329" y="328" on="0"/>
        <pt x="378" y="194" on="0"/>
        <pt x="416" y="146" on="1"/>
        <pt x="500" y="36" on="0"/>
        <pt x="656" y="36" on="1"/>
        <pt x="767" y="36" on="0"/>
        <pt x="958" y="169" on="0"/>
        <pt x="1021" y="276" on="1"/>
        <pt x="1156" y="507" on="0"/>
        <pt x="1156" y="786" on="1"/>
        <pt x="1156" y="1020" on="0"/>
        <pt x="1055" y="1156" on="1"/>
        <pt x="969" y="1270" on="0"/>
      </contour>
    </TTGlyph>
    <TTGlyph name="R" xMin="-13" yMin="-6" xMax="1117" yMax="1324">
      <contour>
        <pt x="471" y="1314" on="1"/>
        <pt x="735" y="1318" on="1"/>
        <pt x="869" y="1318" on="0"/>
        <pt x="1048" y="1170" on="0"/>
        <pt x="1048" y="1036" on="1"/>
        <pt x="1048" y="838" on="0"/>
        <pt x="836" y="699" on="1"/>
        <pt x="780" y="662" on="0"/>
        <pt x="720" y="640" on="1"/>
        <pt x="819" y="368" on="0"/>
        <pt x="931" y="172" on="1"/>
        <pt x="967" y="109" on="0"/>
        <pt x="1044" y="58" on="0"/>
        <pt x="1117" y="52" on="1"/>
        <pt x="1122" y="46" on="0"/>
        <pt x="1110" y="3" on="0"/>
        <pt x="1105" y="-6" on="1"/>
        <pt x="960" y="-6" on="0"/>
        <pt x="800" y="31" on="0"/>
        <pt x="768" y="94" on="1"/>
        <pt x="660" y="307" on="0"/>
        <pt x="557" y="582" on="1"/>
        <pt x="548" y="606" on="0"/>
        <pt x="505" y="606" on="1"/>
        <pt x="407" y="606" on="1"/>
        <pt x="335" y="232" on="1"/>
        <pt x="312" y="107" on="0"/>
        <pt x="315" y="84" on="1"/>
        <pt x="316" y="70" on="0"/>
        <pt x="409" y="52" on="0"/>
        <pt x="437" y="52" on="1"/>
        <pt x="442" y="45" on="0"/>
        <pt x="434" y="1" on="0"/>
        <pt x="425" y="-6" on="1"/>
        <pt x="235" y="4" on="0"/>
        <pt x="184" y="4" on="0"/>
        <pt x="-11" y="-6" on="1"/>
        <pt x="-17" y="2" on="0"/>
        <pt x="-9" y="44" on="0"/>
        <pt x="-1" y="52" on="1"/>
        <pt x="27" y="52" on="0"/>
        <pt x="129" y="70" on="0"/>
        <pt x="135" y="84" on="1"/>
        <pt x="149" y="112" on="0"/>
        <pt x="173" y="232" on="1"/>
        <pt x="339" y="1086" on="1"/>
        <pt x="361" y="1198" on="0"/>
        <pt x="357" y="1234" on="1"/>
        <pt x="356" y="1248" on="0"/>
        <pt x="263" y="1266" on="0"/>
        <pt x="235" y="1266" on="1"/>
        <pt x="230" y="1273" on="0"/>
        <pt x="238" y="1317" on="0"/>
        <pt x="247" y="1324" on="1"/>
        <pt x="437" y="1314" on="0"/>
      </contour>
      <contour>
        <pt x="419" y="666" on="1"/>
        <pt x="519" y="666" on="1"/>
        <pt x="645" y="666" on="0"/>
        <pt x="753" y="753" on="1"/>
        <pt x="805" y="795" on="0"/>
        <pt x="870" y="937" on="0"/>
        <pt x="870" y="1053" on="0"/>
        <pt x="862" y="1108" on="0"/>
        <pt x="832" y="1176" on="0"/>
        <pt x="808" y="1201" on="1"/>
        <pt x="751" y="1260" on="0"/>
        <pt x="550" y="1260" on="0"/>
        <pt x="527" y="1219" on="0"/>
        <pt x="501" y="1090" on="1"/>
      </contour>
    </TTGlyph>
    <TTGlyph name="Racute" xMin="-13" yMin="-6" xMax="1117" yMax="1638">
      <component glyphName="R" x="0" y="0" flags="0x1004"/>
      <component glyphName="acutecomb.cap" x="245" y="34" flags="0x1004"/>
    </TTGlyph>
    <TTGlyph name="Rcaron" xMin="-13" yMin="-6" xMax="1117" yMax="1672">
      <component glyphName="R" x="0" y="0" flags="0x1004"/>
      <component glyphName="uni030C.cap" x="117" y="0" flags="0x1004"/>
    </TTGlyph>
    <TTGlyph name="Rcommaaccent" xMin="-13" yMin="-466" xMax="1117" yMax="1324">
      <component glyphName="uni0326" x="1009" y="-80" flags="0x1004"/>
      <component glyphName="R" x="0" y="0" flags="0x1004"/>
    </TTGlyph>
    <TTGlyph name="S" xMin="68" yMin="-16" xMax="898" yMax="1332">
      <contour>
        <pt x="406" y="1277" on="0"/>
        <pt x="554" y="1332" on="0"/>
        <pt x="665" y="1332" on="0"/>
        <pt x="744" y="1322" on="0"/>
        <pt x="786" y="1313" on="0"/>
        <pt x="880" y="1288" on="0"/>
        <pt x="898" y="1284" on="1"/>
        <pt x="888" y="1164" on="0"/>
        <pt x="856" y="996" on="1"/>
        <pt x="853" y="982" on="0"/>
        <pt x="808" y="982" on="0"/>
        <pt x="794" y="996" on="1"/>
        <pt x="802" y="1122" on="0"/>
        <pt x="710" y="1270" on="0"/>
        <pt x="494" y="1270" on="0"/>
        <pt x="360" y="1126" on="0"/>
        <pt x="360" y="1040" on="1"/>
        <pt x="360" y="930" on="0"/>
        <pt x="436" y="854" on="1"/>
        <pt x="475" y="815" on="0"/>
        <pt x="575" y="740" on="0"/>
        <pt x="607" y="715" on="0"/>
        <pt x="682" y="659" on="0"/>
        <pt x="724" y="626" on="0"/>
        <pt x="785" y="565" on="0"/>
        <pt x="801" y="538" on="1"/>
        <pt x="842" y="469" on="0"/>
        <pt x="842" y="296" on="0"/>
        <pt x="760" y="142" on="0"/>
        <pt x="694" y="92" on="1"/>
        <pt x="555" y="-16" on="0"/>
        <pt x="237" y="-16" on="0"/>
        <pt x="92" y="68" on="1"/>
        <pt x="75" y="139" on="0"/>
        <pt x="64" y="342" on="0"/>
        <pt x="68" y="368" on="1"/>
        <pt x="77" y="380" on="0"/>
        <pt x="132" y="380" on="0"/>
        <pt x="138" y="368" on="1"/>
        <pt x="138" y="289" on="0"/>
        <pt x="198" y="162" on="0"/>
        <pt x="228" y="126" on="1"/>
        <pt x="298" y="44" on="0"/>
        <pt x="514" y="44" on="0"/>
        <pt x="664" y="180" on="0"/>
        <pt x="664" y="294" on="1"/>
        <pt x="664" y="369" on="0"/>
        <pt x="620" y="445" on="0"/>
        <pt x="595" y="483" on="0"/>
        <pt x="567" y="509" on="1"/>
        <pt x="504" y="567" on="0"/>
        <pt x="373" y="662" on="0"/>
        <pt x="325" y="698" on="0"/>
        <pt x="264" y="759" on="0"/>
        <pt x="246" y="788" on="1"/>
        <pt x="204" y="858" on="0"/>
        <pt x="204" y="1035" on="0"/>
        <pt x="283" y="1181" on="0"/>
      </contour>
    </TTGlyph>
    <TTGlyph name="Sacute" xMin="68" yMin="-16" xMax="970" yMax="1638">
      <component glyphName="S" x="0" y="0" flags="0x1004"/>
      <component glyphName="acutecomb.cap" x="308" y="34" flags="0x1004"/>
    </TTGlyph>
    <TTGlyph name="Scaron" xMin="68" yMin="-16" xMax="964" yMax="1672">
      <component glyphName="S" x="0" y="0" flags="0x1004"/>
      <component glyphName="uni030C.cap" x="150" y="0" flags="0x1004"/>
    </TTGlyph>
    <TTGlyph name="Scedilla" xMin="68" yMin="-348" xMax="898" yMax="1332">
      <component glyphName="S" x="0" y="0" flags="0x1004"/>
      <component glyphName="uni0327.cap" x="-54" y="0" flags="0x1004"/>
    </TTGlyph>
    <TTGlyph name="Scircumflex" xMin="68" yMin="-16" xMax="916" yMax="1672">
      <component glyphName="S" x="0" y="0" flags="0x1004"/>
      <component glyphName="uni0302.cap" x="102" y="0" flags="0x1004"/>
    </TTGlyph>
    <TTGlyph name="T" xMin="118" yMin="-6" xMax="1254" yMax="1344">
      <contour>
        <pt x="1100" y="1310" on="1"/>
        <pt x="1121" y="1310" on="0"/>
        <pt x="1199" y="1330" on="0"/>
        <pt x="1241" y="1352" on="0"/>
        <pt x="1254" y="1344" on="1"/>
        <pt x="1236" y="1124" on="0"/>
        <pt x="1236" y="1000" on="1"/>
        <pt x="1219" y="983" on="0"/>
        <pt x="1175" y="986" on="0"/>
        <pt x="1172" y="996" on="1"/>
        <pt x="1174" y="1107" on="0"/>
        <pt x="1110" y="1240" on="0"/>
        <pt x="1044" y="1240" on="1"/>
        <pt x="808" y="1240" on="1"/>
        <pt x="610" y="232" on="1"/>
        <pt x="586" y="114" on="0"/>
        <pt x="590" y="84" on="1"/>
        <pt x="591" y="70" on="0"/>
        <pt x="684" y="52" on="0"/>
        <pt x="712" y="52" on="1"/>
        <pt x="717" y="45" on="0"/>
        <pt x="711" y="1" on="0"/>
        <pt x="702" y="-6" on="1"/>
        <pt x="512" y="4" on="0"/>
        <pt x="459" y="4" on="0"/>
        <pt x="264" y="-6" on="1"/>
        <pt x="258" y="2" on="0"/>
        <pt x="268" y="44" on="0"/>
        <pt x="276" y="52" on="1"/>
        <pt x="304" y="52" on="0"/>
        <pt x="404" y="70" on="0"/>
        <pt x="424" y="112" on="0"/>
        <pt x="448" y="232" on="1"/>
        <pt x="646" y="1240" on="1"/>
        <pt x="406" y="1240" on="1"/>
        <pt x="340" y="1240" on="0"/>
        <pt x="223" y="1107" on="0"/>
        <pt x="180" y="996" on="1"/>
        <pt x="173" y="986" on="0"/>
        <pt x="129" y="983" on="0"/>
        <pt x="118" y="1000" on="1"/>
        <pt x="175" y="1143" on="0"/>
        <pt x="234" y="1344" on="1"/>
        <pt x="250" y="1352" on="0"/>
        <pt x="270" y="1340" on="1"/>
        <pt x="320" y="1310" on="0"/>
        <pt x="374" y="1310" on="1"/>
      </contour>
    </TTGlyph>
    <TTGlyph name="T_h" xMin="118" yMin="-12" xMax="1888" yMax="1388">
      <contour>
        <pt x="1728" y="98" on="1"/>
        <pt x="1763" y="98" on="0"/>
        <pt x="1868" y="214" on="1"/>
        <pt x="1873" y="214" on="0"/>
        <pt x="1888" y="185" on="0"/>
        <pt x="1888" y="176" on="1"/>
        <pt x="1863" y="134" on="0"/>
        <pt x="1688" y="-12" on="0"/>
        <pt x="1626" y="-12" on="1"/>
        <pt x="1594" y="-12" on="0"/>
        <pt x="1558" y="46" on="0"/>
        <pt x="1558" y="139" on="0"/>
        <pt x="1572" y="198" on="1"/>
        <pt x="1642" y="528" on="1"/>
        <pt x="1656" y="591" on="0"/>
        <pt x="1656" y="678" on="0"/>
        <pt x="1641" y="722" on="0"/>
        <pt x="1591" y="722" on="0"/>
        <pt x="1485" y="635" on="0"/>
        <pt x="1374" y="502" on="0"/>
        <pt x="1276" y="321" on="0"/>
        <pt x="1246" y="165" on="0"/>
        <pt x="1210" y="0" on="1"/>
        <pt x="1183" y="-8" on="0"/>
        <pt x="1102" y="-8" on="0"/>
        <pt x="1070" y="0" on="1"/>
        <pt x="1276" y="1060" on="1"/>
        <pt x="1280" y="1084" on="0"/>
        <pt x="1280" y="1115" on="0"/>
        <pt x="1279" y="1151" on="0"/>
        <pt x="1266" y="1185" on="0"/>
        <pt x="1257" y="1203" on="0"/>
        <pt x="1222" y="1219" on="0"/>
        <pt x="1196" y="1225" on="0"/>
        <pt x="1129" y="1230" on="0"/>
        <pt x="1103" y="1230" on="1"/>
        <pt x="1024" y="1230" on="1"/>
        <pt x="827" y="1230" on="0"/>
        <pt x="812" y="1200" on="1"/>
        <pt x="784" y="1139" on="0"/>
        <pt x="756" y="1000" on="1"/>
        <pt x="616" y="278" on="1"/>
        <pt x="594" y="168" on="0"/>
        <pt x="594" y="98" on="1"/>
        <pt x="594" y="81" on="0"/>
        <pt x="648" y="56" on="0"/>
        <pt x="675" y="52" on="1"/>
        <pt x="702" y="48" on="1"/>
        <pt x="706" y="48" on="0"/>
        <pt x="706" y="18" on="0"/>
        <pt x="694" y="-6" on="1"/>
        <pt x="509" y="4" on="0"/>
        <pt x="486" y="4" on="1"/>
        <pt x="266" y="-6" on="1"/>
        <pt x="262" y="-2" on="0"/>
        <pt x="262" y="48" on="0"/>
        <pt x="276" y="48" on="1"/>
        <pt x="300" y="48" on="0"/>
        <pt x="396" y="75" on="0"/>
        <pt x="404" y="92" on="1"/>
        <pt x="433" y="160" on="0"/>
        <pt x="456" y="284" on="1"/>
        <pt x="594" y="994" on="1"/>
        <pt x="620" y="1131" on="0"/>
        <pt x="620" y="1197" on="0"/>
        <pt x="619" y="1204" on="0"/>
        <pt x="600" y="1218" on="0"/>
        <pt x="581" y="1221" on="1"/>
        <pt x="524" y="1230" on="0"/>
        <pt x="348" y="1230" on="0"/>
        <pt x="267" y="1199" on="0"/>
        <pt x="213" y="1130" on="0"/>
        <pt x="178" y="1052" on="1"/>
        <pt x="173" y="1042" on="0"/>
        <pt x="132" y="1042" on="0"/>
        <pt x="118" y="1056" on="1"/>
        <pt x="206" y="1342" on="1"/>
        <pt x="283" y="1320" on="0"/>
        <pt x="332" y="1320" on="1"/>
        <pt x="736" y="1308" on="1"/>
        <pt x="823" y="1308" on="0"/>
        <pt x="1074" y="1319" on="0"/>
        <pt x="1191" y="1322" on="0"/>
        <pt x="1369" y="1356" on="0"/>
        <pt x="1485" y="1388" on="0"/>
        <pt x="1500" y="1388" on="0"/>
        <pt x="1500" y="1356" on="1"/>
        <pt x="1462" y="1292" on="0"/>
        <pt x="1440" y="1182" on="1"/>
        <pt x="1302" y="476" on="1"/>
        <pt x="1326" y="524" on="0"/>
        <pt x="1462" y="694" on="0"/>
        <pt x="1510" y="746" on="1"/>
        <pt x="1626" y="870" on="0"/>
        <pt x="1700" y="870" on="1"/>
        <pt x="1810" y="870" on="0"/>
        <pt x="1810" y="738" on="1"/>
        <pt x="1810" y="653" on="0"/>
        <pt x="1782" y="520" on="1"/>
        <pt x="1716" y="212" on="1"/>
        <pt x="1708" y="180" on="0"/>
        <pt x="1708" y="98" on="0"/>
      </contour>
    </TTGlyph>
    <TTGlyph name="Tbar" xMin="120" yMin="-6" xMax="1256" yMax="1344">
      <component glyphName="T" x="2" y="0" flags="0x1004"/>
      <component glyphName="Tbar.ref1" x="0" y="0" flags="0x1004"/>
    </TTGlyph>
    <TTGlyph name="Tbar.ref1" xMin="284" yMin="616" xMax="954" yMax="696">
      <contour>
        <pt x="306" y="696" on="1"/>
        <pt x="946" y="696" on="1"/>
        <pt x="958" y="696" on="0"/>
        <pt x="950" y="652" on="0"/>
        <pt x="930" y="616" on="1"/>
        <pt x="290" y="616" on="1"/>
        <pt x="279" y="616" on="0"/>
        <pt x="289" y="675" on="0"/>
      </contour>
    </TTGlyph>
    <TTGlyph name="Tcaron" xMin="118" yMin="-6" xMax="1254" yMax="1680">
      <component glyphName="T" x="0" y="0" flags="0x1004"/>
      <component glyphName="uni030C.cap" x="226" y="8" flags="0x1004"/>
    </TTGlyph>
    <TTGlyph name="Tcommaaccent" xMin="118" yMin="-348" xMax="1254" yMax="1344">
      <component glyphName="T" x="0" y="0" flags="0x1004"/>
      <component glyphName="uni0327.cap" x="62" y="0" flags="0x1004"/>
    </TTGlyph>
    <TTGlyph name="Thorn" xMin="-12" yMin="-6" xMax="988" yMax="1324">
      <contour>
        <pt x="578" y="964" on="1"/>
        <pt x="478" y="964" on="0"/>
        <pt x="468" y="916" on="1"/>
        <pt x="336" y="232" on="1"/>
        <pt x="312" y="114" on="0"/>
        <pt x="316" y="84" on="1"/>
        <pt x="317" y="70" on="0"/>
        <pt x="410" y="52" on="0"/>
        <pt x="438" y="52" on="1"/>
        <pt x="443" y="45" on="0"/>
        <pt x="435" y="1" on="0"/>
        <pt x="426" y="-6" on="1"/>
        <pt x="236" y="4" on="0"/>
        <pt x="185" y="4" on="0"/>
        <pt x="-10" y="-6" on="1"/>
        <pt x="-16" y="2" on="0"/>
        <pt x="-8" y="44" on="0"/>
        <pt x="0" y="52" on="1"/>
        <pt x="28" y="52" on="0"/>
        <pt x="130" y="70" on="0"/>
        <pt x="136" y="84" on="1"/>
        <pt x="150" y="112" on="0"/>
        <pt x="174" y="232" on="1"/>
        <pt x="340" y="1086" on="1"/>
        <pt x="362" y="1198" on="0"/>
        <pt x="358" y="1234" on="1"/>
        <pt x="357" y="1248" on="0"/>
        <pt x="264" y="1266" on="0"/>
        <pt x="236" y="1266" on="1"/>
        <pt x="231" y="1273" on="0"/>
        <pt x="239" y="1317" on="0"/>
        <pt x="248" y="1324" on="1"/>
        <pt x="438" y="1314" on="0"/>
        <pt x="491" y="1314" on="0"/>
        <pt x="686" y="1324" on="1"/>
        <pt x="692" y="1316" on="0"/>
        <pt x="682" y="1274" on="0"/>
        <pt x="674" y="1266" on="1"/>
        <pt x="646" y="1266" on="0"/>
        <pt x="546" y="1248" on="0"/>
        <pt x="526" y="1206" on="0"/>
        <pt x="502" y="1086" on="1"/>
        <pt x="484" y="1000" on="1"/>
        <pt x="540" y="1022" on="0"/>
        <pt x="626" y="1022" on="1"/>
        <pt x="786" y="1022" on="0"/>
        <pt x="988" y="856" on="0"/>
        <pt x="988" y="595" on="0"/>
        <pt x="857" y="386" on="0"/>
        <pt x="643" y="268" on="0"/>
        <pt x="522" y="268" on="1"/>
        <pt x="458" y="268" on="0"/>
        <pt x="432" y="288" on="1"/>
        <pt x="416" y="304" on="0"/>
        <pt x="416" y="324" on="0"/>
        <pt x="424" y="328" on="1"/>
        <pt x="440" y="320" on="0"/>
        <pt x="546" y="320" on="0"/>
        <pt x="659" y="374" on="0"/>
        <pt x="706" y="422" on="1"/>
        <pt x="810" y="528" on="0"/>
        <pt x="810" y="692" on="1"/>
        <pt x="810" y="964" on="0"/>
      </contour>
    </TTGlyph>
    <TTGlyph name="ThreeDots.a" xMin="-246" yMin="5" xMax="201" yMax="523">
      <contour>
        <pt x="-144" y="519" on="1"/>
        <pt x="-140" y="527" on="0"/>
        <pt x="-127" y="523" on="1"/>
        <pt x="-43" y="495" on="0"/>
        <pt x="28" y="438" on="1"/>
        <pt x="38" y="430" on="0"/>
        <pt x="33" y="420" on="1"/>
        <pt x="-46" y="265" on="1"/>
        <pt x="-50" y="256" on="0"/>
        <pt x="-82" y="280" on="0"/>
        <pt x="-221" y="358" on="1"/>
        <pt x="-230" y="363" on="0"/>
        <pt x="-225" y="370" on="1"/>
      </contour>
      <contour>
        <pt x="23" y="306" on="1"/>
        <pt x="27" y="314" on="0"/>
        <pt x="40" y="310" on="1"/>
        <pt x="124" y="282" on="0"/>
        <pt x="195" y="225" on="1"/>
        <pt x="205" y="217" on="0"/>
        <pt x="201" y="207" on="1"/>
        <pt x="122" y="52" on="1"/>
        <pt x="117" y="43" on="0"/>
        <pt x="101" y="55" on="1"/>
        <pt x="88" y="65" on="0"/>
        <pt x="-8" y="119" on="1"/>
        <pt x="-66" y="5" on="1"/>
        <pt x="-71" y="-4" on="0"/>
        <pt x="-102" y="20" on="0"/>
        <pt x="-241" y="98" on="1"/>
        <pt x="-250" y="103" on="0"/>
        <pt x="-246" y="110" on="1"/>
        <pt x="-164" y="259" on="1"/>
        <pt x="-160" y="267" on="0"/>
        <pt x="-147" y="263" on="1"/>
        <pt x="-86" y="243" on="0"/>
        <pt x="-31" y="207" on="1"/>
      </contour>
    </TTGlyph>
    <TTGlyph name="ThreeDots.b" xMin="-212" yMin="-255" xMax="235" yMax="263">
      <component glyphName="ThreeDots.a" x="34" y="-260" flags="0x1004"/>
    </TTGlyph>
    <TTGlyph name="ThreeDots.b.l" xMin="-212" yMin="-255" xMax="235" yMax="263">
      <component glyphName="ThreeDots.a" x="34" y="-260" flags="0x1004"/>
    </TTGlyph>
    <TTGlyph name="TwoDots.a" xMin="-258" yMin="6" xMax="209" yMax="310">
      <contour>
        <pt x="31" y="306" on="1"/>
        <pt x="35" y="314" on="0"/>
        <pt x="48" y="310" on="1"/>
        <pt x="132" y="282" on="0"/>
        <pt x="203" y="225" on="1"/>
        <pt x="213" y="217" on="0"/>
        <pt x="209" y="207" on="1"/>
        <pt x="130" y="52" on="1"/>
        <pt x="125" y="43" on="0"/>
        <pt x="109" y="55" on="1"/>
        <pt x="95" y="66" on="0"/>
        <pt x="-16" y="128" on="1"/>
        <pt x="-78" y="6" on="1"/>
        <pt x="-83" y="-3" on="0"/>
        <pt x="-115" y="21" on="0"/>
        <pt x="-253" y="99" on="1"/>
        <pt x="-262" y="104" on="0"/>
        <pt x="-258" y="111" on="1"/>
        <pt x="-176" y="260" on="1"/>
        <pt x="-172" y="268" on="0"/>
        <pt x="-159" y="264" on="1"/>
        <pt x="-90" y="241" on="0"/>
        <pt x="-28" y="197" on="1"/>
      </contour>
    </TTGlyph>
    <TTGlyph name="TwoDots.b" xMin="-248" yMin="-41" xMax="219" yMax="263">
      <component glyphName="TwoDots.a" x="10" y="-47" flags="0x1004"/>
    </TTGlyph>
    <TTGlyph name="TwoDots.b.l" xMin="-248" yMin="-41" xMax="219" yMax="263">
      <component glyphName="TwoDots.a" x="10" y="-47" flags="0x1004"/>
    </TTGlyph>
    <TTGlyph name="U" xMin="195" yMin="-8" xMax="1438" yMax="1326">
      <contour>
        <pt x="1234" y="1316" on="1"/>
        <pt x="1438" y="1326" on="1"/>
        <pt x="1448" y="1300" on="0"/>
        <pt x="1428" y="1268" on="1"/>
        <pt x="1402" y="1268" on="0"/>
        <pt x="1286" y="1244" on="0"/>
        <pt x="1272" y="1225" on="1"/>
        <pt x="1249" y="1193" on="0"/>
        <pt x="1230" y="1092" on="1"/>
        <pt x="1124" y="552" on="1"/>
        <pt x="1067" y="259" on="0"/>
        <pt x="789" y="-8" on="0"/>
        <pt x="351" y="-8" on="0"/>
        <pt x="151" y="276" on="0"/>
        <pt x="195" y="502" on="1"/>
        <pt x="309" y="1086" on="1"/>
        <pt x="333" y="1204" on="0"/>
        <pt x="329" y="1234" on="1"/>
        <pt x="328" y="1248" on="0"/>
        <pt x="235" y="1266" on="0"/>
        <pt x="207" y="1266" on="1"/>
        <pt x="202" y="1273" on="0"/>
        <pt x="210" y="1317" on="0"/>
        <pt x="219" y="1324" on="1"/>
        <pt x="409" y="1314" on="0"/>
        <pt x="460" y="1314" on="0"/>
        <pt x="655" y="1324" on="1"/>
        <pt x="661" y="1316" on="0"/>
        <pt x="651" y="1274" on="0"/>
        <pt x="643" y="1266" on="1"/>
        <pt x="615" y="1266" on="0"/>
        <pt x="515" y="1248" on="0"/>
        <pt x="495" y="1206" on="0"/>
        <pt x="471" y="1086" on="1"/>
        <pt x="375" y="592" on="1"/>
        <pt x="330" y="356" on="0"/>
        <pt x="387" y="240" on="1"/>
        <pt x="452" y="108" on="0"/>
        <pt x="627" y="108" on="1"/>
        <pt x="867" y="108" on="0"/>
        <pt x="972" y="334" on="1"/>
        <pt x="1012" y="422" on="0"/>
        <pt x="1038" y="548" on="1"/>
        <pt x="1144" y="1090" on="1"/>
        <pt x="1156" y="1151" on="0"/>
        <pt x="1160" y="1197" on="0"/>
        <pt x="1152" y="1228" on="1"/>
        <pt x="1147" y="1242" on="0"/>
        <pt x="1053" y="1268" on="0"/>
        <pt x="1026" y="1268" on="1"/>
        <pt x="1018" y="1291" on="0"/>
        <pt x="1034" y="1326" on="1"/>
      </contour>
    </TTGlyph>
    <TTGlyph name="Uacute" xMin="193" yMin="-8" xMax="1436" yMax="1638">
      <component glyphName="U" x="-2" y="0" flags="0x1004"/>
      <component glyphName="acutecomb.cap" x="507" y="34" flags="0x1004"/>
    </TTGlyph>
    <TTGlyph name="Ubreve" xMin="193" yMin="-8" xMax="1436" yMax="1672">
      <component glyphName="U" x="-2" y="0" flags="0x1004"/>
      <component glyphName="uni0306.cap" x="409" y="406" flags="0x1004"/>
    </TTGlyph>
    <TTGlyph name="Ucircumflex" xMin="193" yMin="-8" xMax="1436" yMax="1672">
      <component glyphName="U" x="-2" y="0" flags="0x1004"/>
      <component glyphName="uni0302.cap" x="277" y="0" flags="0x1004"/>
    </TTGlyph>
    <TTGlyph name="Udieresis" xMin="193" yMin="-8" xMax="1436" yMax="1656">
      <component glyphName="U" x="-2" y="0" flags="0x1004"/>
      <component glyphName="uni0308.cap" x="281" y="32" flags="0x1004"/>
    </TTGlyph>
    <TTGlyph name="Ugrave" xMin="193" yMin="-8" xMax="1436" yMax="1636">
      <component glyphName="U" x="-2" y="0" flags="0x1004"/>
      <component glyphName="gravecomb.cap" x="277" y="32" flags="0x1004"/>
    </TTGlyph>
    <TTGlyph name="Uhungarumlaut" xMin="193" yMin="-8" xMax="1436" yMax="1652">
      <component glyphName="U" x="-2" y="0" flags="0x1004"/>
      <component glyphName="uni030B.cap" x="345" y="48" flags="0x1004"/>
    </TTGlyph>
    <TTGlyph name="Umacron" xMin="193" yMin="-8" xMax="1436" yMax="1552">
      <component glyphName="U" x="-2" y="0" flags="0x1004"/>
      <component glyphName="uni0304.cap" x="273" y="360" flags="0x1004"/>
    </TTGlyph>
    <TTGlyph name="Uogonek" xMin="197" yMin="-460" xMax="1479" yMax="1326">
      <contour>
        <pt x="1275" y="1316" on="1"/>
        <pt x="1479" y="1326" on="1"/>
        <pt x="1489" y="1300" on="0"/>
        <pt x="1469" y="1268" on="1"/>
        <pt x="1443" y="1268" on="0"/>
        <pt x="1327" y="1244" on="0"/>
        <pt x="1313" y="1225" on="1"/>
        <pt x="1290" y="1193" on="0"/>
        <pt x="1271" y="1092" on="1"/>
        <pt x="1165" y="552" on="1"/>
        <pt x="1100" y="228" on="0"/>
        <pt x="897" y="86" on="1"/>
        <pt x="541" y="-163" on="0"/>
        <pt x="541" y="-278" on="1"/>
        <pt x="541" y="-342" on="0"/>
        <pt x="603" y="-342" on="1"/>
        <pt x="676" y="-342" on="0"/>
        <pt x="744" y="-285" on="1"/>
        <pt x="766" y="-266" on="0"/>
        <pt x="779" y="-268" on="0"/>
        <pt x="764" y="-319" on="0"/>
        <pt x="757" y="-326" on="1"/>
        <pt x="637" y="-460" on="0"/>
        <pt x="535" y="-460" on="1"/>
        <pt x="492" y="-460" on="0"/>
        <pt x="433" y="-392" on="0"/>
        <pt x="433" y="-350" on="1"/>
        <pt x="433" y="-278" on="0"/>
        <pt x="590" y="-68" on="0"/>
        <pt x="679" y="0" on="1"/>
        <pt x="631" y="-8" on="0"/>
        <pt x="458" y="-8" on="0"/>
        <pt x="291" y="73" on="0"/>
        <pt x="243" y="148" on="1"/>
        <pt x="154" y="286" on="0"/>
        <pt x="197" y="502" on="1"/>
        <pt x="311" y="1086" on="1"/>
        <pt x="335" y="1204" on="0"/>
        <pt x="331" y="1234" on="1"/>
        <pt x="330" y="1248" on="0"/>
        <pt x="237" y="1266" on="0"/>
        <pt x="209" y="1266" on="1"/>
        <pt x="204" y="1273" on="0"/>
        <pt x="212" y="1317" on="0"/>
        <pt x="221" y="1324" on="1"/>
        <pt x="411" y="1314" on="0"/>
        <pt x="462" y="1314" on="0"/>
        <pt x="657" y="1324" on="1"/>
        <pt x="663" y="1316" on="0"/>
        <pt x="653" y="1274" on="0"/>
        <pt x="645" y="1266" on="1"/>
        <pt x="617" y="1266" on="0"/>
        <pt x="517" y="1248" on="0"/>
        <pt x="497" y="1206" on="0"/>
        <pt x="473" y="1086" on="1"/>
        <pt x="377" y="592" on="1"/>
        <pt x="333" y="367" on="0"/>
        <pt x="448" y="108" on="0"/>
        <pt x="629" y="108" on="1"/>
        <pt x="983" y="108" on="0"/>
        <pt x="1075" y="548" on="1"/>
        <pt x="1181" y="1090" on="1"/>
        <pt x="1193" y="1151" on="0"/>
        <pt x="1197" y="1197" on="0"/>
        <pt x="1189" y="1228" on="1"/>
        <pt x="1184" y="1242" on="0"/>
        <pt x="1090" y="1268" on="0"/>
        <pt x="1063" y="1268" on="1"/>
        <pt x="1055" y="1291" on="0"/>
        <pt x="1071" y="1326" on="1"/>
        <pt x="1256" y="1316" on="0"/>
      </contour>
    </TTGlyph>
    <TTGlyph name="Uring" xMin="193" yMin="-8" xMax="1436" yMax="1814">
      <component glyphName="U" x="-2" y="0" flags="0x1004"/>
      <component glyphName="uni030A.cap" x="299" y="452" flags="0x1004"/>
    </TTGlyph>
    <TTGlyph name="Utilde" xMin="193" yMin="-8" xMax="1436" yMax="1638">
      <component glyphName="U" x="-2" y="0" flags="0x1004"/>
      <component glyphName="tildecomb.cap" x="209" y="28" flags="0x1004"/>
    </TTGlyph>
    <TTGlyph name="V" xMin="125" yMin="-4" xMax="1361" yMax="1324">
      <contour>
        <pt x="137" y="1324" on="1"/>
        <pt x="351" y="1314" on="1"/>
        <pt x="393" y="1314" on="0"/>
        <pt x="583" y="1324" on="1"/>
        <pt x="585" y="1314" on="0"/>
        <pt x="575" y="1267" on="0"/>
        <pt x="569" y="1266" on="1"/>
        <pt x="524" y="1266" on="0"/>
        <pt x="449" y="1225" on="0"/>
        <pt x="437" y="1160" on="0"/>
        <pt x="463" y="976" on="0"/>
        <pt x="492" y="779" on="1"/>
        <pt x="570" y="262" on="0"/>
        <pt x="572" y="256" on="1"/>
        <pt x="1023" y="1048" on="1"/>
        <pt x="1066" y="1121" on="0"/>
        <pt x="1081" y="1210" on="0"/>
        <pt x="1057" y="1244" on="0"/>
        <pt x="1036" y="1252" on="1"/>
        <pt x="997" y="1266" on="0"/>
        <pt x="971" y="1266" on="1"/>
        <pt x="965" y="1269" on="0"/>
        <pt x="972" y="1317" on="0"/>
        <pt x="981" y="1324" on="1"/>
        <pt x="1151" y="1314" on="0"/>
        <pt x="1215" y="1314" on="0"/>
        <pt x="1270" y="1317" on="0"/>
        <pt x="1334" y="1323" on="0"/>
        <pt x="1361" y="1324" on="1"/>
        <pt x="1364" y="1317" on="0"/>
        <pt x="1352" y="1266" on="0"/>
        <pt x="1347" y="1266" on="1"/>
        <pt x="1327" y="1266" on="0"/>
        <pt x="1243" y="1240" on="0"/>
        <pt x="1171" y="1168" on="0"/>
        <pt x="1085" y="1012" on="1"/>
        <pt x="539" y="64" on="1"/>
        <pt x="501" y="-4" on="0"/>
        <pt x="455" y="-4" on="1"/>
        <pt x="447" y="-4" on="0"/>
        <pt x="320" y="819" on="0"/>
        <pt x="266" y="1151" on="0"/>
        <pt x="237" y="1220" on="1"/>
        <pt x="228" y="1241" on="0"/>
        <pt x="150" y="1266" on="0"/>
        <pt x="125" y="1266" on="1"/>
        <pt x="121" y="1266" on="0"/>
        <pt x="135" y="1322" on="0"/>
      </contour>
    </TTGlyph>
    <TTGlyph name="W" xMin="131" yMin="-4" xMax="1839" yMax="1324">
      <contour>
        <pt x="143" y="1324" on="1"/>
        <pt x="344" y="1314" on="1"/>
        <pt x="381" y="1314" on="0"/>
        <pt x="571" y="1324" on="1"/>
        <pt x="573" y="1314" on="0"/>
        <pt x="561" y="1267" on="0"/>
        <pt x="555" y="1266" on="1"/>
        <pt x="510" y="1266" on="0"/>
        <pt x="435" y="1225" on="0"/>
        <pt x="431" y="1200" on="1"/>
        <pt x="424" y="1164" on="0"/>
        <pt x="494" y="289" on="1"/>
        <pt x="953" y="1258" on="1"/>
        <pt x="966" y="1285" on="0"/>
        <pt x="1017" y="1324" on="0"/>
        <pt x="1038" y="1324" on="0"/>
        <pt x="1044" y="1312" on="0"/>
        <pt x="1049" y="1292" on="1"/>
        <pt x="1065" y="1121" on="0"/>
        <pt x="1165" y="288" on="1"/>
        <pt x="1509" y="1048" on="1"/>
        <pt x="1549" y="1139" on="0"/>
        <pt x="1561" y="1210" on="0"/>
        <pt x="1535" y="1244" on="0"/>
        <pt x="1514" y="1252" on="1"/>
        <pt x="1472" y="1266" on="0"/>
        <pt x="1445" y="1266" on="1"/>
        <pt x="1439" y="1269" on="0"/>
        <pt x="1448" y="1317" on="0"/>
        <pt x="1457" y="1324" on="1"/>
        <pt x="1627" y="1314" on="0"/>
        <pt x="1693" y="1314" on="0"/>
        <pt x="1748" y="1317" on="0"/>
        <pt x="1812" y="1323" on="0"/>
        <pt x="1839" y="1324" on="1"/>
        <pt x="1842" y="1317" on="0"/>
        <pt x="1830" y="1266" on="0"/>
        <pt x="1825" y="1266" on="1"/>
        <pt x="1809" y="1266" on="0"/>
        <pt x="1724" y="1236" on="0"/>
        <pt x="1654" y="1182" on="0"/>
        <pt x="1599" y="1062" on="1"/>
        <pt x="1133" y="64" on="1"/>
        <pt x="1121" y="38" on="0"/>
        <pt x="1068" y="-4" on="0"/>
        <pt x="1049" y="-4" on="1"/>
        <pt x="1037" y="-4" on="0"/>
        <pt x="1037" y="28" on="1"/>
        <pt x="1016" y="213" on="0"/>
        <pt x="931" y="881" on="0"/>
        <pt x="914" y="1022" on="1"/>
        <pt x="459" y="64" on="1"/>
        <pt x="447" y="38" on="0"/>
        <pt x="395" y="-4" on="0"/>
        <pt x="384" y="-4" on="1"/>
        <pt x="363" y="-4" on="0"/>
        <pt x="363" y="28" on="1"/>
        <pt x="267" y="1064" on="1"/>
        <pt x="266" y="1073" on="0"/>
        <pt x="264" y="1111" on="0"/>
        <pt x="262" y="1126" on="0"/>
        <pt x="260" y="1155" on="0"/>
        <pt x="257" y="1168" on="0"/>
        <pt x="252" y="1191" on="0"/>
        <pt x="249" y="1198" on="1"/>
        <pt x="241" y="1215" on="0"/>
        <pt x="220" y="1243" on="0"/>
        <pt x="152" y="1266" on="0"/>
        <pt x="131" y="1266" on="1"/>
        <pt x="127" y="1266" on="0"/>
        <pt x="141" y="1322" on="0"/>
      </contour>
    </TTGlyph>
    <TTGlyph name="Wacute" xMin="131" yMin="-4" xMax="1839" yMax="1668">
      <component glyphName="W" x="0" y="0" flags="0x1004"/>
      <component glyphName="acutecomb.cap" x="686" y="64" flags="0x1004"/>
    </TTGlyph>
    <TTGlyph name="Wcircumflex" xMin="131" yMin="-4" xMax="1839" yMax="1672">
      <component glyphName="W" x="0" y="0" flags="0x1004"/>
      <component glyphName="uni0302.cap" x="503" y="0" flags="0x1004"/>
    </TTGlyph>
    <TTGlyph name="Wdieresis" xMin="131" yMin="-4" xMax="1839" yMax="1652">
      <component glyphName="W" x="0" y="0" flags="0x1004"/>
      <component glyphName="uni0308.cap" x="458" y="28" flags="0x1004"/>
    </TTGlyph>
    <TTGlyph name="Wgrave" xMin="131" yMin="-4" xMax="1839" yMax="1668">
      <component glyphName="W" x="0" y="0" flags="0x1004"/>
      <component glyphName="gravecomb.cap" x="428" y="64" flags="0x1004"/>
    </TTGlyph>
    <TTGlyph name="X" xMin="-117" yMin="-6" xMax="1359" yMax="1324">
      <contour>
        <pt x="219" y="1324" on="1"/>
        <pt x="449" y="1314" on="1"/>
        <pt x="499" y="1314" on="0"/>
        <pt x="689" y="1324" on="1"/>
        <pt x="691" y="1313" on="0"/>
        <pt x="682" y="1266" on="0"/>
        <pt x="675" y="1266" on="1"/>
        <pt x="624" y="1266" on="0"/>
        <pt x="556" y="1226" on="0"/>
        <pt x="545" y="1180" on="0"/>
        <pt x="561" y="1142" on="1"/>
        <pt x="709" y="784" on="1"/>
        <pt x="1017" y="1131" on="0"/>
        <pt x="1067" y="1205" on="0"/>
        <pt x="1070" y="1224" on="0"/>
        <pt x="1054" y="1244" on="0"/>
        <pt x="994" y="1264" on="0"/>
        <pt x="947" y="1264" on="1"/>
        <pt x="941" y="1266" on="0"/>
        <pt x="949" y="1311" on="0"/>
        <pt x="955" y="1322" on="1"/>
        <pt x="1078" y="1312" on="0"/>
        <pt x="1244" y="1312" on="0"/>
        <pt x="1359" y="1322" on="1"/>
        <pt x="1362" y="1314" on="0"/>
        <pt x="1353" y="1272" on="0"/>
        <pt x="1343" y="1264" on="1"/>
        <pt x="1297" y="1264" on="0"/>
        <pt x="1193" y="1216" on="0"/>
        <pt x="1163" y="1184" on="1"/>
        <pt x="737" y="722" on="1"/>
        <pt x="983" y="132" on="1"/>
        <pt x="1000" y="92" on="0"/>
        <pt x="1096" y="52" on="0"/>
        <pt x="1149" y="52" on="1"/>
        <pt x="1153" y="46" on="0"/>
        <pt x="1142" y="0" on="0"/>
        <pt x="1139" y="-6" on="1"/>
        <pt x="951" y="4" on="1"/>
        <pt x="937" y="4" on="0"/>
        <pt x="677" y="-6" on="1"/>
        <pt x="671" y="2" on="0"/>
        <pt x="680" y="52" on="0"/>
        <pt x="687" y="52" on="1"/>
        <pt x="712" y="52" on="0"/>
        <pt x="757" y="68" on="1"/>
        <pt x="818" y="88" on="0"/>
        <pt x="803" y="132" on="1"/>
        <pt x="611" y="600" on="1"/>
        <pt x="205" y="143" on="0"/>
        <pt x="197" y="100" on="1"/>
        <pt x="194" y="79" on="0"/>
        <pt x="282" y="52" on="0"/>
        <pt x="329" y="52" on="1"/>
        <pt x="333" y="44" on="0"/>
        <pt x="325" y="0" on="0"/>
        <pt x="321" y="-6" on="1"/>
        <pt x="151" y="4" on="0"/>
        <pt x="73" y="4" on="0"/>
        <pt x="-117" y="-6" on="1"/>
        <pt x="-120" y="2" on="0"/>
        <pt x="-107" y="46" on="0"/>
        <pt x="-103" y="52" on="1"/>
        <pt x="-47" y="52" on="0"/>
        <pt x="75" y="100" on="0"/>
        <pt x="105" y="132" on="1"/>
        <pt x="579" y="664" on="1"/>
        <pt x="401" y="1096" on="1"/>
        <pt x="380" y="1151" on="0"/>
        <pt x="339" y="1210" on="0"/>
        <pt x="312" y="1229" on="1"/>
        <pt x="259" y="1266" on="0"/>
        <pt x="207" y="1266" on="1"/>
        <pt x="203" y="1268" on="0"/>
        <pt x="203" y="1311" on="0"/>
      </contour>
    </TTGlyph>
    <TTGlyph name="Y" xMin="114" yMin="-6" xMax="1270" yMax="1324">
      <contour>
        <pt x="130" y="1324" on="1"/>
        <pt x="360" y="1314" on="1"/>
        <pt x="410" y="1314" on="0"/>
        <pt x="600" y="1324" on="1"/>
        <pt x="602" y="1313" on="0"/>
        <pt x="593" y="1266" on="0"/>
        <pt x="586" y="1266" on="1"/>
        <pt x="535" y="1266" on="0"/>
        <pt x="467" y="1226" on="0"/>
        <pt x="458" y="1187" on="0"/>
        <pt x="472" y="1142" on="1"/>
        <pt x="633" y="661" on="1"/>
        <pt x="727" y="793" on="0"/>
        <pt x="958" y="1138" on="0"/>
        <pt x="993" y="1198" on="0"/>
        <pt x="997" y="1222" on="0"/>
        <pt x="979" y="1243" on="0"/>
        <pt x="917" y="1264" on="0"/>
        <pt x="870" y="1264" on="1"/>
        <pt x="866" y="1269" on="0"/>
        <pt x="873" y="1316" on="0"/>
        <pt x="878" y="1322" on="1"/>
        <pt x="1048" y="1312" on="0"/>
        <pt x="1107" y="1312" on="0"/>
        <pt x="1171" y="1315" on="0"/>
        <pt x="1245" y="1321" on="0"/>
        <pt x="1270" y="1322" on="1"/>
        <pt x="1270" y="1315" on="0"/>
        <pt x="1258" y="1264" on="0"/>
        <pt x="1254" y="1264" on="1"/>
        <pt x="1133" y="1264" on="0"/>
        <pt x="1076" y="1184" on="1"/>
        <pt x="666" y="602" on="1"/>
        <pt x="646" y="573" on="0"/>
        <pt x="646" y="540" on="1"/>
        <pt x="584" y="232" on="1"/>
        <pt x="560" y="114" on="0"/>
        <pt x="564" y="84" on="1"/>
        <pt x="565" y="70" on="0"/>
        <pt x="658" y="52" on="0"/>
        <pt x="686" y="52" on="1"/>
        <pt x="691" y="45" on="0"/>
        <pt x="685" y="1" on="0"/>
        <pt x="676" y="-6" on="1"/>
        <pt x="486" y="4" on="0"/>
        <pt x="433" y="4" on="0"/>
        <pt x="238" y="-6" on="1"/>
        <pt x="232" y="2" on="0"/>
        <pt x="242" y="44" on="0"/>
        <pt x="250" y="52" on="1"/>
        <pt x="278" y="52" on="0"/>
        <pt x="378" y="70" on="0"/>
        <pt x="398" y="112" on="0"/>
        <pt x="422" y="232" on="1"/>
        <pt x="480" y="534" on="1"/>
        <pt x="485" y="567" on="0"/>
        <pt x="478" y="590" on="1"/>
        <pt x="312" y="1096" on="1"/>
        <pt x="295" y="1150" on="0"/>
        <pt x="252" y="1209" on="0"/>
        <pt x="224" y="1228" on="1"/>
        <pt x="170" y="1266" on="0"/>
        <pt x="118" y="1266" on="1"/>
        <pt x="114" y="1268" on="0"/>
        <pt x="114" y="1311" on="0"/>
      </contour>
    </TTGlyph>
    <TTGlyph name="Yacute" xMin="114" yMin="-6" xMax="1270" yMax="1638">
      <component glyphName="Y" x="0" y="0" flags="0x1004"/>
      <component glyphName="acutecomb.cap" x="366" y="34" flags="0x1004"/>
    </TTGlyph>
    <TTGlyph name="Ycircumflex" xMin="114" yMin="-6" xMax="1270" yMax="1672">
      <component glyphName="Y" x="0" y="0" flags="0x1004"/>
      <component glyphName="uni0302.cap" x="182" y="0" flags="0x1004"/>
    </TTGlyph>
    <TTGlyph name="Ydieresis" xMin="114" yMin="-6" xMax="1270" yMax="1656">
      <component glyphName="Y" x="0" y="0" flags="0x1004"/>
      <component glyphName="uni0308.cap" x="158" y="32" flags="0x1004"/>
    </TTGlyph>
    <TTGlyph name="Ygrave" xMin="114" yMin="-6" xMax="1270" yMax="1668">
      <component glyphName="gravecomb.cap" x="160" y="64" flags="0x1004"/>
      <component glyphName="Y" x="0" y="0" flags="0x1004"/>
    </TTGlyph>
    <TTGlyph name="Z" xMin="-19" yMin="0" xMax="1241" yMax="1342">
      <contour>
        <pt x="559" y="1258" on="1"/>
        <pt x="467" y="1257" on="0"/>
        <pt x="307" y="1110" on="0"/>
        <pt x="251" y="984" on="1"/>
        <pt x="246" y="976" on="0"/>
        <pt x="217" y="976" on="0"/>
        <pt x="186" y="987" on="0"/>
        <pt x="183" y="992" on="1"/>
        <pt x="247" y="1111" on="0"/>
        <pt x="311" y="1338" on="1"/>
        <pt x="412" y="1322" on="0"/>
        <pt x="461" y="1322" on="1"/>
        <pt x="823" y="1322" on="1"/>
        <pt x="954" y="1322" on="0"/>
        <pt x="1217" y="1342" on="1"/>
        <pt x="1224" y="1340" on="0"/>
        <pt x="1244" y="1309" on="0"/>
        <pt x="1238" y="1289" on="0"/>
        <pt x="1071" y="1086" on="1"/>
        <pt x="576" y="487" on="0"/>
        <pt x="206" y="64" on="1"/>
        <pt x="695" y="64" on="1"/>
        <pt x="815" y="64" on="0"/>
        <pt x="914" y="171" on="1"/>
        <pt x="961" y="222" on="0"/>
        <pt x="1027" y="344" on="1"/>
        <pt x="1030" y="350" on="0"/>
        <pt x="1082" y="350" on="0"/>
        <pt x="1095" y="332" on="1"/>
        <pt x="1001" y="136" on="0"/>
        <pt x="949" y="0" on="1"/>
        <pt x="9" y="0" on="1"/>
        <pt x="-6" y="0" on="0"/>
        <pt x="-27" y="19" on="0"/>
        <pt x="-19" y="28" on="1"/>
        <pt x="1017" y="1260" on="1"/>
      </contour>
    </TTGlyph>
    <TTGlyph name="Zacute" xMin="-19" yMin="0" xMax="1241" yMax="1638">
      <component glyphName="Z" x="0" y="0" flags="0x1004"/>
      <component glyphName="acutecomb.cap" x="371" y="34" flags="0x1004"/>
    </TTGlyph>
    <TTGlyph name="Zcaron" xMin="-19" yMin="0" xMax="1241" yMax="1672">
      <component glyphName="Z" x="0" y="0" flags="0x1004"/>
      <component glyphName="uni030C.cap" x="225" y="0" flags="0x1004"/>
    </TTGlyph>
    <TTGlyph name="Zdotaccent" xMin="-19" yMin="0" xMax="1241" yMax="1656">
      <component glyphName="Z" x="0" y="0" flags="0x1004"/>
      <component glyphName="uni0307" x="1319" y="476" flags="0x1004"/>
    </TTGlyph>
    <TTGlyph name="a" xMin="38" yMin="-12" xMax="816" yMax="870">
      <contour>
        <pt x="656" y="98" on="1"/>
        <pt x="691" y="98" on="0"/>
        <pt x="796" y="214" on="1"/>
        <pt x="801" y="214" on="0"/>
        <pt x="816" y="185" on="0"/>
        <pt x="816" y="176" on="1"/>
        <pt x="791" y="134" on="0"/>
        <pt x="616" y="-12" on="0"/>
        <pt x="554" y="-12" on="1"/>
        <pt x="523" y="-12" on="0"/>
        <pt x="486" y="46" on="0"/>
        <pt x="486" y="124" on="0"/>
        <pt x="508" y="246" on="0"/>
        <pt x="510" y="260" on="1"/>
        <pt x="473" y="193" on="0"/>
        <pt x="413" y="122" on="1"/>
        <pt x="299" y="-10" on="0"/>
        <pt x="135" y="-10" on="0"/>
        <pt x="38" y="120" on="0"/>
        <pt x="38" y="351" on="0"/>
        <pt x="148" y="594" on="0"/>
        <pt x="317" y="765" on="0"/>
        <pt x="519" y="870" on="0"/>
        <pt x="695" y="870" on="0"/>
        <pt x="766" y="844" on="1"/>
        <pt x="644" y="212" on="1"/>
        <pt x="626" y="146" on="0"/>
        <pt x="645" y="98" on="0"/>
      </contour>
      <contour>
        <pt x="610" y="760" on="1"/>
        <pt x="584" y="790" on="0"/>
        <pt x="443" y="790" on="0"/>
        <pt x="287" y="643" on="0"/>
        <pt x="186" y="414" on="0"/>
        <pt x="186" y="302" on="1"/>
        <pt x="186" y="106" on="0"/>
        <pt x="288" y="106" on="1"/>
        <pt x="336" y="106" on="0"/>
        <pt x="455" y="247" on="0"/>
        <pt x="549" y="452" on="0"/>
        <pt x="568" y="548" on="1"/>
      </contour>
    </TTGlyph>
    <TTGlyph name="aAlf.dagger" xMin="-273" yMin="873" xMax="-10" yMax="1445">
      <component glyphName="uni0670" x="-198" y="-934" flags="0x1004"/>
    </TTGlyph>
    <TTGlyph name="aAlf.fina" xMin="-77" yMin="0" xMax="498" yMax="1475">
      <contour>
        <pt x="-24" y="1475" on="1"/>
        <pt x="-7" y="1511" on="0"/>
        <pt x="11" y="1444" on="1"/>
        <pt x="88" y="1127" on="0"/>
        <pt x="126" y="901" on="1"/>
        <pt x="200" y="474" on="0"/>
        <pt x="218" y="386" on="1"/>
        <pt x="256" y="196" on="0"/>
        <pt x="447" y="185" on="1"/>
        <pt x="501" y="182" on="0"/>
        <pt x="497" y="110" on="1"/>
        <pt x="492" y="0" on="0"/>
        <pt x="470" y="0" on="1"/>
        <pt x="201" y="0" on="0"/>
        <pt x="151" y="249" on="1"/>
        <pt x="110" y="459" on="0"/>
        <pt x="45" y="884" on="0"/>
        <pt x="-24" y="1147" on="0"/>
        <pt x="-76" y="1316" on="1"/>
        <pt x="-86" y="1349" on="0"/>
        <pt x="-76" y="1369" on="1"/>
      </contour>
    </TTGlyph>
    <TTGlyph name="aAlf.fina.alt" xMin="-36" yMin="-14" xMax="1658" yMax="1638">
      <contour>
        <pt x="143" y="1638" on="1"/>
        <pt x="172" y="1638" on="0"/>
        <pt x="171" y="1609" on="1"/>
        <pt x="171" y="1482" on="1"/>
        <pt x="171" y="1450" on="0"/>
        <pt x="143" y="1447" on="1"/>
        <pt x="76" y="1440" on="0"/>
        <pt x="32" y="1415" on="0"/>
        <pt x="33" y="1357" on="0"/>
        <pt x="43" y="1280" on="1"/>
        <pt x="115" y="717" on="0"/>
        <pt x="202" y="554" on="1"/>
        <pt x="369" y="243" on="0"/>
        <pt x="849" y="188" on="1"/>
        <pt x="1155" y="154" on="0"/>
        <pt x="1590" y="185" on="1"/>
        <pt x="1660" y="190" on="0"/>
        <pt x="1657" y="127" on="1"/>
        <pt x="1652" y="6" on="0"/>
        <pt x="1613" y="0" on="1"/>
        <pt x="1527" y="-15" on="0"/>
        <pt x="1168" y="-14" on="1"/>
        <pt x="500" y="-13" on="0"/>
        <pt x="261" y="227" on="1"/>
        <pt x="141" y="348" on="0"/>
        <pt x="79" y="608" on="1"/>
        <pt x="47" y="745" on="0"/>
        <pt x="35" y="821" on="1"/>
        <pt x="-38" y="1314" on="0"/>
        <pt x="-36" y="1464" on="1"/>
        <pt x="-34" y="1527" on="0"/>
        <pt x="15" y="1594" on="1"/>
        <pt x="48" y="1637" on="0"/>
      </contour>
    </TTGlyph>
    <TTGlyph name="aAlf.fina_KafAlf" xMin="-119" yMin="-22" xMax="461" yMax="1510">
      <contour>
        <pt x="361" y="192" on="1"/>
        <pt x="434" y="179" on="0"/>
        <pt x="460" y="65" on="1"/>
        <pt x="483" y="-31" on="0"/>
        <pt x="389" y="-22" on="1"/>
        <pt x="296" y="-14" on="0"/>
        <pt x="221" y="56" on="1"/>
        <pt x="96" y="170" on="0"/>
        <pt x="52" y="582" on="1"/>
        <pt x="27" y="810" on="0"/>
        <pt x="-17" y="1002" on="1"/>
        <pt x="-76" y="1258" on="0"/>
        <pt x="-101" y="1325" on="1"/>
        <pt x="-127" y="1400" on="0"/>
        <pt x="-119" y="1416" on="1"/>
        <pt x="-71" y="1510" on="1"/>
        <pt x="-57" y="1539" on="0"/>
        <pt x="-43" y="1505" on="1"/>
        <pt x="37" y="1303" on="0"/>
        <pt x="107" y="762" on="1"/>
        <pt x="158" y="375" on="0"/>
        <pt x="209" y="292" on="1"/>
        <pt x="259" y="209" on="0"/>
      </contour>
    </TTGlyph>
    <TTGlyph name="aAlf.fina_KafMemAlf" xMin="-88" yMin="-145" xMax="432" yMax="1521">
      <contour>
        <pt x="139" y="778" on="1"/>
        <pt x="202" y="248" on="0"/>
        <pt x="385" y="67" on="1"/>
        <pt x="433" y="20" on="0"/>
        <pt x="431" y="-149" on="0"/>
        <pt x="389" y="-145" on="1"/>
        <pt x="358" y="-142" on="0"/>
        <pt x="314" y="-86" on="1"/>
        <pt x="201" y="55" on="0"/>
        <pt x="77" y="510" on="0"/>
        <pt x="43" y="800" on="1"/>
        <pt x="10" y="1077" on="0"/>
        <pt x="-82" y="1380" on="1"/>
        <pt x="-93" y="1414" on="0"/>
        <pt x="-88" y="1423" on="1"/>
        <pt x="-35" y="1521" on="1"/>
        <pt x="-14" y="1560" on="0"/>
        <pt x="-2" y="1510" on="1"/>
        <pt x="74" y="1212" on="0"/>
        <pt x="112" y="964" on="1"/>
      </contour>
    </TTGlyph>
    <TTGlyph name="aAlf.fina_LamAlfFina" xMin="-15" yMin="283" xMax="893" yMax="1211">
      <contour>
        <pt x="886" y="406" on="1"/>
        <pt x="914" y="304" on="0"/>
        <pt x="872" y="263" on="0"/>
        <pt x="853" y="314" on="1"/>
        <pt x="738" y="609" on="0"/>
        <pt x="389" y="809" on="1"/>
        <pt x="355" y="827" on="0"/>
        <pt x="350" y="809" on="1"/>
        <pt x="335" y="768" on="1"/>
        <pt x="329" y="752" on="0"/>
        <pt x="300" y="746" on="0"/>
        <pt x="258" y="772" on="1"/>
        <pt x="64" y="895" on="1"/>
        <pt x="22" y="924" on="0"/>
        <pt x="16" y="958" on="1"/>
        <pt x="-14" y="1176" on="1"/>
        <pt x="-17" y="1197" on="0"/>
        <pt x="30" y="1224" on="0"/>
        <pt x="57" y="1211" on="1"/>
        <pt x="768" y="856" on="0"/>
      </contour>
    </TTGlyph>
    <TTGlyph name="aAlf.fina_LamAlfIsol" xMin="-24" yMin="-60" xMax="1029" yMax="1454">
      <contour>
        <pt x="556" y="123" on="1"/>
        <pt x="855" y="93" on="0"/>
        <pt x="936" y="125" on="1"/>
        <pt x="890" y="324" on="0"/>
        <pt x="576" y="699" on="1"/>
        <pt x="350" y="970" on="0"/>
        <pt x="244" y="1060" on="1"/>
        <pt x="221" y="1007" on="1"/>
        <pt x="196" y="989" on="0"/>
        <pt x="170" y="1015" on="1"/>
        <pt x="11" y="1167" on="1"/>
        <pt x="-24" y="1202" on="0"/>
        <pt x="-23" y="1247" on="1"/>
        <pt x="-18" y="1426" on="1"/>
        <pt x="-17" y="1453" on="0"/>
        <pt x="-3" y="1454" on="1"/>
        <pt x="39" y="1457" on="0"/>
        <pt x="255" y="1231" on="1"/>
        <pt x="470" y="1006" on="0"/>
        <pt x="632" y="800" on="1"/>
        <pt x="976" y="360" on="0"/>
        <pt x="1028" y="86" on="1"/>
        <pt x="1050" y="-30" on="0"/>
        <pt x="984" y="-47" on="1"/>
        <pt x="800" y="-96" on="0"/>
        <pt x="569" y="-60" on="1"/>
        <pt x="545" y="-56" on="0"/>
        <pt x="538" y="-45" on="1"/>
        <pt x="491" y="44" on="0"/>
        <pt x="530" y="105" on="1"/>
        <pt x="543" y="125" on="0"/>
      </contour>
    </TTGlyph>
    <TTGlyph name="aAlf.fina_MemAlfFina" xMin="-80" yMin="-235" xMax="477" yMax="1441">
      <contour>
        <pt x="292" y="-169" on="1"/>
        <pt x="269" y="-140" on="0"/>
        <pt x="227" y="2" on="0"/>
        <pt x="152" y="395" on="1"/>
        <pt x="20" y="1072" on="0"/>
        <pt x="-75" y="1305" on="1"/>
        <pt x="-85" y="1328" on="0"/>
        <pt x="-80" y="1341" on="1"/>
        <pt x="-36" y="1441" on="1"/>
        <pt x="-25" y="1465" on="0"/>
        <pt x="-13" y="1438" on="1"/>
        <pt x="49" y="1308" on="0"/>
        <pt x="224" y="504" on="0"/>
        <pt x="260" y="311" on="1"/>
        <pt x="321" y="-15" on="0"/>
        <pt x="519" y="-183" on="0"/>
        <pt x="477" y="-235" on="1"/>
        <pt x="406" y="-322" on="0"/>
      </contour>
    </TTGlyph>
    <TTGlyph name="aAlf.fina_Narrow" xMin="-77" yMin="0" xMax="398" yMax="1475">
      <contour>
        <pt x="-24" y="1475" on="1"/>
        <pt x="-7" y="1511" on="0"/>
        <pt x="11" y="1444" on="1"/>
        <pt x="88" y="1127" on="0"/>
        <pt x="126" y="901" on="1"/>
        <pt x="200" y="474" on="0"/>
        <pt x="218" y="386" on="1"/>
        <pt x="258" y="190" on="0"/>
        <pt x="347" y="185" on="1"/>
        <pt x="401" y="182" on="0"/>
        <pt x="397" y="110" on="1"/>
        <pt x="392" y="0" on="0"/>
        <pt x="370" y="0" on="1"/>
        <pt x="201" y="0" on="0"/>
        <pt x="151" y="249" on="1"/>
        <pt x="110" y="459" on="0"/>
        <pt x="45" y="884" on="0"/>
        <pt x="-24" y="1147" on="0"/>
        <pt x="-76" y="1316" on="1"/>
        <pt x="-86" y="1349" on="0"/>
        <pt x="-76" y="1369" on="1"/>
      </contour>
    </TTGlyph>
    <TTGlyph name="aAlf.isol" xMin="-16" yMin="2" xMax="265" yMax="1392">
      <contour>
        <pt x="20" y="1388" on="1"/>
        <pt x="41" y="1460" on="0"/>
        <pt x="57" y="1392" on="1"/>
        <pt x="57" y="1392" on="0"/>
        <pt x="168" y="874" on="1"/>
        <pt x="331" y="184" on="0"/>
        <pt x="264" y="14" on="1"/>
        <pt x="255" y="-9" on="0"/>
        <pt x="233" y="14" on="0"/>
        <pt x="232" y="36" on="1"/>
        <pt x="207" y="278" on="0"/>
        <pt x="134" y="568" on="0"/>
        <pt x="78" y="813" on="1"/>
        <pt x="-15" y="1214" on="1"/>
        <pt x="-23" y="1248" on="0"/>
        <pt x="-13" y="1283" on="1"/>
      </contour>
    </TTGlyph>
    <TTGlyph name="aAyn.fina" xMin="190" yMin="-1128" xMax="1623" yMax="526">
      <contour>
        <pt x="791" y="526" on="1"/>
        <pt x="891" y="470" on="0"/>
        <pt x="895" y="366" on="0"/>
        <pt x="822" y="283" on="0"/>
        <pt x="776" y="260" on="1"/>
        <pt x="764" y="256" on="0"/>
        <pt x="781" y="246" on="1"/>
        <pt x="885" y="188" on="0"/>
        <pt x="987" y="185" on="1"/>
        <pt x="1063" y="183" on="0"/>
        <pt x="1066" y="110" on="1"/>
        <pt x="1072" y="0" on="0"/>
        <pt x="1010" y="0" on="1"/>
        <pt x="865" y="0" on="0"/>
        <pt x="623" y="188" on="1"/>
        <pt x="611" y="197" on="0"/>
        <pt x="596" y="188" on="1"/>
        <pt x="227" y="-46" on="0"/>
        <pt x="255" y="-396" on="1"/>
        <pt x="287" y="-798" on="0"/>
        <pt x="758" y="-914" on="1"/>
        <pt x="1025" y="-981" on="0"/>
        <pt x="1597" y="-933" on="1"/>
        <pt x="1618" y="-931" on="0"/>
        <pt x="1627" y="-954" on="0"/>
        <pt x="1608" y="-968" on="1"/>
        <pt x="1546" y="-1013" on="0"/>
        <pt x="1264" y="-1124" on="0"/>
        <pt x="1191" y="-1128" on="1"/>
        <pt x="910" y="-1145" on="0"/>
        <pt x="697" y="-1095" on="1"/>
        <pt x="179" y="-972" on="0"/>
        <pt x="190" y="-391" on="1"/>
        <pt x="197" y="-39" on="0"/>
        <pt x="421" y="210" on="1"/>
        <pt x="459" y="251" on="0"/>
        <pt x="492" y="279" on="0"/>
        <pt x="483" y="286" on="1"/>
        <pt x="424" y="331" on="0"/>
        <pt x="346" y="338" on="1"/>
        <pt x="288" y="343" on="0"/>
        <pt x="297" y="375" on="1"/>
        <pt x="324" y="472" on="0"/>
        <pt x="398" y="523" on="1"/>
        <pt x="578" y="647" on="0"/>
      </contour>
    </TTGlyph>
    <TTGlyph name="aAyn.init" xMin="-71" yMin="0" xMax="785" yMax="813">
      <contour>
        <pt x="785" y="515" on="1"/>
        <pt x="785" y="515" on="0"/>
        <pt x="763" y="351" on="1"/>
        <pt x="760" y="333" on="0"/>
        <pt x="731" y="322" on="1"/>
        <pt x="616" y="278" on="0"/>
        <pt x="446" y="204" on="1"/>
        <pt x="446" y="204" on="0"/>
        <pt x="0" y="0" on="1"/>
        <pt x="-45" y="0" on="0"/>
        <pt x="-97" y="151" on="0"/>
        <pt x="-23" y="185" on="1"/>
        <pt x="-13" y="189" on="0"/>
        <pt x="112" y="244" on="1"/>
        <pt x="8" y="325" on="0"/>
        <pt x="16" y="431" on="1"/>
        <pt x="36" y="700" on="0"/>
        <pt x="293" y="813" on="1"/>
        <pt x="341" y="834" on="0"/>
        <pt x="518" y="748" on="0"/>
        <pt x="588" y="678" on="1"/>
        <pt x="612" y="654" on="0"/>
        <pt x="587" y="616" on="0"/>
        <pt x="559" y="627" on="1"/>
        <pt x="433" y="676" on="0"/>
        <pt x="147" y="608" on="0"/>
        <pt x="122" y="522" on="1"/>
        <pt x="112" y="489" on="0"/>
        <pt x="243" y="384" on="0"/>
        <pt x="300" y="375" on="1"/>
        <pt x="467" y="350" on="0"/>
        <pt x="666" y="488" on="1"/>
        <pt x="707" y="516" on="0"/>
        <pt x="738" y="534" on="1"/>
        <pt x="791" y="567" on="0"/>
      </contour>
    </TTGlyph>
    <TTGlyph name="aAyn.init_AboveHaaIsol" xMin="-119" yMin="471" xMax="860" yMax="1251">
      <component glyphName="aAyn.init_AynHaaInit" x="0" y="0" flags="0x1004"/>
    </TTGlyph>
    <TTGlyph name="aAyn.init_AynHaaInit" xMin="-119" yMin="471" xMax="860" yMax="1251">
      <contour>
        <pt x="859" y="926" on="1"/>
        <pt x="876" y="909" on="0"/>
        <pt x="817" y="793" on="1"/>
        <pt x="807" y="774" on="0"/>
        <pt x="786" y="768" on="1"/>
        <pt x="252" y="617" on="0"/>
        <pt x="163" y="582" on="1"/>
        <pt x="-73" y="471" on="1"/>
        <pt x="-110" y="466" on="0"/>
        <pt x="-119" y="487" on="1"/>
        <pt x="-122" y="493" on="0"/>
        <pt x="-111" y="506" on="1"/>
        <pt x="-46" y="597" on="0"/>
        <pt x="217" y="711" on="1"/>
        <pt x="137" y="768" on="0"/>
        <pt x="61" y="874" on="0"/>
        <pt x="110" y="1069" on="0"/>
        <pt x="310" y="1259" on="0"/>
        <pt x="405" y="1251" on="1"/>
        <pt x="544" y="1240" on="0"/>
        <pt x="645" y="1115" on="1"/>
        <pt x="658" y="1099" on="0"/>
        <pt x="646" y="1079" on="0"/>
        <pt x="631" y="1084" on="1"/>
        <pt x="504" y="1125" on="0"/>
        <pt x="420" y="1123" on="1"/>
        <pt x="233" y="1118" on="0"/>
        <pt x="167" y="993" on="1"/>
        <pt x="278" y="848" on="0"/>
        <pt x="416" y="836" on="1"/>
        <pt x="610" y="819" on="0"/>
        <pt x="840" y="930" on="1"/>
        <pt x="850" y="935" on="0"/>
      </contour>
    </TTGlyph>
    <TTGlyph name="aAyn.init_AynMemInit" xMin="-201" yMin="394" xMax="776" yMax="1094">
      <contour>
        <pt x="-195" y="460" on="1"/>
        <pt x="-158" y="496" on="0"/>
        <pt x="-6" y="554" on="1"/>
        <pt x="96" y="592" on="0"/>
        <pt x="134" y="610" on="1"/>
        <pt x="34" y="672" on="0"/>
        <pt x="-39" y="802" on="0"/>
        <pt x="16" y="998" on="0"/>
        <pt x="115" y="1094" on="1"/>
        <pt x="330" y="1304" on="0"/>
        <pt x="562" y="1045" on="1"/>
        <pt x="578" y="1027" on="0"/>
        <pt x="565" y="1015" on="1"/>
        <pt x="555" y="1004" on="0"/>
        <pt x="540" y="1009" on="1"/>
        <pt x="302" y="1084" on="0"/>
        <pt x="66" y="925" on="1"/>
        <pt x="52" y="915" on="0"/>
        <pt x="63" y="901" on="1"/>
        <pt x="186" y="759" on="0"/>
        <pt x="361" y="731" on="1"/>
        <pt x="462" y="715" on="0"/>
        <pt x="719" y="851" on="1"/>
        <pt x="745" y="865" on="0"/>
        <pt x="786" y="828" on="0"/>
        <pt x="776" y="808" on="1"/>
        <pt x="725" y="709" on="1"/>
        <pt x="714" y="687" on="0"/>
        <pt x="699" y="681" on="1"/>
        <pt x="619" y="647" on="0"/>
        <pt x="351" y="554" on="1"/>
        <pt x="-100" y="394" on="1"/>
        <pt x="-174" y="362" on="0"/>
        <pt x="-200" y="394" on="1"/>
        <pt x="-228" y="429" on="0"/>
      </contour>
    </TTGlyph>
    <TTGlyph name="aAyn.init_AynYaaIsol" xMin="-87" yMin="250" xMax="997" yMax="1113">
      <contour>
        <pt x="961" y="654" on="1"/>
        <pt x="951" y="624" on="0"/>
        <pt x="943" y="620" on="1"/>
        <pt x="804" y="558" on="0"/>
        <pt x="209" y="323" on="0"/>
        <pt x="106" y="272" on="1"/>
        <pt x="-77" y="184" on="0"/>
        <pt x="-87" y="250" on="1"/>
        <pt x="-95" y="314" on="0"/>
        <pt x="-43" y="346" on="1"/>
        <pt x="78" y="422" on="0"/>
        <pt x="315" y="519" on="1"/>
        <pt x="156" y="661" on="0"/>
        <pt x="164" y="739" on="1"/>
        <pt x="176" y="849" on="0"/>
        <pt x="400" y="1099" on="0"/>
        <pt x="491" y="1113" on="1"/>
        <pt x="543" y="1121" on="0"/>
        <pt x="750" y="1025" on="0"/>
        <pt x="806" y="972" on="1"/>
        <pt x="818" y="960" on="0"/>
        <pt x="809" y="940" on="0"/>
        <pt x="793" y="945" on="1"/>
        <pt x="467" y="1032" on="0"/>
        <pt x="285" y="825" on="1"/>
        <pt x="279" y="817" on="0"/>
        <pt x="292" y="799" on="1"/>
        <pt x="377" y="686" on="0"/>
        <pt x="577" y="650" on="1"/>
        <pt x="666" y="635" on="0"/>
        <pt x="898" y="764" on="1"/>
        <pt x="1012" y="828" on="0"/>
        <pt x="996" y="771" on="1"/>
      </contour>
    </TTGlyph>
    <TTGlyph name="aAyn.init_Finjani" xMin="-56" yMin="0" xMax="650" yMax="784">
      <contour>
        <pt x="650" y="334" on="1"/>
        <pt x="608" y="211" on="1"/>
        <pt x="600" y="187" on="0"/>
        <pt x="587" y="177" on="1"/>
        <pt x="474" y="89" on="0"/>
        <pt x="287" y="36" on="1"/>
        <pt x="107" y="-15" on="0"/>
        <pt x="0" y="0" on="1"/>
        <pt x="-52" y="8" on="0"/>
        <pt x="-55" y="98" on="1"/>
        <pt x="-58" y="190" on="0"/>
        <pt x="-23" y="185" on="1"/>
        <pt x="9" y="181" on="0"/>
        <pt x="37" y="185" on="1"/>
        <pt x="-29" y="259" on="0"/>
        <pt x="-50" y="355" on="1"/>
        <pt x="-90" y="537" on="0"/>
        <pt x="7" y="644" on="1"/>
        <pt x="113" y="761" on="0"/>
        <pt x="225" y="784" on="1"/>
        <pt x="336" y="806" on="0"/>
        <pt x="537" y="647" on="1"/>
        <pt x="563" y="626" on="0"/>
        <pt x="550" y="600" on="1"/>
        <pt x="537" y="576" on="0"/>
        <pt x="509" y="587" on="1"/>
        <pt x="309" y="662" on="0"/>
        <pt x="121" y="591" on="1"/>
        <pt x="41" y="561" on="0"/>
        <pt x="31" y="516" on="1"/>
        <pt x="20" y="470" on="0"/>
        <pt x="104" y="360" on="1"/>
        <pt x="191" y="246" on="0"/>
        <pt x="249" y="234" on="1"/>
        <pt x="385" y="207" on="0"/>
        <pt x="502" y="291" on="1"/>
        <pt x="558" y="331" on="1"/>
        <pt x="622" y="376" on="0"/>
        <pt x="640" y="360" on="1"/>
        <pt x="654" y="347" on="0"/>
      </contour>
    </TTGlyph>
    <TTGlyph name="aAyn.init_YaaBarree" xMin="-113" yMin="177" xMax="928" yMax="1183">
      <contour>
        <pt x="423" y="1183" on="1"/>
        <pt x="476" y="1190" on="0"/>
        <pt x="682" y="1095" on="0"/>
        <pt x="737" y="1042" on="1"/>
        <pt x="750" y="1030" on="0"/>
        <pt x="741" y="1011" on="0"/>
        <pt x="724" y="1015" on="1"/>
        <pt x="395" y="1099" on="0"/>
        <pt x="216" y="895" on="1"/>
        <pt x="210" y="887" on="0"/>
        <pt x="223" y="869" on="1"/>
        <pt x="311" y="753" on="0"/>
        <pt x="509" y="720" on="1"/>
        <pt x="597" y="705" on="0"/>
        <pt x="830" y="834" on="1"/>
        <pt x="944" y="898" on="0"/>
        <pt x="928" y="841" on="1"/>
        <pt x="892" y="724" on="1"/>
        <pt x="883" y="694" on="0"/>
        <pt x="859" y="682" on="0"/>
        <pt x="767" y="646" on="1"/>
        <pt x="138" y="395" on="0"/>
        <pt x="-18" y="238" on="1"/>
        <pt x="-88" y="167" on="0"/>
        <pt x="-121" y="187" on="0"/>
        <pt x="-113" y="211" on="1"/>
        <pt x="-38" y="418" on="0"/>
        <pt x="302" y="594" on="1"/>
        <pt x="209" y="637" on="0"/>
        <pt x="92" y="755" on="0"/>
        <pt x="96" y="809" on="1"/>
        <pt x="107" y="919" on="0"/>
        <pt x="333" y="1171" on="0"/>
      </contour>
    </TTGlyph>
    <TTGlyph name="aAyn.isol" xMin="110" yMin="-947" xMax="1574" yMax="940">
      <contour>
        <pt x="330" y="940" on="1"/>
        <pt x="386" y="969" on="0"/>
        <pt x="567" y="870" on="0"/>
        <pt x="608" y="820" on="1"/>
        <pt x="634" y="789" on="0"/>
        <pt x="584" y="799" on="1"/>
        <pt x="322" y="850" on="0"/>
        <pt x="170" y="622" on="1"/>
        <pt x="162" y="610" on="0"/>
        <pt x="178" y="596" on="1"/>
        <pt x="337" y="464" on="0"/>
        <pt x="528" y="485" on="1"/>
        <pt x="561" y="489" on="0"/>
        <pt x="619" y="527" on="1"/>
        <pt x="840" y="675" on="0"/>
        <pt x="869" y="690" on="1"/>
        <pt x="905" y="708" on="0"/>
        <pt x="893" y="655" on="1"/>
        <pt x="863" y="525" on="0"/>
        <pt x="838" y="513" on="1"/>
        <pt x="681" y="439" on="0"/>
        <pt x="463" y="263" on="1"/>
        <pt x="221" y="68" on="0"/>
        <pt x="225" y="-268" on="1"/>
        <pt x="228" y="-444" on="0"/>
        <pt x="350" y="-579" on="1"/>
        <pt x="544" y="-792" on="0"/>
        <pt x="1134" y="-772" on="1"/>
        <pt x="1293" y="-767" on="0"/>
        <pt x="1546" y="-720" on="1"/>
        <pt x="1568" y="-716" on="0"/>
        <pt x="1573" y="-728" on="1"/>
        <pt x="1587" y="-759" on="0"/>
        <pt x="1369" y="-875" on="1"/>
        <pt x="1247" y="-940" on="0"/>
        <pt x="1176" y="-947" on="1"/>
        <pt x="879" y="-978" on="0"/>
        <pt x="681" y="-934" on="1"/>
        <pt x="218" y="-832" on="0"/>
        <pt x="137" y="74" on="0"/>
        <pt x="365" y="327" on="1"/>
        <pt x="196" y="391" on="0"/>
        <pt x="136" y="462" on="1"/>
        <pt x="112" y="491" on="0"/>
        <pt x="110" y="527" on="1"/>
        <pt x="107" y="623" on="0"/>
        <pt x="140" y="702" on="1"/>
        <pt x="212" y="879" on="0"/>
      </contour>
    </TTGlyph>
    <TTGlyph name="aAyn.medi" xMin="-73" yMin="0" xMax="799" yMax="528">
      <contour>
        <pt x="727" y="185" on="1"/>
        <pt x="799" y="185" on="0"/>
        <pt x="798" y="112" on="1"/>
        <pt x="796" y="3" on="0"/>
        <pt x="750" y="0" on="1"/>
        <pt x="564" y="-13" on="0"/>
        <pt x="345" y="210" on="1"/>
        <pt x="117" y="-2" on="0"/>
        <pt x="0" y="0" on="1"/>
        <pt x="-49" y="1" on="0"/>
        <pt x="-73" y="78" on="1"/>
        <pt x="-103" y="182" on="0"/>
        <pt x="-23" y="185" on="1"/>
        <pt x="104" y="190" on="0"/>
        <pt x="209" y="269" on="1"/>
        <pt x="135" y="334" on="0"/>
        <pt x="13" y="351" on="1"/>
        <pt x="-1" y="353" on="0"/>
        <pt x="0" y="373" on="1"/>
        <pt x="2" y="437" on="0"/>
        <pt x="88" y="519" on="1"/>
        <pt x="247" y="661" on="0"/>
        <pt x="482" y="528" on="1"/>
        <pt x="594" y="465" on="0"/>
        <pt x="599" y="345" on="0"/>
        <pt x="470" y="258" on="1"/>
        <pt x="552" y="185" on="0"/>
      </contour>
    </TTGlyph>
    <TTGlyph name="aAyn.medi_AynYaaFina" xMin="-66" yMin="-47" xMax="875" yMax="530">
      <contour>
        <pt x="149" y="354" on="1"/>
        <pt x="152" y="469" on="0"/>
        <pt x="224" y="517" on="1"/>
        <pt x="406" y="640" on="0"/>
        <pt x="586" y="530" on="1"/>
        <pt x="679" y="473" on="0"/>
        <pt x="711" y="408" on="1"/>
        <pt x="722" y="386" on="0"/>
        <pt x="697" y="298" on="0"/>
        <pt x="628" y="242" on="1"/>
        <pt x="722" y="186" on="0"/>
        <pt x="818" y="185" on="1"/>
        <pt x="874" y="185" on="0"/>
        <pt x="875" y="118" on="1"/>
        <pt x="874" y="0" on="0"/>
        <pt x="841" y="0" on="1"/>
        <pt x="724" y="0" on="0"/>
        <pt x="489" y="151" on="1"/>
        <pt x="480" y="157" on="0"/>
        <pt x="462" y="152" on="1"/>
        <pt x="158" y="50" on="0"/>
        <pt x="17" y="-47" on="1"/>
        <pt x="-12" y="-66" on="0"/>
        <pt x="-37" y="-40" on="1"/>
        <pt x="-68" y="-7" on="0"/>
        <pt x="-66" y="32" on="1"/>
        <pt x="-64" y="58" on="0"/>
        <pt x="-47" y="76" on="1"/>
        <pt x="12" y="138" on="0"/>
        <pt x="325" y="255" on="1"/>
        <pt x="237" y="311" on="0"/>
        <pt x="172" y="324" on="1"/>
        <pt x="148" y="329" on="0"/>
      </contour>
    </TTGlyph>
    <TTGlyph name="aBaa.fina" xMin="110" yMin="-162" xMax="1842" yMax="525">
      <contour>
        <pt x="181" y="520" on="1"/>
        <pt x="195" y="540" on="0"/>
        <pt x="231" y="509" on="0"/>
        <pt x="217" y="487" on="1"/>
        <pt x="157" y="385" on="0"/>
        <pt x="181" y="316" on="1"/>
        <pt x="284" y="30" on="0"/>
        <pt x="834" y="46" on="1"/>
        <pt x="1205" y="57" on="0"/>
        <pt x="1503" y="186" on="1"/>
        <pt x="1564" y="212" on="0"/>
        <pt x="1572" y="308" on="1"/>
        <pt x="1575" y="337" on="0"/>
        <pt x="1606" y="334" on="1"/>
        <pt x="1628" y="332" on="0"/>
        <pt x="1634" y="290" on="1"/>
        <pt x="1648" y="193" on="0"/>
        <pt x="1787" y="185" on="1"/>
        <pt x="1841" y="182" on="0"/>
        <pt x="1841" y="119" on="1"/>
        <pt x="1843" y="0" on="0"/>
        <pt x="1810" y="0" on="1"/>
        <pt x="1719" y="0" on="0"/>
        <pt x="1632" y="94" on="1"/>
        <pt x="1628" y="99" on="0"/>
        <pt x="1608" y="84" on="1"/>
        <pt x="1271" y="-161" on="0"/>
        <pt x="268" y="-163" on="0"/>
        <pt x="141" y="83" on="1"/>
        <pt x="79" y="203" on="0"/>
        <pt x="141" y="461" on="0"/>
      </contour>
    </TTGlyph>
    <TTGlyph name="aBaa.fina_BaaBaaIsol" xMin="93" yMin="-117" xMax="1598" yMax="520">
      <contour>
        <pt x="1561" y="270" on="1"/>
        <pt x="1568" y="265" on="0"/>
        <pt x="1576" y="260" on="1"/>
        <pt x="1624" y="229" on="0"/>
        <pt x="1598" y="134" on="1"/>
        <pt x="1579" y="70" on="0"/>
        <pt x="1553" y="85" on="1"/>
        <pt x="1536" y="94" on="0"/>
        <pt x="1532" y="89" on="1"/>
        <pt x="1254" y="-123" on="0"/>
        <pt x="687" y="-117" on="1"/>
        <pt x="205" y="-112" on="0"/>
        <pt x="113" y="141" on="1"/>
        <pt x="74" y="246" on="0"/>
        <pt x="93" y="350" on="1"/>
        <pt x="111" y="450" on="0"/>
        <pt x="161" y="513" on="1"/>
        <pt x="169" y="523" on="0"/>
        <pt x="195" y="517" on="0"/>
        <pt x="204" y="496" on="0"/>
        <pt x="196" y="482" on="1"/>
        <pt x="137" y="396" on="0"/>
        <pt x="159" y="314" on="1"/>
        <pt x="221" y="82" on="0"/>
        <pt x="771" y="79" on="1"/>
        <pt x="1039" y="78" on="0"/>
        <pt x="1284" y="145" on="1"/>
        <pt x="1412" y="180" on="0"/>
        <pt x="1453" y="216" on="1"/>
        <pt x="1491" y="250" on="0"/>
        <pt x="1507" y="341" on="1"/>
        <pt x="1510" y="358" on="0"/>
        <pt x="1539" y="368" on="0"/>
        <pt x="1567" y="344" on="0"/>
        <pt x="1567" y="319" on="1"/>
      </contour>
    </TTGlyph>
    <TTGlyph name="aBaa.init" xMin="-56" yMin="0" xMax="224" yMax="561">
      <contour>
        <pt x="69" y="433" on="1"/>
        <pt x="111" y="560" on="1"/>
        <pt x="124" y="599" on="0"/>
        <pt x="149" y="561" on="1"/>
        <pt x="248" y="412" on="0"/>
        <pt x="223" y="201" on="1"/>
        <pt x="199" y="0" on="0"/>
        <pt x="0" y="0" on="1"/>
        <pt x="-22" y="0" on="0"/>
        <pt x="-56" y="104" on="1"/>
        <pt x="-82" y="187" on="0"/>
        <pt x="-23" y="185" on="1"/>
        <pt x="99" y="180" on="0"/>
        <pt x="151" y="250" on="1"/>
        <pt x="154" y="254" on="0"/>
        <pt x="151" y="264" on="1"/>
        <pt x="131" y="323" on="0"/>
        <pt x="81" y="383" on="1"/>
        <pt x="60" y="408" on="0"/>
      </contour>
    </TTGlyph>
    <TTGlyph name="aBaa.init_AboveHaaIsol" xMin="-87" yMin="438" xMax="724" yMax="1157">
      <contour>
        <pt x="-86" y="443" on="1"/>
        <pt x="-49" y="497" on="0"/>
        <pt x="46" y="554" on="1"/>
        <pt x="267" y="689" on="0"/>
        <pt x="405" y="847" on="0"/>
        <pt x="456" y="1045" on="0"/>
        <pt x="503" y="1157" on="0"/>
        <pt x="548" y="1157" on="1"/>
        <pt x="592" y="1157" on="0"/>
        <pt x="635" y="1101" on="1"/>
        <pt x="700" y="1015" on="0"/>
        <pt x="724" y="733" on="1"/>
        <pt x="726" y="706" on="0"/>
        <pt x="684" y="707" on="0"/>
        <pt x="677" y="735" on="1"/>
        <pt x="623" y="961" on="0"/>
        <pt x="546" y="960" on="1"/>
        <pt x="523" y="959" on="0"/>
        <pt x="495" y="910" on="0"/>
        <pt x="466" y="832" on="1"/>
        <pt x="394" y="635" on="0"/>
        <pt x="146" y="487" on="1"/>
        <pt x="145" y="486" on="0"/>
        <pt x="-5" y="390" on="0"/>
      </contour>
    </TTGlyph>
    <TTGlyph name="aBaa.init_BaaBaaHaaInit" xMin="-116" yMin="566" xMax="94" yMax="920">
      <contour>
        <pt x="-73" y="566" on="1"/>
        <pt x="-103" y="565" on="0"/>
        <pt x="-129" y="656" on="0"/>
        <pt x="-97" y="743" on="0"/>
        <pt x="-57" y="746" on="1"/>
        <pt x="42" y="753" on="0"/>
        <pt x="44" y="895" on="1"/>
        <pt x="44" y="914" on="0"/>
        <pt x="65" y="926" on="0"/>
        <pt x="76" y="918" on="1"/>
        <pt x="97" y="902" on="0"/>
        <pt x="94" y="810" on="1"/>
        <pt x="81" y="569" on="0"/>
      </contour>
    </TTGlyph>
    <TTGlyph name="aBaa.init_BaaBaaIsol" xMin="-102" yMin="9" xMax="355" yMax="396">
      <contour>
        <pt x="-63" y="107" on="1"/>
        <pt x="-124" y="143" on="0"/>
        <pt x="-102" y="224" on="1"/>
        <pt x="-66" y="303" on="0"/>
        <pt x="-32" y="279" on="1"/>
        <pt x="134" y="164" on="0"/>
        <pt x="289" y="166" on="1"/>
        <pt x="296" y="166" on="0"/>
        <pt x="295" y="175" on="1"/>
        <pt x="293" y="185" on="0"/>
        <pt x="257" y="221" on="1"/>
        <pt x="249" y="229" on="0"/>
        <pt x="251" y="241" on="1"/>
        <pt x="251" y="241" on="0"/>
        <pt x="282" y="383" on="1"/>
        <pt x="284" y="396" on="0"/>
        <pt x="302" y="396" on="0"/>
        <pt x="308" y="386" on="1"/>
        <pt x="355" y="295" on="0"/>
        <pt x="354" y="202" on="1"/>
        <pt x="353" y="82" on="0"/>
        <pt x="313" y="41" on="1"/>
        <pt x="285" y="13" on="0"/>
        <pt x="262" y="9" on="1"/>
        <pt x="132" y="-13" on="0"/>
      </contour>
    </TTGlyph>
    <TTGlyph name="aBaa.init_BaaBaaMemInit" xMin="-111" yMin="503" xMax="104" yMax="844">
      <contour>
        <pt x="-104" y="505" on="0"/>
        <pt x="-117" y="545" on="0"/>
        <pt x="-99" y="684" on="0"/>
        <pt x="-16" y="684" on="0"/>
        <pt x="44" y="764" on="0"/>
        <pt x="58" y="825" on="1"/>
        <pt x="63" y="852" on="0"/>
        <pt x="105" y="836" on="0"/>
        <pt x="104" y="810" on="1"/>
        <pt x="89" y="655" on="0"/>
        <pt x="57" y="593" on="1"/>
        <pt x="9" y="496" on="0"/>
        <pt x="-82" y="503" on="1"/>
      </contour>
    </TTGlyph>
    <TTGlyph name="aBaa.init_BaaBaaYaaIsol" xMin="-101" yMin="278" xMax="142" yMax="651">
      <contour>
        <pt x="87" y="624" on="1"/>
        <pt x="90" y="645" on="0"/>
        <pt x="116" y="657" on="0"/>
        <pt x="143" y="635" on="0"/>
        <pt x="142" y="612" on="1"/>
        <pt x="119" y="292" on="0"/>
        <pt x="-40" y="278" on="1"/>
        <pt x="-94" y="274" on="0"/>
        <pt x="-107" y="460" on="0"/>
        <pt x="-46" y="464" on="1"/>
        <pt x="57" y="471" on="0"/>
      </contour>
    </TTGlyph>
    <TTGlyph name="aBaa.init_BaaDalIsol" xMin="-117" yMin="7" xMax="196" yMax="577">
      <contour>
        <pt x="104" y="310" on="1"/>
        <pt x="73" y="354" on="0"/>
        <pt x="30" y="392" on="0"/>
        <pt x="34" y="422" on="1"/>
        <pt x="58" y="577" on="1"/>
        <pt x="64" y="612" on="0"/>
        <pt x="94" y="573" on="1"/>
        <pt x="139" y="514" on="0"/>
        <pt x="169" y="399" on="1"/>
        <pt x="196" y="290" on="0"/>
        <pt x="194" y="106" on="0"/>
        <pt x="143" y="16" on="0"/>
        <pt x="-11" y="-1" on="0"/>
        <pt x="-137" y="97" on="0"/>
        <pt x="-117" y="177" on="1"/>
        <pt x="-99" y="249" on="0"/>
        <pt x="-43" y="232" on="1"/>
        <pt x="80" y="192" on="0"/>
        <pt x="134" y="249" on="1"/>
        <pt x="141" y="258" on="0"/>
      </contour>
    </TTGlyph>
    <TTGlyph name="aBaa.init_BaaHaaInit" xMin="-89" yMin="467" xMax="788" yMax="1130">
      <contour>
        <pt x="788" y="736" on="1"/>
        <pt x="791" y="717" on="0"/>
        <pt x="770" y="701" on="0"/>
        <pt x="745" y="714" on="0"/>
        <pt x="741" y="732" on="1"/>
        <pt x="699" y="887" on="0"/>
        <pt x="650" y="924" on="1"/>
        <pt x="616" y="949" on="0"/>
        <pt x="596" y="918" on="1"/>
        <pt x="397" y="605" on="0"/>
        <pt x="181" y="489" on="1"/>
        <pt x="102" y="446" on="0"/>
        <pt x="-25" y="467" on="1"/>
        <pt x="-120" y="484" on="0"/>
        <pt x="-89" y="518" on="1"/>
        <pt x="-69" y="540" on="0"/>
        <pt x="-26" y="557" on="1"/>
        <pt x="188" y="643" on="0"/>
        <pt x="339" y="744" on="1"/>
        <pt x="475" y="835" on="0"/>
        <pt x="523" y="999" on="1"/>
        <pt x="561" y="1129" on="0"/>
        <pt x="614" y="1130" on="1"/>
        <pt x="718" y="1132" on="0"/>
      </contour>
    </TTGlyph>
    <TTGlyph name="aBaa.init_BaaHaaMemInit" xMin="-630" yMin="814" xMax="227" yMax="1266">
      <contour>
        <pt x="105" y="1266" on="1"/>
        <pt x="208" y="1270" on="0"/>
        <pt x="226" y="1123" on="1"/>
        <pt x="241" y="999" on="0"/>
        <pt x="219" y="840" on="1"/>
        <pt x="218" y="830" on="0"/>
        <pt x="195" y="819" on="0"/>
        <pt x="171" y="840" on="0"/>
        <pt x="173" y="871" on="1"/>
        <pt x="178" y="1059" on="0"/>
        <pt x="56" y="1062" on="1"/>
        <pt x="31" y="1063" on="0"/>
        <pt x="-21" y="1017" on="1"/>
        <pt x="-206" y="855" on="0"/>
        <pt x="-336" y="814" on="1"/>
        <pt x="-678" y="704" on="0"/>
        <pt x="-630" y="844" on="1"/>
        <pt x="-626" y="851" on="0"/>
        <pt x="-536" y="876" on="1"/>
        <pt x="-283" y="945" on="0"/>
        <pt x="-164" y="1024" on="1"/>
        <pt x="-96" y="1069" on="0"/>
        <pt x="-52" y="1129" on="1"/>
        <pt x="50" y="1265" on="0"/>
      </contour>
    </TTGlyph>
    <TTGlyph name="aBaa.init_BaaHehInit" xMin="-40" yMin="-72" xMax="627" yMax="364">
      <contour>
        <pt x="526" y="128" on="1"/>
        <pt x="470" y="223" on="0"/>
        <pt x="363" y="213" on="1"/>
        <pt x="248" y="202" on="0"/>
        <pt x="150" y="147" on="1"/>
        <pt x="62" y="98" on="0"/>
        <pt x="5" y="-49" on="1"/>
        <pt x="-10" y="-86" on="0"/>
        <pt x="-50" y="-58" on="0"/>
        <pt x="-39" y="-30" on="1"/>
        <pt x="-15" y="38" on="0"/>
        <pt x="-6" y="53" on="1"/>
        <pt x="89" y="239" on="0"/>
        <pt x="224" y="318" on="1"/>
        <pt x="399" y="419" on="0"/>
        <pt x="543" y="364" on="1"/>
        <pt x="617" y="336" on="0"/>
        <pt x="626" y="276" on="1"/>
        <pt x="639" y="196" on="0"/>
        <pt x="582" y="133" on="1"/>
        <pt x="547" y="95" on="0"/>
      </contour>
    </TTGlyph>
    <TTGlyph name="aBaa.init_BaaMemHaaInit" xMin="-261" yMin="709" xMax="180" yMax="1350">
      <contour>
        <pt x="-16" y="1350" on="1"/>
        <pt x="88" y="1366" on="0"/>
        <pt x="179" y="1277" on="1"/>
        <pt x="193" y="1263" on="0"/>
        <pt x="159" y="1115" on="1"/>
        <pt x="151" y="1078" on="0"/>
        <pt x="124" y="1098" on="1"/>
        <pt x="32" y="1171" on="0"/>
        <pt x="-116" y="1161" on="0"/>
        <pt x="-187" y="1081" on="1"/>
        <pt x="-197" y="1069" on="0"/>
        <pt x="-189" y="1048" on="1"/>
        <pt x="-106" y="846" on="0"/>
        <pt x="33" y="803" on="1"/>
        <pt x="70" y="792" on="0"/>
        <pt x="33" y="761" on="1"/>
        <pt x="-28" y="708" on="0"/>
        <pt x="-179" y="710" on="0"/>
        <pt x="-207" y="769" on="1"/>
        <pt x="-249" y="856" on="0"/>
        <pt x="-260" y="946" on="1"/>
        <pt x="-284" y="1144" on="0"/>
        <pt x="-147" y="1276" on="1"/>
        <pt x="-79" y="1340" on="0"/>
      </contour>
    </TTGlyph>
    <TTGlyph name="aBaa.init_BaaMemInit" xMin="-217" yMin="414" xMax="287" yMax="973">
      <contour>
        <pt x="-139" y="493" on="1"/>
        <pt x="-116" y="434" on="0"/>
        <pt x="-163" y="414" on="1"/>
        <pt x="-207" y="394" on="0"/>
        <pt x="-217" y="456" on="1"/>
        <pt x="-232" y="547" on="0"/>
        <pt x="-214" y="627" on="1"/>
        <pt x="-143" y="941" on="0"/>
        <pt x="68" y="973" on="1"/>
        <pt x="170" y="989" on="0"/>
        <pt x="261" y="906" on="1"/>
        <pt x="290" y="879" on="0"/>
        <pt x="287" y="857" on="1"/>
        <pt x="273" y="766" on="0"/>
        <pt x="247" y="717" on="1"/>
        <pt x="237" y="699" on="0"/>
        <pt x="218" y="714" on="1"/>
        <pt x="83" y="822" on="0"/>
        <pt x="-18" y="762" on="1"/>
        <pt x="-143" y="687" on="0"/>
        <pt x="-153" y="610" on="1"/>
        <pt x="-161" y="550" on="0"/>
      </contour>
    </TTGlyph>
    <TTGlyph name="aBaa.init_BaaMemIsol" xMin="-158" yMin="377" xMax="602" yMax="717">
      <contour>
        <pt x="602" y="564" on="1"/>
        <pt x="584" y="520" on="0"/>
        <pt x="555" y="474" on="1"/>
        <pt x="504" y="395" on="0"/>
        <pt x="477" y="459" on="1"/>
        <pt x="451" y="524" on="0"/>
        <pt x="373" y="532" on="1"/>
        <pt x="237" y="545" on="0"/>
        <pt x="-31" y="377" on="1"/>
        <pt x="-110" y="328" on="0"/>
        <pt x="-150" y="384" on="1"/>
        <pt x="-165" y="404" on="0"/>
        <pt x="-158" y="412" on="1"/>
        <pt x="-128" y="447" on="0"/>
        <pt x="-12" y="527" on="1"/>
        <pt x="266" y="719" on="0"/>
        <pt x="432" y="717" on="1"/>
        <pt x="504" y="717" on="0"/>
        <pt x="628" y="631" on="0"/>
      </contour>
    </TTGlyph>
    <TTGlyph name="aBaa.init_BaaNonIsol" xMin="-148" yMin="302" xMax="169" yMax="687">
      <component glyphName="aBaa.init_BaaRaaIsol" x="-39" y="149" flags="0x1004"/>
    </TTGlyph>
    <TTGlyph name="aBaa.init_BaaRaaIsol" xMin="-109" yMin="153" xMax="208" yMax="538">
      <contour>
        <pt x="159" y="537" on="0"/>
        <pt x="202" y="539" on="0"/>
        <pt x="208" y="514" on="1"/>
        <pt x="242" y="364" on="0"/>
        <pt x="172" y="172" on="0"/>
        <pt x="57" y="153" on="1"/>
        <pt x="-24" y="139" on="0"/>
        <pt x="-85" y="168" on="1"/>
        <pt x="-111" y="181" on="0"/>
        <pt x="-109" y="233" on="1"/>
        <pt x="-109" y="233" on="0"/>
        <pt x="-97" y="389" on="1"/>
        <pt x="-93" y="440" on="0"/>
        <pt x="-29" y="362" on="0"/>
        <pt x="93" y="349" on="0"/>
        <pt x="175" y="431" on="0"/>
        <pt x="163" y="512" on="1"/>
      </contour>
    </TTGlyph>
    <TTGlyph name="aBaa.init_BaaSenAltInit" xMin="-68" yMin="-7" xMax="302" yMax="892">
      <component glyphName="aBaa.init_BaaSenInit" x="17" y="-138" flags="0x1004"/>
    </TTGlyph>
    <TTGlyph name="aBaa.init_BaaSenInit" xMin="-85" yMin="131" xMax="285" yMax="1030">
      <contour>
        <pt x="55" y="1018" on="1"/>
        <pt x="288" y="604" on="0"/>
        <pt x="285" y="278" on="1"/>
        <pt x="286" y="231" on="0"/>
        <pt x="254" y="131" on="0"/>
        <pt x="220" y="131" on="1"/>
        <pt x="116" y="132" on="0"/>
        <pt x="-38" y="312" on="1"/>
        <pt x="-58" y="334" on="0"/>
        <pt x="-84" y="426" on="0"/>
        <pt x="-85" y="507" on="0"/>
        <pt x="-68" y="507" on="1"/>
        <pt x="-59" y="507" on="0"/>
        <pt x="-48" y="488" on="1"/>
        <pt x="36" y="344" on="0"/>
        <pt x="214" y="289" on="1"/>
        <pt x="228" y="285" on="0"/>
        <pt x="225" y="309" on="1"/>
        <pt x="200" y="504" on="0"/>
        <pt x="21" y="790" on="1"/>
        <pt x="13" y="802" on="0"/>
        <pt x="16" y="944" on="0"/>
        <pt x="29" y="1019" on="1"/>
        <pt x="31" y="1030" on="0"/>
        <pt x="48" y="1030" on="0"/>
      </contour>
    </TTGlyph>
    <TTGlyph name="aBaa.init_BaaYaaIsol" xMin="-126" yMin="133" xMax="253" yMax="974">
      <contour>
        <pt x="17" y="959" on="1"/>
        <pt x="25" y="995" on="0"/>
        <pt x="49" y="974" on="1"/>
        <pt x="101" y="931" on="0"/>
        <pt x="212" y="743" on="0"/>
        <pt x="268" y="547" on="0"/>
        <pt x="238" y="343" on="0"/>
        <pt x="185" y="275" on="1"/>
        <pt x="83" y="140" on="0"/>
        <pt x="-114" y="133" on="1"/>
        <pt x="-134" y="132" on="0"/>
        <pt x="-126" y="152" on="1"/>
        <pt x="-83" y="268" on="1"/>
        <pt x="-80" y="271" on="0"/>
        <pt x="-34" y="281" on="1"/>
        <pt x="124" y="315" on="0"/>
        <pt x="207" y="421" on="1"/>
        <pt x="200" y="527" on="0"/>
        <pt x="70" y="706" on="0"/>
        <pt x="-1" y="757" on="1"/>
        <pt x="-22" y="772" on="0"/>
        <pt x="-15" y="802" on="1"/>
      </contour>
    </TTGlyph>
    <TTGlyph name="aBaa.init_High" xMin="-38" yMin="0" xMax="145" yMax="522">
      <contour>
        <pt x="37" y="513" on="1"/>
        <pt x="42" y="543" on="0"/>
        <pt x="63" y="522" on="1"/>
        <pt x="99" y="484" on="0"/>
        <pt x="151" y="287" on="0"/>
        <pt x="145" y="214" on="1"/>
        <pt x="129" y="22" on="0"/>
        <pt x="0" y="0" on="1"/>
        <pt x="-26" y="-4" on="0"/>
        <pt x="-49" y="188" on="0"/>
        <pt x="-23" y="185" on="1"/>
        <pt x="23" y="178" on="0"/>
        <pt x="85" y="190" on="1"/>
        <pt x="58" y="277" on="0"/>
        <pt x="9" y="347" on="0"/>
        <pt x="11" y="363" on="1"/>
      </contour>
    </TTGlyph>
    <TTGlyph name="aBaa.init_Tatweel" xMin="-72" yMin="0" xMax="424" yMax="533">
      <contour>
        <pt x="267" y="405" on="1"/>
        <pt x="310" y="532" on="1"/>
        <pt x="322" y="569" on="0"/>
        <pt x="348" y="533" on="1"/>
        <pt x="408" y="449" on="0"/>
        <pt x="424" y="270" on="1"/>
        <pt x="431" y="184" on="0"/>
        <pt x="390" y="119" on="1"/>
        <pt x="307" y="-17" on="0"/>
        <pt x="0" y="0" on="1"/>
        <pt x="-38" y="2" on="0"/>
        <pt x="-72" y="138" on="1"/>
        <pt x="-89" y="197" on="0"/>
        <pt x="-23" y="184" on="1"/>
        <pt x="42" y="172" on="0"/>
        <pt x="129" y="180" on="1"/>
        <pt x="215" y="188" on="0"/>
        <pt x="348" y="240" on="1"/>
        <pt x="318" y="312" on="0"/>
        <pt x="279" y="355" on="1"/>
        <pt x="259" y="378" on="0"/>
      </contour>
    </TTGlyph>
    <TTGlyph name="aBaa.init_YaaBarree" xMin="-406" yMin="586" xMax="-57" yMax="1153">
      <contour>
        <pt x="-406" y="1139" on="1"/>
        <pt x="-408" y="1149" on="0"/>
        <pt x="-398" y="1153" on="1"/>
        <pt x="-375" y="1162" on="0"/>
        <pt x="-212" y="1004" on="1"/>
        <pt x="-117" y="912" on="0"/>
        <pt x="-50" y="751" on="0"/>
        <pt x="-65" y="583" on="0"/>
        <pt x="-81" y="586" on="1"/>
        <pt x="-101" y="590" on="0"/>
        <pt x="-109" y="640" on="1"/>
        <pt x="-124" y="762" on="0"/>
        <pt x="-345" y="946" on="1"/>
        <pt x="-370" y="966" on="0"/>
        <pt x="-382" y="984" on="0"/>
        <pt x="-386" y="1002" on="1"/>
      </contour>
    </TTGlyph>
    <TTGlyph name="aBaa.isol" xMin="102" yMin="-14" xMax="1712" yMax="761">
      <contour>
        <pt x="1588" y="761" on="1"/>
        <pt x="1654" y="695" on="0"/>
        <pt x="1723" y="458" on="0"/>
        <pt x="1701" y="235" on="0"/>
        <pt x="1648" y="202" on="1"/>
        <pt x="1344" y="11" on="0"/>
        <pt x="367" y="-38" on="0"/>
        <pt x="173" y="170" on="1"/>
        <pt x="48" y="304" on="0"/>
        <pt x="103" y="484" on="1"/>
        <pt x="125" y="559" on="0"/>
        <pt x="193" y="644" on="1"/>
        <pt x="204" y="658" on="0"/>
        <pt x="231" y="650" on="0"/>
        <pt x="239" y="624" on="0"/>
        <pt x="232" y="614" on="1"/>
        <pt x="200" y="573" on="0"/>
        <pt x="168" y="478" on="0"/>
        <pt x="183" y="443" on="1"/>
        <pt x="287" y="179" on="0"/>
        <pt x="1332" y="195" on="0"/>
        <pt x="1642" y="388" on="1"/>
        <pt x="1626" y="465" on="0"/>
        <pt x="1520" y="583" on="1"/>
        <pt x="1513" y="591" on="0"/>
        <pt x="1523" y="685" on="0"/>
        <pt x="1550" y="761" on="1"/>
        <pt x="1559" y="789" on="0"/>
      </contour>
    </TTGlyph>
    <TTGlyph name="aBaa.medi" xMin="-59" yMin="0" xMax="525" yMax="336">
      <contour>
        <pt x="477" y="185" on="1"/>
        <pt x="512" y="177" on="0"/>
        <pt x="524" y="145" on="0"/>
        <pt x="524" y="113" on="1"/>
        <pt x="523" y="0" on="0"/>
        <pt x="500" y="0" on="1"/>
        <pt x="390" y="-1" on="0"/>
        <pt x="263" y="124" on="1"/>
        <pt x="185" y="13" on="0"/>
        <pt x="0" y="0" on="1"/>
        <pt x="-19" y="-1" on="0"/>
        <pt x="-30" y="31" on="1"/>
        <pt x="-58" y="116" on="1"/>
        <pt x="-66" y="137" on="0"/>
        <pt x="-44" y="183" on="0"/>
        <pt x="-23" y="185" on="1"/>
        <pt x="203" y="202" on="0"/>
        <pt x="265" y="319" on="1"/>
        <pt x="274" y="336" on="0"/>
        <pt x="308" y="336" on="0"/>
        <pt x="315" y="298" on="0"/>
        <pt x="319" y="292" on="1"/>
        <pt x="397" y="200" on="0"/>
      </contour>
    </TTGlyph>
    <TTGlyph name="aBaa.medi_BaaBaaHaaInit" xMin="-109" yMin="443" xMax="882" yMax="918">
      <contour>
        <pt x="527" y="918" on="1"/>
        <pt x="620" y="1018" on="0"/>
        <pt x="700" y="872" on="1"/>
        <pt x="755" y="770" on="0"/>
        <pt x="818" y="756" on="1"/>
        <pt x="853" y="748" on="0"/>
        <pt x="867" y="748" on="1"/>
        <pt x="913" y="750" on="0"/>
        <pt x="881" y="615" on="1"/>
        <pt x="871" y="569" on="0"/>
        <pt x="850" y="568" on="1"/>
        <pt x="719" y="560" on="0"/>
        <pt x="617" y="746" on="1"/>
        <pt x="570" y="834" on="0"/>
        <pt x="428" y="707" on="1"/>
        <pt x="328" y="617" on="0"/>
        <pt x="226" y="567" on="1"/>
        <pt x="-40" y="436" on="0"/>
        <pt x="-87" y="443" on="1"/>
        <pt x="-168" y="454" on="0"/>
        <pt x="-109" y="528" on="1"/>
        <pt x="-58" y="590" on="0"/>
        <pt x="-37" y="597" on="1"/>
        <pt x="146" y="654" on="0"/>
        <pt x="205" y="680" on="1"/>
        <pt x="327" y="736" on="0"/>
        <pt x="404" y="804" on="1"/>
        <pt x="489" y="878" on="0"/>
      </contour>
    </TTGlyph>
    <TTGlyph name="aBaa.medi_BaaBaaInit" xMin="-67" yMin="0" xMax="367" yMax="309">
      <contour>
        <pt x="367" y="157" on="1"/>
        <pt x="332" y="78" on="0"/>
        <pt x="292" y="98" on="1"/>
        <pt x="283" y="102" on="0"/>
        <pt x="224" y="143" on="1"/>
        <pt x="116" y="2" on="0"/>
        <pt x="0" y="0" on="1"/>
        <pt x="-43" y="-1" on="0"/>
        <pt x="-66" y="90" on="1"/>
        <pt x="-89" y="178" on="0"/>
        <pt x="-23" y="186" on="1"/>
        <pt x="155" y="207" on="0"/>
        <pt x="218" y="307" on="1"/>
        <pt x="236" y="335" on="0"/>
        <pt x="271" y="309" on="1"/>
        <pt x="281" y="303" on="0"/>
        <pt x="318" y="272" on="1"/>
        <pt x="393" y="214" on="0"/>
      </contour>
    </TTGlyph>
    <TTGlyph name="aBaa.medi_BaaBaaMemInit" xMin="-211" yMin="503" xMax="339" yMax="856">
      <contour>
        <pt x="316" y="684" on="1"/>
        <pt x="347" y="685" on="0"/>
        <pt x="339" y="603" on="1"/>
        <pt x="331" y="522" on="0"/>
        <pt x="309" y="508" on="1"/>
        <pt x="301" y="504" on="0"/>
        <pt x="291" y="503" on="1"/>
        <pt x="198" y="507" on="0"/>
        <pt x="52" y="669" on="1"/>
        <pt x="29" y="695" on="0"/>
        <pt x="-19" y="684" on="1"/>
        <pt x="-109" y="662" on="0"/>
        <pt x="-168" y="581" on="1"/>
        <pt x="-202" y="535" on="0"/>
        <pt x="-211" y="552" on="1"/>
        <pt x="-213" y="557" on="0"/>
        <pt x="-211" y="570" on="1"/>
        <pt x="-196" y="664" on="0"/>
        <pt x="-144" y="734" on="1"/>
        <pt x="-51" y="856" on="0"/>
        <pt x="39" y="856" on="1"/>
        <pt x="89" y="856" on="0"/>
        <pt x="130" y="798" on="1"/>
        <pt x="218" y="683" on="0"/>
      </contour>
    </TTGlyph>
    <TTGlyph name="aBaa.medi_BaaBaaYaaIsol" xMin="-75" yMin="51" xMax="745" yMax="676">
      <contour>
        <pt x="688" y="465" on="1"/>
        <pt x="736" y="467" on="0"/>
        <pt x="753" y="281" on="0"/>
        <pt x="694" y="278" on="1"/>
        <pt x="591" y="276" on="0"/>
        <pt x="371" y="498" on="0"/>
        <pt x="317" y="499" on="1"/>
        <pt x="177" y="499" on="0"/>
        <pt x="52" y="340" on="1"/>
        <pt x="8" y="282" on="0"/>
        <pt x="25" y="240" on="1"/>
        <pt x="57" y="151" on="0"/>
        <pt x="28" y="76" on="1"/>
        <pt x="10" y="31" on="0"/>
        <pt x="-23" y="51" on="1"/>
        <pt x="-78" y="85" on="0"/>
        <pt x="-71" y="245" on="0"/>
        <pt x="-34" y="320" on="1"/>
        <pt x="63" y="518" on="0"/>
        <pt x="214" y="634" on="1"/>
        <pt x="283" y="684" on="0"/>
        <pt x="371" y="676" on="1"/>
        <pt x="402" y="672" on="0"/>
        <pt x="600" y="460" on="0"/>
      </contour>
    </TTGlyph>
    <TTGlyph name="aBaa.medi_BaaHehMedi" xMin="-41" yMin="-74" xMax="656" yMax="327">
      <contour>
        <pt x="32" y="26" on="1"/>
        <pt x="12" y="-1" on="0"/>
        <pt x="2" y="-55" on="1"/>
        <pt x="-4" y="-87" on="0"/>
        <pt x="-57" y="-60" on="0"/>
        <pt x="-40" y="-23" on="1"/>
        <pt x="33" y="168" on="0"/>
        <pt x="266" y="348" on="0"/>
        <pt x="399" y="327" on="1"/>
        <pt x="441" y="319" on="0"/>
        <pt x="554" y="192" on="0"/>
        <pt x="615" y="185" on="1"/>
        <pt x="640" y="182" on="0"/>
        <pt x="659" y="90" on="0"/>
        <pt x="652" y="-2" on="0"/>
        <pt x="638" y="0" on="1"/>
        <pt x="546" y="5" on="0"/>
        <pt x="445" y="93" on="1"/>
        <pt x="379" y="150" on="0"/>
        <pt x="346" y="154" on="1"/>
        <pt x="136" y="176" on="0"/>
      </contour>
    </TTGlyph>
    <TTGlyph name="aBaa.medi_BaaMemAlfFina" xMin="-83" yMin="0" xMax="524" yMax="363">
      <contour>
        <pt x="-80" y="66" on="1"/>
        <pt x="-105" y="83" on="0"/>
        <pt x="-83" y="162" on="1"/>
        <pt x="-24" y="363" on="0"/>
        <pt x="224" y="363" on="1"/>
        <pt x="264" y="364" on="0"/>
        <pt x="309" y="298" on="1"/>
        <pt x="382" y="191" on="0"/>
        <pt x="460" y="186" on="1"/>
        <pt x="512" y="182" on="0"/>
        <pt x="523" y="80" on="1"/>
        <pt x="532" y="0" on="0"/>
        <pt x="483" y="0" on="1"/>
        <pt x="353" y="0" on="0"/>
        <pt x="236" y="156" on="1"/>
        <pt x="193" y="211" on="0"/>
        <pt x="38" y="152" on="1"/>
        <pt x="-31" y="125" on="0"/>
        <pt x="-60" y="78" on="1"/>
        <pt x="-68" y="58" on="0"/>
      </contour>
    </TTGlyph>
    <TTGlyph name="aBaa.medi_BaaMemFina" xMin="-58" yMin="0" xMax="732" yMax="386">
      <contour>
        <pt x="394" y="386" on="1"/>
        <pt x="464" y="385" on="0"/>
        <pt x="575" y="255" on="1"/>
        <pt x="631" y="191" on="0"/>
        <pt x="669" y="185" on="1"/>
        <pt x="789" y="165" on="0"/>
        <pt x="732" y="25" on="1"/>
        <pt x="722" y="0" on="0"/>
        <pt x="692" y="0" on="1"/>
        <pt x="590" y="0" on="0"/>
        <pt x="493" y="132" on="1"/>
        <pt x="414" y="240" on="0"/>
        <pt x="146" y="200" on="0"/>
        <pt x="48" y="113" on="1"/>
        <pt x="2" y="72" on="0"/>
        <pt x="-70" y="136" on="0"/>
        <pt x="-45" y="176" on="0"/>
        <pt x="25" y="226" on="1"/>
        <pt x="255" y="387" on="0"/>
      </contour>
    </TTGlyph>
    <TTGlyph name="aBaa.medi_BaaNonFina" xMin="-80" yMin="0" xMax="478" yMax="619">
      <contour>
        <pt x="447" y="0" on="1"/>
        <pt x="354" y="13" on="0"/>
        <pt x="259" y="153" on="0"/>
        <pt x="188" y="414" on="1"/>
        <pt x="185" y="427" on="0"/>
        <pt x="180" y="416" on="1"/>
        <pt x="130" y="292" on="0"/>
        <pt x="16" y="276" on="1"/>
        <pt x="-54" y="267" on="0"/>
        <pt x="-80" y="356" on="1"/>
        <pt x="-107" y="458" on="0"/>
        <pt x="-38" y="445" on="1"/>
        <pt x="124" y="416" on="0"/>
        <pt x="181" y="594" on="1"/>
        <pt x="189" y="621" on="0"/>
        <pt x="228" y="617" on="0"/>
        <pt x="235" y="587" on="1"/>
        <pt x="294" y="320" on="0"/>
        <pt x="369" y="194" on="0"/>
        <pt x="479" y="176" on="0"/>
        <pt x="476" y="-4" on="0"/>
      </contour>
    </TTGlyph>
    <TTGlyph name="aBaa.medi_BaaRaaFina" xMin="-88" yMin="0" xMax="567" yMax="634">
      <contour>
        <pt x="247" y="636" on="0"/>
        <pt x="286" y="631" on="0"/>
        <pt x="302" y="568" on="0"/>
        <pt x="365" y="300" on="0"/>
        <pt x="438" y="198" on="0"/>
        <pt x="575" y="172" on="0"/>
        <pt x="567" y="107" on="1"/>
        <pt x="555" y="0" on="0"/>
        <pt x="530" y="0" on="1"/>
        <pt x="400" y="0" on="0"/>
        <pt x="342" y="122" on="1"/>
        <pt x="312" y="185" on="0"/>
        <pt x="265" y="402" on="0"/>
        <pt x="260" y="422" on="0"/>
        <pt x="255" y="406" on="1"/>
        <pt x="207" y="238" on="0"/>
        <pt x="21" y="232" on="1"/>
        <pt x="-62" y="229" on="0"/>
        <pt x="-87" y="311" on="1"/>
        <pt x="-109" y="382" on="0"/>
        <pt x="-64" y="442" on="0"/>
        <pt x="-16" y="410" on="0"/>
        <pt x="-3" y="409" on="1"/>
        <pt x="127" y="398" on="0"/>
        <pt x="179" y="450" on="1"/>
        <pt x="216" y="485" on="0"/>
        <pt x="243" y="614" on="1"/>
      </contour>
    </TTGlyph>
    <TTGlyph name="aBaa.medi_BaaYaaFina" xMin="-45" yMin="-110" xMax="663" yMax="389">
      <contour>
        <pt x="607" y="185" on="1"/>
        <pt x="670" y="174" on="0"/>
        <pt x="663" y="115" on="1"/>
        <pt x="648" y="-2" on="0"/>
        <pt x="631" y="0" on="1"/>
        <pt x="572" y="3" on="0"/>
        <pt x="460" y="54" on="0"/>
        <pt x="335" y="209" on="0"/>
        <pt x="240" y="216" on="0"/>
        <pt x="49" y="99" on="0"/>
        <pt x="43" y="61" on="1"/>
        <pt x="24" y="-59" on="0"/>
        <pt x="-23" y="-109" on="1"/>
        <pt x="-41" y="-128" on="0"/>
        <pt x="-44" y="-110" on="1"/>
        <pt x="-63" y="-27" on="0"/>
        <pt x="58" y="212" on="0"/>
        <pt x="249" y="387" on="0"/>
        <pt x="326" y="389" on="1"/>
        <pt x="375" y="391" on="0"/>
        <pt x="511" y="200" on="0"/>
      </contour>
    </TTGlyph>
    <TTGlyph name="aBaa.medi_High" xMin="-60" yMin="0" xMax="528" yMax="746">
      <contour>
        <pt x="104" y="630" on="1"/>
        <pt x="98" y="648" on="0"/>
        <pt x="132" y="734" on="0"/>
        <pt x="140" y="746" on="1"/>
        <pt x="158" y="768" on="0"/>
        <pt x="186" y="684" on="0"/>
        <pt x="222" y="576" on="1"/>
        <pt x="303" y="336" on="0"/>
        <pt x="338" y="276" on="1"/>
        <pt x="387" y="194" on="0"/>
        <pt x="477" y="185" on="1"/>
        <pt x="502" y="183" on="0"/>
        <pt x="531" y="137" on="0"/>
        <pt x="528" y="99" on="1"/>
        <pt x="522" y="-1" on="0"/>
        <pt x="500" y="0" on="1"/>
        <pt x="326" y="4" on="0"/>
        <pt x="225" y="261" on="1"/>
        <pt x="220" y="271" on="0"/>
        <pt x="218" y="262" on="1"/>
        <pt x="158" y="16" on="0"/>
        <pt x="0" y="0" on="1"/>
        <pt x="-19" y="-2" on="0"/>
        <pt x="-41" y="51" on="0"/>
        <pt x="-77" y="183" on="0"/>
        <pt x="-23" y="185" on="1"/>
        <pt x="147" y="192" on="0"/>
        <pt x="201" y="310" on="1"/>
        <pt x="204" y="317" on="0"/>
        <pt x="158" y="440" on="0"/>
      </contour>
    </TTGlyph>
    <TTGlyph name="aBaa.medi_KafBaaInit" xMin="-61" yMin="0" xMax="493" yMax="299">
      <contour>
        <pt x="214" y="185" on="1"/>
        <pt x="198" y="197" on="0"/>
        <pt x="192" y="186" on="1"/>
        <pt x="110" y="20" on="0"/>
        <pt x="0" y="0" on="1"/>
        <pt x="-21" y="-4" on="0"/>
        <pt x="-62" y="87" on="0"/>
        <pt x="-58" y="183" on="0"/>
        <pt x="-23" y="185" on="1"/>
        <pt x="125" y="190" on="0"/>
        <pt x="204" y="297" on="1"/>
        <pt x="217" y="315" on="0"/>
        <pt x="237" y="299" on="1"/>
        <pt x="316" y="235" on="0"/>
        <pt x="423" y="201" on="1"/>
        <pt x="469" y="186" on="0"/>
        <pt x="516" y="52" on="0"/>
        <pt x="467" y="60" on="1"/>
        <pt x="356" y="78" on="0"/>
      </contour>
    </TTGlyph>
    <TTGlyph name="aBaa.medi_KafBaaMedi" xMin="-34" yMin="0" xMax="396" yMax="267">
      <contour>
        <pt x="177" y="263" on="1"/>
        <pt x="260" y="209" on="0"/>
        <pt x="426" y="176" on="0"/>
        <pt x="396" y="66" on="1"/>
        <pt x="386" y="30" on="0"/>
        <pt x="366" y="36" on="1"/>
        <pt x="238" y="74" on="0"/>
        <pt x="164" y="153" on="1"/>
        <pt x="92" y="11" on="0"/>
        <pt x="0" y="0" on="1"/>
        <pt x="-18" y="-2" on="0"/>
        <pt x="-34" y="46" on="1"/>
        <pt x="-80" y="183" on="0"/>
        <pt x="-23" y="185" on="1"/>
        <pt x="91" y="187" on="0"/>
        <pt x="139" y="259" on="1"/>
        <pt x="143" y="265" on="0"/>
        <pt x="168" y="268" on="0"/>
      </contour>
    </TTGlyph>
    <TTGlyph name="aBaa.medi_LamBaaMemInit" xMin="-213" yMin="494" xMax="246" yMax="817">
      <contour>
        <pt x="-159" y="548" on="1"/>
        <pt x="-165" y="511" on="0"/>
        <pt x="-183" y="512" on="1"/>
        <pt x="-224" y="515" on="0"/>
        <pt x="-213" y="569" on="1"/>
        <pt x="-193" y="665" on="0"/>
        <pt x="-114" y="740" on="1"/>
        <pt x="-38" y="814" on="0"/>
        <pt x="53" y="817" on="1"/>
        <pt x="94" y="818" on="0"/>
        <pt x="116" y="786" on="1"/>
        <pt x="199" y="670" on="0"/>
        <pt x="222" y="665" on="1"/>
        <pt x="238" y="662" on="0"/>
        <pt x="253" y="571" on="0"/>
        <pt x="244" y="530" on="1"/>
        <pt x="235" y="490" on="0"/>
        <pt x="210" y="494" on="1"/>
        <pt x="162" y="501" on="0"/>
        <pt x="115" y="578" on="1"/>
        <pt x="68" y="654" on="0"/>
        <pt x="22" y="657" on="1"/>
        <pt x="-77" y="663" on="0"/>
        <pt x="-153" y="567" on="1"/>
        <pt x="-156" y="562" on="0"/>
      </contour>
    </TTGlyph>
    <TTGlyph name="aBaa.medi_SenBaaMemInit" xMin="-215" yMin="407" xMax="461" yMax="838">
      <contour>
        <pt x="-144" y="499" on="1"/>
        <pt x="-135" y="422" on="0"/>
        <pt x="-167" y="407" on="1"/>
        <pt x="-208" y="389" on="0"/>
        <pt x="-215" y="470" on="1"/>
        <pt x="-224" y="578" on="0"/>
        <pt x="-195" y="643" on="1"/>
        <pt x="-105" y="850" on="0"/>
        <pt x="34" y="838" on="1"/>
        <pt x="77" y="834" on="0"/>
        <pt x="101" y="797" on="1"/>
        <pt x="242" y="584" on="0"/>
        <pt x="407" y="603" on="1"/>
        <pt x="451" y="608" on="0"/>
        <pt x="461" y="555" on="1"/>
        <pt x="474" y="483" on="0"/>
        <pt x="435" y="436" on="1"/>
        <pt x="416" y="413" on="0"/>
        <pt x="392" y="414" on="1"/>
        <pt x="280" y="419" on="0"/>
        <pt x="190" y="484" on="1"/>
        <pt x="130" y="526" on="0"/>
        <pt x="35" y="630" on="1"/>
        <pt x="-6" y="674" on="0"/>
        <pt x="-82" y="609" on="1"/>
        <pt x="-150" y="552" on="0"/>
      </contour>
    </TTGlyph>
    <TTGlyph name="aDal.fina" xMin="119" yMin="0" xMax="999" yMax="1042">
      <contour>
        <pt x="942" y="185" on="1"/>
        <pt x="974" y="177" on="0"/>
        <pt x="1006" y="84" on="0"/>
        <pt x="991" y="-1" on="0"/>
        <pt x="965" y="0" on="1"/>
        <pt x="829" y="8" on="0"/>
        <pt x="754" y="224" on="1"/>
        <pt x="731" y="292" on="0"/>
        <pt x="730" y="293" on="1"/>
        <pt x="722" y="309" on="0"/>
        <pt x="718" y="291" on="1"/>
        <pt x="676" y="118" on="0"/>
        <pt x="581" y="77" on="1"/>
        <pt x="460" y="26" on="0"/>
        <pt x="240" y="40" on="1"/>
        <pt x="69" y="51" on="0"/>
        <pt x="120" y="310" on="1"/>
        <pt x="125" y="338" on="0"/>
        <pt x="167" y="346" on="0"/>
        <pt x="178" y="315" on="1"/>
        <pt x="203" y="256" on="0"/>
        <pt x="243" y="247" on="1"/>
        <pt x="444" y="205" on="0"/>
        <pt x="597" y="269" on="1"/>
        <pt x="673" y="301" on="0"/>
        <pt x="688" y="382" on="1"/>
        <pt x="690" y="396" on="0"/>
        <pt x="577" y="810" on="0"/>
        <pt x="555" y="901" on="0"/>
        <pt x="563" y="925" on="1"/>
        <pt x="589" y="996" on="0"/>
        <pt x="598" y="1029" on="1"/>
        <pt x="602" y="1044" on="0"/>
        <pt x="633" y="1040" on="0"/>
        <pt x="638" y="1022" on="1"/>
        <pt x="740" y="592" on="0"/>
        <pt x="831" y="337" on="1"/>
        <pt x="878" y="201" on="0"/>
      </contour>
    </TTGlyph>
    <TTGlyph name="aDal.fina_BaaDalIsol" xMin="119" yMin="9" xMax="1059" yMax="996">
      <contour>
        <pt x="593" y="971" on="1"/>
        <pt x="664" y="760" on="0"/>
        <pt x="884" y="262" on="0"/>
        <pt x="995" y="204" on="0"/>
        <pt x="1055" y="125" on="1"/>
        <pt x="1133" y="22" on="0"/>
        <pt x="1059" y="9" on="1"/>
        <pt x="869" y="-24" on="0"/>
        <pt x="717" y="353" on="1"/>
        <pt x="714" y="358" on="0"/>
        <pt x="702" y="358" on="0"/>
        <pt x="701" y="352" on="1"/>
        <pt x="697" y="303" on="0"/>
        <pt x="669" y="172" on="0"/>
        <pt x="650" y="150" on="1"/>
        <pt x="583" y="70" on="0"/>
        <pt x="271" y="-22" on="0"/>
        <pt x="182" y="14" on="1"/>
        <pt x="79" y="55" on="0"/>
        <pt x="120" y="296" on="1"/>
        <pt x="121" y="303" on="0"/>
        <pt x="142" y="306" on="0"/>
        <pt x="150" y="294" on="1"/>
        <pt x="174" y="244" on="0"/>
        <pt x="204" y="227" on="1"/>
        <pt x="275" y="186" on="0"/>
        <pt x="449" y="235" on="1"/>
        <pt x="637" y="287" on="0"/>
        <pt x="666" y="371" on="1"/>
        <pt x="683" y="420" on="0"/>
        <pt x="570" y="698" on="1"/>
        <pt x="511" y="843" on="0"/>
        <pt x="521" y="885" on="1"/>
        <pt x="548" y="996" on="1"/>
        <pt x="562" y="1060" on="0"/>
      </contour>
    </TTGlyph>
    <TTGlyph name="aDal.fina_KafDal" xMin="269" yMin="-60" xMax="1038" yMax="818">
      <contour>
        <pt x="963" y="-60" on="1"/>
        <pt x="870" y="0" on="0"/>
        <pt x="792" y="247" on="1"/>
        <pt x="780" y="282" on="0"/>
        <pt x="771" y="236" on="1"/>
        <pt x="756" y="164" on="0"/>
        <pt x="729" y="101" on="1"/>
        <pt x="684" y="0" on="0"/>
        <pt x="542" y="-18" on="1"/>
        <pt x="402" y="-35" on="0"/>
        <pt x="345" y="-15" on="1"/>
        <pt x="272" y="10" on="0"/>
        <pt x="269" y="179" on="1"/>
        <pt x="269" y="206" on="0"/>
        <pt x="285" y="209" on="1"/>
        <pt x="303" y="212" on="0"/>
        <pt x="312" y="199" on="1"/>
        <pt x="333" y="163" on="0"/>
        <pt x="450" y="155" on="0"/>
        <pt x="540" y="168" on="1"/>
        <pt x="742" y="197" on="0"/>
        <pt x="747" y="311" on="1"/>
        <pt x="740" y="352" on="0"/>
        <pt x="686" y="553" on="0"/>
        <pt x="664" y="620" on="1"/>
        <pt x="640" y="691" on="0"/>
        <pt x="648" y="712" on="1"/>
        <pt x="679" y="806" on="1"/>
        <pt x="683" y="819" on="0"/>
        <pt x="696" y="818" on="1"/>
        <pt x="710" y="817" on="0"/>
        <pt x="714" y="801" on="1"/>
        <pt x="753" y="656" on="0"/>
        <pt x="836" y="404" on="1"/>
        <pt x="903" y="200" on="0"/>
        <pt x="996" y="150" on="1"/>
        <pt x="1031" y="131" on="0"/>
        <pt x="1037" y="72" on="1"/>
        <pt x="1046" y="-5" on="0"/>
        <pt x="1018" y="-52" on="1"/>
        <pt x="1000" y="-83" on="0"/>
      </contour>
    </TTGlyph>
    <TTGlyph name="aDal.fina_LamDal" xMin="129" yMin="-196" xMax="1067" yMax="797">
      <contour>
        <pt x="1037" y="-196" on="1"/>
        <pt x="947" y="-196" on="0"/>
        <pt x="900" y="-158" on="1"/>
        <pt x="794" y="-75" on="0"/>
        <pt x="691" y="159" on="1"/>
        <pt x="659" y="8" on="0"/>
        <pt x="610" y="-28" on="1"/>
        <pt x="476" y="-128" on="0"/>
        <pt x="226" y="-108" on="1"/>
        <pt x="153" y="-102" on="0"/>
        <pt x="107" y="65" on="0"/>
        <pt x="135" y="176" on="1"/>
        <pt x="139" y="192" on="0"/>
        <pt x="155" y="194" on="1"/>
        <pt x="172" y="196" on="0"/>
        <pt x="181" y="179" on="1"/>
        <pt x="240" y="70" on="0"/>
        <pt x="409" y="94" on="1"/>
        <pt x="655" y="130" on="0"/>
        <pt x="652" y="272" on="1"/>
        <pt x="518" y="673" on="1"/>
        <pt x="505" y="714" on="0"/>
        <pt x="515" y="736" on="1"/>
        <pt x="541" y="797" on="1"/>
        <pt x="560" y="840" on="0"/>
        <pt x="579" y="779" on="1"/>
        <pt x="716" y="352" on="0"/>
        <pt x="808" y="185" on="1"/>
        <pt x="884" y="48" on="0"/>
        <pt x="1006" y="34" on="1"/>
        <pt x="1040" y="30" on="0"/>
        <pt x="1074" y="-82" on="0"/>
        <pt x="1067" y="-138" on="1"/>
        <pt x="1059" y="-196" on="0"/>
      </contour>
    </TTGlyph>
    <TTGlyph name="aDal.isol" xMin="149" yMin="-12" xMax="744" yMax="793">
      <contour>
        <pt x="268" y="659" on="1"/>
        <pt x="289" y="759" on="0"/>
        <pt x="311" y="789" on="1"/>
        <pt x="326" y="809" on="0"/>
        <pt x="357" y="793" on="1"/>
        <pt x="648" y="642" on="0"/>
        <pt x="725" y="390" on="1"/>
        <pt x="769" y="248" on="0"/>
        <pt x="744" y="140" on="1"/>
        <pt x="737" y="108" on="0"/>
        <pt x="707" y="91" on="1"/>
        <pt x="524" y="-9" on="0"/>
        <pt x="289" y="-12" on="1"/>
        <pt x="127" y="-14" on="0"/>
        <pt x="150" y="196" on="1"/>
        <pt x="153" y="220" on="0"/>
        <pt x="172" y="223" on="1"/>
        <pt x="183" y="224" on="0"/>
        <pt x="204" y="208" on="1"/>
        <pt x="248" y="175" on="0"/>
        <pt x="360" y="190" on="1"/>
        <pt x="604" y="222" on="0"/>
        <pt x="675" y="268" on="1"/>
        <pt x="682" y="272" on="0"/>
        <pt x="676" y="292" on="1"/>
        <pt x="613" y="497" on="0"/>
        <pt x="304" y="612" on="1"/>
        <pt x="262" y="628" on="0"/>
      </contour>
    </TTGlyph>
    <TTGlyph name="aFaa.fina" xMin="112" yMin="-174" xMax="2096" yMax="690">
      <contour>
        <pt x="1537" y="578" on="1"/>
        <pt x="1643" y="769" on="0"/>
        <pt x="1741" y="690" on="1"/>
        <pt x="1866" y="590" on="0"/>
        <pt x="1854" y="372" on="1"/>
        <pt x="1850" y="298" on="0"/>
        <pt x="1813" y="204" on="1"/>
        <pt x="1893" y="174" on="0"/>
        <pt x="2037" y="185" on="1"/>
        <pt x="2087" y="188" on="0"/>
        <pt x="2095" y="122" on="1"/>
        <pt x="2110" y="3" on="0"/>
        <pt x="2060" y="0" on="1"/>
        <pt x="1844" y="-15" on="0"/>
        <pt x="1697" y="52" on="1"/>
        <pt x="1584" y="-32" on="0"/>
        <pt x="1390" y="-94" on="1"/>
        <pt x="968" y="-227" on="0"/>
        <pt x="575" y="-174" on="1"/>
        <pt x="371" y="-146" on="0"/>
        <pt x="128" y="15" on="0"/>
        <pt x="97" y="271" on="0"/>
        <pt x="193" y="469" on="1"/>
        <pt x="200" y="482" on="0"/>
        <pt x="227" y="482" on="0"/>
        <pt x="243" y="459" on="0"/>
        <pt x="235" y="444" on="1"/>
        <pt x="171" y="299" on="0"/>
        <pt x="214" y="234" on="1"/>
        <pt x="358" y="18" on="0"/>
        <pt x="764" y="25" on="1"/>
        <pt x="1238" y="33" on="0"/>
        <pt x="1524" y="150" on="1"/>
        <pt x="1443" y="204" on="0"/>
        <pt x="1462" y="444" on="0"/>
      </contour>
      <contour>
        <pt x="1659" y="509" on="1"/>
        <pt x="1574" y="519" on="0"/>
        <pt x="1537" y="354" on="1"/>
        <pt x="1551" y="320" on="0"/>
        <pt x="1616" y="263" on="0"/>
        <pt x="1676" y="243" on="0"/>
        <pt x="1766" y="293" on="0"/>
        <pt x="1778" y="320" on="1"/>
        <pt x="1751" y="499" on="0"/>
      </contour>
    </TTGlyph>
    <TTGlyph name="aFaa.init" xMin="-57" yMin="0" xMax="427" yMax="838">
      <contour>
        <pt x="133" y="838" on="1"/>
        <pt x="160" y="838" on="0"/>
        <pt x="203" y="804" on="1"/>
        <pt x="406" y="643" on="0"/>
        <pt x="426" y="399" on="1"/>
        <pt x="437" y="270" on="0"/>
        <pt x="388" y="194" on="1"/>
        <pt x="262" y="0" on="0"/>
        <pt x="0" y="0" on="1"/>
        <pt x="-26" y="-1" on="0"/>
        <pt x="-62" y="94" on="0"/>
        <pt x="-51" y="183" on="0"/>
        <pt x="-23" y="185" on="1"/>
        <pt x="231" y="202" on="0"/>
        <pt x="344" y="331" on="1"/>
        <pt x="332" y="392" on="0"/>
        <pt x="299" y="432" on="0"/>
        <pt x="281" y="428" on="0"/>
        <pt x="279" y="421" on="1"/>
        <pt x="255" y="332" on="0"/>
        <pt x="186" y="316" on="1"/>
        <pt x="-33" y="268" on="0"/>
        <pt x="-41" y="490" on="1"/>
        <pt x="-46" y="599" on="0"/>
        <pt x="69" y="839" on="0"/>
      </contour>
      <contour>
        <pt x="92" y="616" on="1"/>
        <pt x="46" y="614" on="0"/>
        <pt x="46" y="537" on="1"/>
        <pt x="46" y="526" on="0"/>
        <pt x="51" y="525" on="1"/>
        <pt x="92" y="513" on="0"/>
        <pt x="177" y="525" on="0"/>
        <pt x="186" y="544" on="1"/>
        <pt x="130" y="618" on="0"/>
      </contour>
    </TTGlyph>
    <TTGlyph name="aFaa.init_FaaHaaInit" xMin="-125" yMin="394" xMax="320" yMax="1216">
      <contour>
        <pt x="269" y="726" on="1"/>
        <pt x="255" y="774" on="0"/>
        <pt x="192" y="841" on="0"/>
        <pt x="175" y="812" on="1"/>
        <pt x="97" y="674" on="0"/>
        <pt x="0" y="687" on="1"/>
        <pt x="-159" y="708" on="0"/>
        <pt x="-114" y="997" on="1"/>
        <pt x="-86" y="1185" on="0"/>
        <pt x="23" y="1216" on="1"/>
        <pt x="70" y="1230" on="0"/>
        <pt x="148" y="1150" on="1"/>
        <pt x="281" y="1012" on="0"/>
        <pt x="320" y="767" on="1"/>
        <pt x="333" y="681" on="0"/>
        <pt x="300" y="597" on="1"/>
        <pt x="210" y="386" on="0"/>
        <pt x="-58" y="394" on="1"/>
        <pt x="-188" y="398" on="0"/>
        <pt x="-124" y="491" on="1"/>
        <pt x="-101" y="526" on="0"/>
        <pt x="-91" y="531" on="1"/>
        <pt x="-71" y="542" on="0"/>
        <pt x="-40" y="548" on="1"/>
        <pt x="262" y="606" on="0"/>
      </contour>
      <contour>
        <pt x="-58" y="977" on="1"/>
        <pt x="-37" y="905" on="0"/>
        <pt x="13" y="903" on="1"/>
        <pt x="64" y="902" on="0"/>
        <pt x="75" y="953" on="1"/>
        <pt x="29" y="996" on="0"/>
        <pt x="-40" y="1005" on="0"/>
      </contour>
    </TTGlyph>
    <TTGlyph name="aFaa.init_FaaMemInit" xMin="-292" yMin="406" xMax="160" yMax="1135">
      <contour>
        <pt x="-127" y="1135" on="1"/>
        <pt x="-44" y="1140" on="0"/>
        <pt x="41" y="1001" on="1"/>
        <pt x="170" y="792" on="0"/>
        <pt x="160" y="573" on="1"/>
        <pt x="156" y="490" on="0"/>
        <pt x="78" y="420" on="1"/>
        <pt x="43" y="388" on="0"/>
        <pt x="-82" y="406" on="1"/>
        <pt x="-222" y="422" on="0"/>
        <pt x="-194" y="460" on="1"/>
        <pt x="-175" y="488" on="0"/>
        <pt x="-65" y="499" on="1"/>
        <pt x="48" y="509" on="0"/>
        <pt x="99" y="575" on="1"/>
        <pt x="106" y="582" on="0"/>
        <pt x="103" y="593" on="1"/>
        <pt x="77" y="719" on="0"/>
        <pt x="17" y="727" on="1"/>
        <pt x="-25" y="575" on="0"/>
        <pt x="-161" y="612" on="1"/>
        <pt x="-315" y="654" on="0"/>
        <pt x="-292" y="909" on="1"/>
        <pt x="-256" y="1128" on="0"/>
      </contour>
      <contour>
        <pt x="-76" y="862" on="1"/>
        <pt x="-117" y="916" on="0"/>
        <pt x="-194" y="916" on="0"/>
        <pt x="-218" y="877" on="1"/>
        <pt x="-228" y="861" on="0"/>
        <pt x="-210" y="847" on="1"/>
        <pt x="-145" y="794" on="0"/>
        <pt x="-77" y="839" on="1"/>
        <pt x="-64" y="848" on="0"/>
      </contour>
    </TTGlyph>
    <TTGlyph name="aFaa.init_FaaYaaIsol" xMin="-153" yMin="142" xMax="269" yMax="964">
      <contour>
        <pt x="123" y="894" on="1"/>
        <pt x="248" y="742" on="0"/>
        <pt x="268" y="558" on="1"/>
        <pt x="279" y="474" on="0"/>
        <pt x="268" y="404" on="1"/>
        <pt x="231" y="142" on="0"/>
        <pt x="-102" y="142" on="1"/>
        <pt x="-122" y="142" on="0"/>
        <pt x="-119" y="164" on="1"/>
        <pt x="-113" y="210" on="0"/>
        <pt x="-83" y="277" on="1"/>
        <pt x="-78" y="288" on="0"/>
        <pt x="-64" y="290" on="1"/>
        <pt x="179" y="328" on="0"/>
        <pt x="230" y="428" on="1"/>
        <pt x="247" y="462" on="0"/>
        <pt x="210" y="520" on="1"/>
        <pt x="176" y="574" on="0"/>
        <pt x="146" y="588" on="1"/>
        <pt x="112" y="502" on="0"/>
        <pt x="69" y="478" on="1"/>
        <pt x="-40" y="416" on="0"/>
        <pt x="-123" y="520" on="1"/>
        <pt x="-191" y="607" on="0"/>
        <pt x="-153" y="746" on="1"/>
        <pt x="-94" y="960" on="0"/>
        <pt x="14" y="964" on="1"/>
        <pt x="64" y="966" on="0"/>
      </contour>
      <contour>
        <pt x="-29" y="762" on="0"/>
        <pt x="-83" y="760" on="0"/>
        <pt x="-106" y="726" on="1"/>
        <pt x="-117" y="709" on="0"/>
        <pt x="-90" y="691" on="1"/>
        <pt x="-22" y="646" on="0"/>
        <pt x="33" y="702" on="1"/>
        <pt x="40" y="711" on="0"/>
        <pt x="30" y="719" on="1"/>
      </contour>
    </TTGlyph>
    <TTGlyph name="aFaa.init_YaaBarree" xMin="-544" yMin="586" xMax="-58" yMax="1247">
      <contour>
        <pt x="-396" y="1247" on="1"/>
        <pt x="-365" y="1246" on="0"/>
        <pt x="-326" y="1215" on="1"/>
        <pt x="-231" y="1139" on="0"/>
        <pt x="-160" y="1036" on="1"/>
        <pt x="-34" y="855" on="0"/>
        <pt x="-58" y="646" on="1"/>
        <pt x="-65" y="582" on="0"/>
        <pt x="-82" y="586" on="1"/>
        <pt x="-108" y="592" on="0"/>
        <pt x="-105" y="644" on="1"/>
        <pt x="-100" y="750" on="0"/>
        <pt x="-238" y="918" on="1"/>
        <pt x="-259" y="800" on="0"/>
        <pt x="-330" y="785" on="1"/>
        <pt x="-525" y="739" on="0"/>
        <pt x="-543" y="931" on="1"/>
        <pt x="-554" y="1024" on="0"/>
        <pt x="-458" y="1247" on="0"/>
      </contour>
      <contour>
        <pt x="-418" y="1067" on="1"/>
        <pt x="-462" y="1065" on="0"/>
        <pt x="-462" y="992" on="1"/>
        <pt x="-461" y="982" on="0"/>
        <pt x="-457" y="981" on="1"/>
        <pt x="-418" y="970" on="0"/>
        <pt x="-339" y="981" on="0"/>
        <pt x="-330" y="999" on="1"/>
        <pt x="-382" y="1068" on="0"/>
      </contour>
    </TTGlyph>
    <TTGlyph name="aFaa.isol" xMin="88" yMin="-17" xMax="1815" yMax="1032">
      <contour>
        <pt x="1504" y="1032" on="1"/>
        <pt x="1584" y="1058" on="0"/>
        <pt x="1773" y="805" on="0"/>
        <pt x="1814" y="576" on="1"/>
        <pt x="1830" y="492" on="0"/>
        <pt x="1812" y="434" on="1"/>
        <pt x="1773" y="306" on="0"/>
        <pt x="1402" y="100" on="0"/>
        <pt x="900" y="-16" on="0"/>
        <pt x="685" y="-17" on="1"/>
        <pt x="168" y="-20" on="0"/>
        <pt x="93" y="306" on="1"/>
        <pt x="81" y="362" on="0"/>
        <pt x="97" y="567" on="0"/>
        <pt x="153" y="661" on="1"/>
        <pt x="161" y="675" on="0"/>
        <pt x="187" y="672" on="0"/>
        <pt x="200" y="647" on="0"/>
        <pt x="193" y="634" on="1"/>
        <pt x="76" y="399" on="0"/>
        <pt x="234" y="295" on="1"/>
        <pt x="466" y="141" on="0"/>
        <pt x="920" y="196" on="1"/>
        <pt x="1291" y="241" on="0"/>
        <pt x="1646" y="434" on="1"/>
        <pt x="1750" y="490" on="0"/>
        <pt x="1757" y="564" on="1"/>
        <pt x="1742" y="614" on="0"/>
        <pt x="1693" y="649" on="1"/>
        <pt x="1689" y="653" on="0"/>
        <pt x="1683" y="640" on="1"/>
        <pt x="1641" y="532" on="0"/>
        <pt x="1558" y="520" on="1"/>
        <pt x="1395" y="496" on="0"/>
        <pt x="1349" y="651" on="1"/>
        <pt x="1318" y="756" on="0"/>
        <pt x="1428" y="964" on="1"/>
        <pt x="1455" y="1016" on="0"/>
      </contour>
      <contour>
        <pt x="1561" y="743" on="1"/>
        <pt x="1578" y="762" on="0"/>
        <pt x="1554" y="781" on="1"/>
        <pt x="1473" y="843" on="0"/>
        <pt x="1442" y="769" on="1"/>
        <pt x="1434" y="751" on="0"/>
        <pt x="1447" y="740" on="1"/>
        <pt x="1511" y="690" on="0"/>
      </contour>
    </TTGlyph>
    <TTGlyph name="aFaa.medi" xMin="-54" yMin="0" xMax="782" yMax="776">
      <contour>
        <pt x="484" y="776" on="1"/>
        <pt x="496" y="776" on="0"/>
        <pt x="504" y="772" on="1"/>
        <pt x="557" y="742" on="0"/>
        <pt x="581" y="660" on="1"/>
        <pt x="627" y="503" on="0"/>
        <pt x="582" y="367" on="1"/>
        <pt x="560" y="301" on="0"/>
        <pt x="524" y="236" on="1"/>
        <pt x="657" y="189" on="0"/>
        <pt x="752" y="185" on="1"/>
        <pt x="771" y="184" on="0"/>
        <pt x="782" y="134" on="1"/>
        <pt x="810" y="3" on="0"/>
        <pt x="775" y="0" on="1"/>
        <pt x="609" y="-17" on="0"/>
        <pt x="338" y="118" on="1"/>
        <pt x="268" y="82" on="0"/>
        <pt x="37" y="1" on="0"/>
        <pt x="0" y="0" on="1"/>
        <pt x="-25" y="-1" on="0"/>
        <pt x="-58" y="90" on="0"/>
        <pt x="-49" y="181" on="0"/>
        <pt x="-23" y="185" on="1"/>
        <pt x="91" y="202" on="0"/>
        <pt x="188" y="237" on="1"/>
        <pt x="162" y="328" on="0"/>
        <pt x="188" y="432" on="1"/>
        <pt x="230" y="602" on="0"/>
        <pt x="383" y="728" on="1"/>
        <pt x="441" y="776" on="0"/>
      </contour>
      <contour>
        <pt x="418" y="560" on="1"/>
        <pt x="320" y="568" on="0"/>
        <pt x="253" y="455" on="1"/>
        <pt x="234" y="426" on="0"/>
        <pt x="339" y="304" on="0"/>
        <pt x="459" y="304" on="0"/>
        <pt x="524" y="382" on="1"/>
        <pt x="510" y="540" on="0"/>
      </contour>
    </TTGlyph>
    <TTGlyph name="aFaa.medi_FaaYaaFina" xMin="-75" yMin="-205" xMax="880" yMax="776">
      <contour>
        <pt x="286" y="432" on="1"/>
        <pt x="328" y="602" on="0"/>
        <pt x="481" y="728" on="1"/>
        <pt x="539" y="776" on="0"/>
        <pt x="582" y="776" on="1"/>
        <pt x="594" y="776" on="0"/>
        <pt x="602" y="772" on="1"/>
        <pt x="655" y="742" on="0"/>
        <pt x="679" y="660" on="1"/>
        <pt x="725" y="503" on="0"/>
        <pt x="680" y="367" on="1"/>
        <pt x="658" y="301" on="0"/>
        <pt x="622" y="236" on="1"/>
        <pt x="712" y="183" on="0"/>
        <pt x="850" y="185" on="1"/>
        <pt x="869" y="185" on="0"/>
        <pt x="880" y="134" on="1"/>
        <pt x="908" y="1" on="0"/>
        <pt x="873" y="0" on="1"/>
        <pt x="672" y="0" on="0"/>
        <pt x="441" y="116" on="1"/>
        <pt x="126" y="-33" on="0"/>
        <pt x="-15" y="-205" on="1"/>
        <pt x="-75" y="-204" on="1"/>
        <pt x="-40" y="-75" on="1"/>
        <pt x="85" y="77" on="0"/>
        <pt x="328" y="207" on="1"/>
        <pt x="253" y="301" on="0"/>
      </contour>
      <contour>
        <pt x="516" y="560" on="1"/>
        <pt x="418" y="568" on="0"/>
        <pt x="351" y="455" on="1"/>
        <pt x="332" y="426" on="0"/>
        <pt x="437" y="304" on="0"/>
        <pt x="557" y="304" on="0"/>
        <pt x="622" y="382" on="1"/>
        <pt x="608" y="540" on="0"/>
      </contour>
    </TTGlyph>
    <TTGlyph name="aFour.above" xMin="-230" yMin="136" xMax="135" yMax="843">
      <component glyphName="uni06F4.urd" x="-289" y="230" scale="0.5" flags="0x1004"/>
    </TTGlyph>
    <TTGlyph name="aFour.below" xMin="-230" yMin="136" xMax="135" yMax="843">
      <component glyphName="uni06F4.urd" x="-289" y="230" scale="0.5" flags="0x1004"/>
    </TTGlyph>
</ttFont>
